<?xml version="1.0" encoding="iso-8859-1"?>
<!-- Generator: Adobe Illustrator 16.0.0, SVG Export Plug-In . SVG Version: 6.00 Build 0)  -->
<!DOCTYPE svg PUBLIC "-//W3C//DTD SVG 1.1//EN" "http://www.w3.org/Graphics/SVG/1.1/DTD/svg11.dtd">
<svg version="1.1" id="Capa_1" xmlns="http://www.w3.org/2000/svg" xmlns:xlink="http://www.w3.org/1999/xlink" x="0px" y="0px"
	 width="521.736px" height="521.736px" viewBox="0 0 521.736 521.736" style="enable-background:new 0 0 521.736 521.736;"
	 xml:space="preserve">
<g>
	<g>
		<path d="M516.016,294.013c-0.115-7.535-1.08-14.879-4.419-21.728c-3.276-6.723-9.323-11.67-15.395-15.762
			c-19.51-13.15-42.325-21.941-64.174-30.332c-9.536-3.66-19.12-7.197-28.663-10.84c0.384-6.864-1.117-13.811-7.616-17.302
			c-6.417-3.447-14.862-2.101-21.723-1.228c-0.098,0.012-0.18,0.045-0.271,0.062c-0.759-0.787-1.515-1.578-2.259-2.402
			c-6.873-7.611-12.696-16.104-19.314-23.928c-7.9-9.342-17.58-17.033-25.993-25.895c-0.164-0.172-0.333-0.319-0.504-0.453
			c-0.841-1.152-2.257-1.822-4.057-1.242c-0.226,0.073-0.453,0.137-0.68,0.207c-12.853-4.16-26.059-7.09-39.193-10.207
			c-0.456-0.106-0.878-0.121-1.283-0.094c-2.234-4.403-4.29-8.875-5.257-13.779c-0.354-1.807-1.568-2.68-2.936-2.846
			c-3.022-1.051-5.947-2.352-8.923-3.521c-0.708-1.57-2.287-2.596-4.396-1.76c-17.007,6.742-36.798,8.514-54.937,7.19
			c-3.114-0.228-4.322,2.606-3.667,4.968c-1.507,0.33-2.959,0.902-4.352,1.578l-0.001,0.001c-7.705,3.264-16.718,4.53-24.898,6.015
			c-9.397,1.705-18.889,2.842-28.377,3.887c-17.646,1.941-35.362,3.503-52.936,6.052c-7.775,1.128-15.305,3.028-22.456,6.317
			c-6.32,2.906-11.868,7.826-17.037,12.396c-10.687,9.447-20.716,20.863-26.491,34.057c-7.886,1.975-16.05,3.869-19.532,12.144
			c-2.335,5.548-2.433,11.812-2.501,17.738c-0.081,6.995,0.589,14.001,1.739,20.904c-1.925,0.299-3.746,1.893-3.49,3.943
			c1.3,10.419,4.342,20.107,10.308,28.824c5.632,8.229,13.255,14.834,20.941,21.104c0.094,9.877,2.935,19.791,8.777,27.396
			c5.373,6.994,12.836,14.285,21.375,18.27c1.854,1.188,3.827,2.158,5.896,2.793c0.11,0.107,0.244,0.199,0.436,0.244
			c1.426,0.332,2.896,0.394,4.334,0.666c0.109,0.021,0.205,0.006,0.303-0.002c2.018,0.232,4.038,0.144,5.996-0.283
			c6.807-0.928,13.529-1.928,19.815-4.881c6.148-2.889,10.059-8.41,12.239-14.613c43.903,14.466,88.797,26.16,134.516,33.006
			c0.286,0.043,0.56,0.052,0.826,0.043c0.64,0.164,1.313,0.183,1.967-0.043c1.547-0.532,3.049-1.19,4.53-1.891
			c0.733,6.523,2.132,12.953,3.799,18.922c1.617,5.793,4.022,11.314,7.177,16.146c0.033,0.397,0.29,0.76,0.615,0.926
			c7.378,10.754,18.63,17.776,33.444,16.022c1.994-0.235,3.895-0.688,5.703-1.313c0.112-0.004,0.216,0.01,0.335-0.002
			c9.946-1.008,21.977-2.894,29.927-9.498c6.473-5.377,7.372-12.713,8.378-20.449c12.629,2.494,25.388,3.859,38.283,1.867
			c12.396-1.916,24.444-6.314,36.568-9.488c3.517-0.922,7.037-1.824,10.561-2.723c5.751,7.82,14.029,11.918,23.796,8.119
			c9.269-3.604,16.401-11.853,21.941-19.809c0.133-0.191,0.238-0.382,0.334-0.57c5.244-1.584,10.452-3.285,15.585-5.193
			c8.245-3.067,16.166-6.914,22.559-13.074C522.137,328.222,525.877,306.447,516.016,294.013z M500.098,269.898
			c0.878,0.926,1.722,1.887,2.48,2.928c2.926,4.004,4.3,8.654,4.933,13.453c-0.275,0.104-0.557,0.242-0.838,0.422
			c-4.847,3.117-14.811,7.242-22.228,6.418c3.308-5.977,4.127-13.557,5.82-20.139C493.508,271.843,496.861,270.941,500.098,269.898z
			 M479.283,291.045c1.626-5.334,4.298-10.311,5.501-15.76c1.044-0.535,2.121-1.006,3.215-1.444
			c-1.479,6.307-2.394,13.403-5.643,18.889c-1.173-0.316-2.253-0.789-3.193-1.461C479.205,291.195,479.256,291.136,479.283,291.045z
			 M477.602,289.771c-3.333-4.332,0.84-10.584,4.649-13.047c0.04-0.025,0.082-0.045,0.121-0.07
			C481.105,281.125,479.038,285.341,477.602,289.771z M395.414,212.219c-1.162-0.496-2.289-1.029-3.392-1.59
			c0.729-1.085,1.487-2.15,2.221-3.232C395.023,208.773,395.34,210.46,395.414,212.219z M392.909,205.787
			c-0.867,1.314-1.784,2.596-2.659,3.904c-0.622-0.342-1.237-0.691-1.843-1.053c0.886-1.313,1.791-2.613,2.733-3.885
			C391.841,205.014,392.412,205.373,392.909,205.787z M386.703,203.971c0.786,0.058,1.564,0.158,2.339,0.285
			c-0.797,1.097-1.572,2.209-2.333,3.334c-0.469-0.3-0.942-0.594-1.404-0.904C385.734,205.762,386.205,204.859,386.703,203.971z
			 M384.49,203.889c-0.285,0.539-0.566,1.08-0.829,1.632c-0.7-0.507-1.407-1.005-2.087-1.54
			C382.548,203.914,383.52,203.889,384.49,203.889z M362.876,196.705c2.008,2.418,4.11,4.748,6.309,6.979
			c-6.096,0.997-12.194,1.958-18.298,2.903c2.875-4.885,5.746-9.795,7.875-15.025C360.113,193.296,361.476,195.018,362.876,196.705z
			 M322.127,151.957c7.208,7.377,15.045,14.111,22.085,21.657c3.359,3.602,6.439,7.46,9.464,11.366
			c-2.481,8.265-7.437,15.529-11.684,22.973c-30.95,4.699-61.971,8.945-92.911,13.716c-2.462-4.128-4.775-8.302-7.001-12.51
			c10.374-16.669,21.221-33.104,29.395-51.003c2.079-0.143,4.159-0.283,6.237-0.423c14.521-0.979,29.171-2.101,43.19-6.181
			C321.31,151.689,321.721,151.818,322.127,151.957z M255.714,160.827c0.259-0.461,0.396-0.914,0.447-1.353
			c2.434-0.274,4.873-0.498,7.314-0.705c-7.27,14.993-16.278,29.03-25.122,43.144c-0.603-1.199-1.209-2.398-1.801-3.604
			C242.132,185.416,248.838,173.064,255.714,160.827z M232.596,190.083c-1.244-2.632-2.48-5.273-3.713-7.932
			c-2.034-4.388-3.823-8.944-4.935-13.659c-1.325-5.621,5.896-5.643,9.936-5.941c4.712-0.35,9.303-1.19,13.934-1.943
			C242.429,170.269,237.198,180.023,232.596,190.083z M245.857,123.301c0.414,2.127,1.187,4.255,1.764,6.127
			c1.337,4.338,2.938,8.605,4.637,12.818c-4.82,0.137-9.639,0.26-14.429,0.611c-0.461-5.348-1.529-10.626-1.137-16.035
			c0.05-0.686-0.057-1.273-0.267-1.775C239.601,124.582,242.752,124,245.857,123.301z M219.372,126.508
			c3.147-0.081,6.312-0.27,9.471-0.555c-0.075,0.272-0.128,0.561-0.15,0.869c-0.413,5.691,0.801,11.236,1.212,16.872
			c-3.624,0.521-7.225,1.249-10.789,2.307C217.552,139.729,219.676,132.919,219.372,126.508z M207.828,126.383
			c1.176,0.058,2.358,0.099,3.545,0.129c0.057,1.137,0.042,2.273,0.001,3.411c-1.545-0.254-3.068-0.578-4.495-1.146
			C207.195,127.978,207.514,127.182,207.828,126.383z M206.145,130.623c1.637,0.638,3.374,0.984,5.129,1.271
			c-0.065,0.985-0.141,1.971-0.224,2.956c-0.724-0.266-1.43-0.569-2.092-0.826c-1.202-0.467-2.394-0.964-3.596-1.431
			C205.624,131.937,205.885,131.28,206.145,130.623z M204.63,134.442c1.272,0.486,2.532,1.01,3.797,1.512
			c0.78,0.309,1.609,0.655,2.458,0.943c-0.048,0.631-0.094,1.26-0.129,1.889c-2.259-0.91-4.511-1.852-6.852-2.516
			C204.149,135.661,204.387,135.05,204.63,134.442z M203.154,138.133c2.578,0.711,5.043,1.771,7.525,2.766
			c-0.009,0.558-0.015,1.115,0.001,1.672c-2.755-0.85-5.382-2.053-8.072-3.08C202.794,139.039,202.971,138.584,203.154,138.133z
			 M201.842,141.33c2.99,1.126,5.891,2.498,8.972,3.371c0.068,0.694,0.158,1.387,0.288,2.079c-3.382-0.901-6.656-2.51-9.92-3.866
			C201.406,142.387,201.621,141.858,201.842,141.33z M140.507,157.376c9.203,0.914,18.366,2.127,27.469,3.769
			c7.511,1.354,15.096,2.827,21.906,6.399c11.219,5.886,18.801,18.178,24.88,28.834c3.882,6.805,7.064,14.006,10.173,21.188
			c1.534,3.544,3.025,7.105,4.536,10.66c0.827,1.945,1.668,3.885,2.518,5.82c0.386,0.881,1.06,1.873,1.565,2.857
			c-0.11,0.178-0.223,0.353-0.315,0.565c-6.862,15.851-13.105,32.149-16.631,49.101c-1.817,8.738-2.409,17.49-1.353,26.363
			c0.844,7.084,2.521,14.021,3.83,21.022c-18.438-6.852-38.347-9.694-57.536-13.479c-11.601-2.287-22.887-5.795-34.152-9.357
			c0.457-16.737-0.738-33.481,0.02-50.214c0.595-13.165-2.123-27.563,1.8-40.354c0.26-0.846,0.233-1.601,0.03-2.26
			c16.133,4.252,32.22,8.715,48.714,11.338c0.554,4.412,2.599,8.314,7.38,10.646c9.954,4.854,23.014,0.209,33.353-0.787
			c1.911-0.184,3.198-1.114,3.857-2.936c0.839-2.317,2.576-4.149,3.597-6.379c0.002-0.004,0.003-0.008,0.004-0.012
			c1.361-1.42,1.826-3.699,0.037-5.502c-5.923-5.967-11.559-12.229-15.817-19.531c-1.216-2.085-14.561-20.477-20.224-30.326
			c-0.276-0.48-0.605-0.854-0.966-1.143c-0.069-0.096-0.128-0.196-0.2-0.289c-0.961-1.233-2.338-1.521-3.669-2.118
			c-0.066-0.03-0.13-0.062-0.201-0.09c-0.013-0.006-0.025-0.011-0.038-0.017c-0.071-0.035-0.14-0.037-0.209-0.055
			c-0.145-0.045-0.279-0.098-0.44-0.127c-15.147-2.742-29.695-7.852-44.667-11.333c-0.628-0.146-1.21-0.153-1.739-0.052
			c-1.674-0.117-3.35,0.715-3.848,2.846c-0.045,0.192-0.083,0.387-0.127,0.58c-0.87-0.616-1.691-1.298-2.461-2.058
			c-0.918-0.906-2.333,0.507-1.414,1.414c1.046,1.032,2.186,1.954,3.414,2.749c-0.21,0.959-0.433,1.916-0.631,2.879
			c-0.254-0.195-0.498-0.4-0.727-0.625c-0.922-0.902-2.337,0.511-1.414,1.414c0.483,0.475,1.071,0.991,1.715,1.368
			c-0.207,1.042-0.42,2.084-0.618,3.128c-0.446-0.33-0.876-0.69-1.287-1.097c-0.918-0.907-2.333,0.507-1.414,1.414
			c0.722,0.712,1.483,1.3,2.302,1.806c-0.177,0.952-0.354,1.904-0.526,2.857c-0.613-0.477-1.227-0.953-1.847-1.42
			c-1.031-0.777-2.026,0.961-1.01,1.727c0.826,0.622,1.643,1.258,2.46,1.893c-0.169,0.936-0.338,1.871-0.507,2.807
			c-0.894-0.525-1.819-0.994-2.787-1.394c-1.192-0.491-1.707,1.444-0.532,1.929c1.027,0.424,2.003,0.963,2.938,1.564
			c-0.187,1.02-0.374,2.037-0.564,3.056c-0.8-0.717-1.635-1.387-2.565-1.956c-1.104-0.676-2.107,1.055-1.01,1.727
			c1.17,0.716,2.164,1.604,3.134,2.549c-0.215,1.111-0.432,2.223-0.659,3.332c-0.699-0.508-1.412-0.996-2.106-1.511
			c-1.038-0.769-2.034,0.968-1.01,1.727c0.882,0.653,1.792,1.265,2.656,1.935c-0.156,0.732-0.306,1.465-0.47,2.195
			c-0.914-0.988-1.937-1.861-2.899-2.812c-0.918-0.907-2.333,0.507-1.414,1.414c1.116,1.104,2.409,2.078,3.373,3.327
			c0.113,0.147,0.255,0.257,0.404,0.345c-0.165,0.696-0.318,1.396-0.492,2.09c-0.778-0.648-1.582-1.268-2.395-1.877
			c-1.033-0.775-2.028,0.963-1.01,1.727c0.981,0.736,1.928,1.508,2.838,2.326c-0.381,1.424-0.776,2.846-1.205,4.26
			c-0.724-0.631-1.408-1.303-2.025-2.06c-0.815-1-2.222,0.424-1.414,1.414c0.81,0.993,1.733,1.839,2.712,2.636
			c-0.532,0.795-0.819,1.76-0.775,2.709c-0.182,0.584-0.215,1.117-0.152,1.607c-0.876-0.752-1.732-1.527-2.616-2.27
			c-0.98-0.824-2.402,0.584-1.414,1.414c1.111,0.934,2.189,1.904,3.302,2.834c-0.163,0.278-0.31,0.58-0.416,0.928
			c-0.087,0.282-0.159,0.568-0.24,0.853c-0.524-0.507-1.039-1.023-1.552-1.536c-0.913-0.913-2.327,0.501-1.414,1.414
			c0.788,0.787,1.582,1.563,2.407,2.305c-0.336,1.473-0.61,2.96-0.827,4.462c-1.049-0.873-2.081-1.765-3.054-2.726
			c-0.918-0.908-2.332,0.506-1.414,1.414c1.316,1.303,2.735,2.484,4.174,3.646c-0.067,0.635-0.141,1.268-0.191,1.906
			c-0.99-0.819-2.021-1.59-3.092-2.311c-1.073-0.723-2.073,1.011-1.01,1.727c1.395,0.938,2.706,1.961,3.943,3.084
			c-0.077,1.557-0.115,3.121-0.125,4.689c-0.655-0.654-1.31-1.311-1.965-1.965c-0.912-0.912-2.326,0.502-1.414,1.414
			c1.128,1.129,2.256,2.257,3.385,3.385c0.011,0.971,0.028,1.943,0.052,2.914c-0.462-0.43-0.932-0.852-1.38-1.295
			c-0.917-0.908-2.332,0.506-1.414,1.414c0.933,0.924,1.902,1.807,2.871,2.692c0.021,0.689,0.038,1.368,0.061,2.056
			c-0.72-0.682-1.5-1.297-2.362-1.826c-1.102-0.678-2.105,1.053-1.01,1.727c1.337,0.822,2.504,1.889,3.46,3.133
			c0.017,0.592,0.039,1.191,0.053,1.78c-0.921-0.71-1.789-1.489-2.621-2.312c-0.917-0.907-2.332,0.507-1.414,1.414
			c1.256,1.242,2.599,2.419,4.075,3.394c0.01,1.009,0.014,2.014,0.002,3.01c-0.001,0.086-0.001,0.172-0.002,0.256
			c-0.573-0.543-1.139-1.096-1.698-1.656c-0.913-0.912-2.327,0.502-1.414,1.414c1.005,1.005,2.024,1.986,3.098,2.906
			c-0.009,1.5-0.023,3-0.024,4.5c-1.113-0.87-2.175-1.809-3.264-2.723c-0.98-0.824-2.403,0.582-1.414,1.414
			c1.543,1.297,3.035,2.646,4.684,3.799c0.002,1.281,0.002,2.562,0.008,3.847c-1.157-1.142-2.335-2.261-3.599-3.283
			c-0.992-0.806-2.416,0.602-1.414,1.414c1.707,1.385,3.261,2.938,4.813,4.491c0.067,0.066,0.141,0.099,0.212,0.142
			c0.006,0.99,0.007,1.981,0.014,2.975c-0.922-0.721-1.826-1.459-2.662-2.283c-0.918-0.905-2.333,0.507-1.414,1.414
			c1.255,1.238,2.645,2.31,4.053,3.365c0.014,0.01,0.028,0.017,0.043,0.025c0.007,0.957,0.014,1.914,0.021,2.871
			c-0.714-0.607-1.401-1.248-2.061-1.9c-0.917-0.908-2.332,0.506-1.414,1.414c1.091,1.078,2.257,2.119,3.492,3.045
			c0.006,0.848,0.013,1.695,0.018,2.541c-0.617-0.479-1.21-0.988-1.774-1.545c-0.919-0.906-2.334,0.506-1.414,1.414
			c0.987,0.973,2.06,1.836,3.2,2.611c0.004,1.061,0.014,2.12,0.015,3.182c-0.608-0.576-1.208-1.16-1.801-1.754
			c-0.913-0.912-2.327,0.502-1.414,1.414c1.04,1.041,2.106,2.049,3.214,3.014c-0.002,1.156,0.008,2.312-0.001,3.469l-1.799-1.799
			c-0.913-0.914-2.327,0.5-1.414,1.414c1.06,1.06,2.119,2.119,3.18,3.18c-0.013,1.072-0.021,2.146-0.04,3.222
			c-0.778-0.791-1.54-1.601-2.211-2.479c-0.771-1.012-2.51-0.018-1.727,1.011c1.063,1.393,2.279,2.641,3.516,3.881
			c-11.607-3.623-23.27-7.006-35.312-8.871c-0.335-0.086-0.689-0.146-1.085-0.146c-0.024,0-0.046,0.008-0.07,0.008
			c-1.906-6.741-3.223-13.688-5.635-20.293c-2.958-8.1-8.072-14.6-14.632-19.744c-0.38-0.855-1.15-1.524-2.381-1.771
			c-1.16-0.812-2.356-1.589-3.592-2.326c-3.139-1.875-5.896-2.809-8.326-3.008c0.173-9.781-0.608-19.549-0.405-29.33
			c0.215-10.379,2.544-20.438,6.99-29.812c7.567-15.956,20.329-30.535,34.87-40.559
			C106.469,154.648,123.517,155.692,140.507,157.376z M162.482,175.578c0.442-0.418,0.726-0.868,0.894-1.328
			c2.775,0.753,5.556,1.483,8.349,2.162c-5.173,6.381-13.025,10.797-19.79,15.061c-5.948,3.75-12.123,7.405-17.725,11.736
			c1.021-4.25,1.88-8.537,2.684-12.838C145.722,186.375,155.394,182.264,162.482,175.578z M138.401,182.077
			c0.834-4.64,1.681-9.277,2.67-13.885c4.931,1.227,9.825,2.595,14.719,3.963C150.766,176.311,144.5,179.333,138.401,182.077z
			 M210.936,232.495c-1.158,0.171-2.315,0.345-3.473,0.512c1.249-2.562,2.525-5.112,3.669-7.718c0.401-0.915,0.9-2.389,1.485-3.652
			c0.788,0.957,1.6,1.895,2.419,2.824C213.656,227.133,212.331,229.832,210.936,232.495z M216.466,226.04
			c0.599,0.655,1.192,1.317,1.806,1.958c-0.722,1.276-1.509,2.503-2.211,3.787c-0.897,0.111-1.792,0.242-2.687,0.367
			C214.415,230.121,215.424,228.073,216.466,226.04z M209.616,223.817c-1.481,3.188-3.048,6.339-4.547,9.521
			c-0.875,0.116-1.75,0.232-2.627,0.329c2.531-5.067,4.94-10.195,7.71-15.136c0.361,0.479,0.737,0.944,1.107,1.415
			C210.6,221.231,210.101,222.77,209.616,223.817z M200.095,233.893c-0.996,0.082-1.995,0.15-2.997,0.188
			c2.812-5.235,5.337-10.622,8.362-15.732c0.397-0.005,0.798-0.205,0.972-0.674c0.116-0.34,0.253-0.672,0.387-1.004
			c0.602-0.066,1.203-0.118,1.803-0.195c0.072,0.102,0.15,0.197,0.223,0.299C205.667,222.342,202.988,228.17,200.095,233.893z
			 M194.803,234.11c-0.1,0-0.198,0.006-0.298,0.004c-0.85-0.011-1.688-0.066-2.495-0.179c2.814-5.67,5.17-11.872,9.059-16.776
			c0.966-0.057,1.929-0.133,2.893-0.211C200.629,222.512,197.92,228.419,194.803,234.11z M193.108,217.445
			c0.352-0.005,0.702-0.019,1.053-0.024c-2.63,4.322-5.289,8.625-7.862,12.98c-0.193-0.4-0.356-0.84-0.479-1.33
			c-0.01-0.035-0.011-0.074-0.02-0.111C188.13,225.058,190.875,221.393,193.108,217.445z M185.57,225.544
			c0.175-2.701,1.035-5.549,1.818-8.059c1.137-0.002,2.273-0.008,3.411-0.016C189.164,220.221,187.311,222.851,185.57,225.544z
			 M196.535,217.365c0.655-0.021,1.312-0.05,1.967-0.077c-3.47,4.936-5.748,10.805-8.494,16.198c-0.908-0.3-1.732-0.728-2.416-1.345
			C190.508,227.176,193.55,222.287,196.535,217.365z M185.359,209.489c-1.661,0.001-2.779,0.834-3.371,1.958
			c-0.808,0.441-1.48,1.185-1.819,2.312c-0.734,2.44-1.45,5.134-1.901,7.862c-14.602-2.444-28.896-6.275-43.199-10.063
			c13.7-12.104,33.854-17.991,44.109-33.497c1.039,0.209,2.074,0.43,3.118,0.619c0.312,0.057,0.613,0.078,0.902,0.072
			c0.017,0.03,0.023,0.06,0.04,0.09c6.005,10.441,13.723,19.734,20,30c0.051,0.082,0.112,0.143,0.166,0.219
			C197.412,209.564,191.348,209.488,185.359,209.489z M74.241,301.662c0.287-0.225,0.541-0.483,0.739-0.783
			c0.386,1.438,0.796,2.863,1.225,4.279c-0.678-0.254-1.355-0.508-2.033-0.762C74.251,303.48,74.29,302.566,74.241,301.662z
			 M76.973,307.574c0.55,1.646,1.139,3.271,1.812,4.848c-1.88-1.057-3.743-2.143-5.571-3.286c0.001-0.002,0.002-0.007,0.002-0.007
			c0.294-0.895,0.506-1.801,0.678-2.709C74.919,306.806,75.946,307.189,76.973,307.574z M70.682,285.352
			c0.777,2.311,1.459,4.68,2.098,7.074c-0.931-1.64-2.043-3.146-3.389-4.354C69.824,287.166,70.254,286.261,70.682,285.352z
			 M67.772,286.838c-0.71-0.438-1.476-0.795-2.305-1.053c0.769-2.719,1.597-5.678,1.833-8.516c0.919,1.74,1.717,3.551,2.429,5.41
			C69.085,284.068,68.431,285.455,67.772,286.838z M40.026,296.822c-0.069-0.531-0.134-1.074-0.196-1.619
			c3.303,1.738,6.378,3.851,9.493,5.896c-0.088,0.533-0.155,1.069-0.207,1.606c-3.187-1.184-6.262-2.643-9.238-4.312
			C40.035,297.939,40.103,297.423,40.026,296.822z M39.864,292.959c-0.082-0.041-0.16-0.047-0.24-0.063
			c0.175-1.693,0.436-3.365,0.771-5c3.319,2.994,6.825,5.777,10.087,8.828c-0.27,0.744-0.517,1.5-0.715,2.274
			C46.538,296.867,43.345,294.681,39.864,292.959z M41.399,286.115c-0.172-0.156-0.357-0.219-0.543-0.244
			c0.008-0.03,0.014-0.063,0.022-0.096c0.378-1.479,0.878-2.906,1.459-4.299c3.25,3.719,7.125,6.963,10.385,10.662
			c-0.106,0.166-0.214,0.33-0.314,0.496c-0.407,0.668-0.771,1.383-1.111,2.114C48.072,291.791,44.635,289.066,41.399,286.115z
			 M41.909,266.334c0.288-0.766,0.595-1.52,0.938-2.248c0.12-0.256,0.25-0.479,0.38-0.704c0.498-0.074,0.998-0.134,1.498-0.171
			C43.73,264.175,42.79,265.225,41.909,266.334z M43.236,279.47c0.931-1.91,2.015-3.752,3.174-5.547
			c2.383,4.299,4.891,8.522,7.419,12.737c0.44,0.734,0.862,1.568,1.312,2.394c-0.439,0.457-0.856,0.938-1.245,1.432
			C50.465,286.724,46.462,283.404,43.236,279.47z M45.358,261.169c0.777-0.426,1.619-0.597,2.504-0.552
			c-0.224,0.154-0.434,0.332-0.652,0.494C46.591,261.12,45.973,261.137,45.358,261.169z M47.649,272.093
			c0.83-1.156,1.837-2.418,2.967-3.537c1.247,3.504,2.433,7.03,3.748,10.514c0.946,2.504,1.898,5.457,3.503,7.748
			c-0.39,0.244-0.771,0.502-1.137,0.789c-0.344-0.689-0.7-1.369-1.164-1.949C52.424,281.727,50.028,276.648,47.649,272.093z
			 M55.524,276.48c-1.146-3.096-2.186-6.23-3.297-9.338c1.459-1.111,3.057-1.867,4.708-1.842c0.317,0.247,0.623,0.491,0.919,0.729
			c1.615,6.412,2.478,12.98,2.746,19.586c-0.316,0.084-0.629,0.187-0.935,0.301C57.632,283.287,56.623,279.449,55.524,276.48z
			 M9.5,255.955c0.892,0.451,1.796,0.883,2.704,1.303c-0.621,0.613-1.207,1.262-1.764,1.936
			C10.098,258.123,9.778,257.044,9.5,255.955z M11.205,261.441c0.893-1.192,1.873-2.311,2.971-3.308
			c0.654,0.284,1.314,0.558,1.976,0.829c-1.493,1.342-2.857,2.885-4.216,4.36C11.681,262.699,11.436,262.072,11.205,261.441z
			 M12.8,265.306c1.708-1.857,3.426-3.94,5.399-5.528c0.501,0.195,1.01,0.37,1.514,0.559c-2.321,1.821-4.46,3.858-6.342,6.122
			C13.182,266.072,12.979,265.693,12.8,265.306z M14.366,268.39c2.167-2.75,4.752-5.146,7.572-7.235
			c1.007,0.356,2.018,0.698,3.03,1.032c-3.263,2.606-6.378,5.387-9.386,8.289C15.161,269.787,14.752,269.095,14.366,268.39z
			 M16.686,272.186c3.368-3.271,6.874-6.387,10.576-9.271c1.185,0.371,2.371,0.729,3.557,1.078
			c-4.321,3.295-8.676,6.535-12.555,10.365C17.718,273.646,17.187,272.925,16.686,272.186z M31.492,287.857
			c-0.565-0.49-1.119-0.994-1.676-1.496c0.57-0.57,1.141-1.141,1.716-1.705C31.503,285.746,31.485,286.824,31.492,287.857z
			 M31.654,281.734c-1.112,1.088-2.22,2.182-3.32,3.281c-0.748-0.693-1.492-1.392-2.223-2.103c1.925-1.672,3.862-3.326,5.824-4.953
			C31.812,279.229,31.725,280.488,31.654,281.734z M32.255,275.132c-2.553,2.09-5.075,4.213-7.566,6.377
			c-0.514-0.521-1.027-1.037-1.531-1.566c3.271-3.266,6.491-6.584,9.904-9.693C32.735,271.847,32.472,273.482,32.255,275.132z
			 M33.873,266.869c-4.244,3.633-8.125,7.658-12.08,11.607c-0.766-0.842-1.527-1.688-2.259-2.564
			c4.2-4.176,8.977-7.649,13.662-11.246c0.401,0.113,0.805,0.232,1.206,0.345C34.21,265.611,34.043,266.242,33.873,266.869z
			 M37.756,257.632c-8.883-2.405-17.907-5.215-26.076-9.57c0.266-0.671,0.368-1.44,0.203-2.304
			c-2.121-11.08-3.67-24.006-0.936-35.113c1.707-6.932,8.423-7.855,14.432-9.357c5.078-1.268,5.357-4.332,7.632-8.676
			c2.419-4.619,5.526-8.889,8.804-12.927c6.694-8.251,14.619-15.741,23.196-22.007c3.959-2.893,8.381-4.879,13.009-6.322
			c-12.551,10.287-23.111,23.41-30.286,37.817c-4.713,9.465-7.153,19.69-7.918,30.201c-0.842,11.569,0.564,23.196,0.21,34.781
			c-0.01,0.321,0.013,0.62,0.062,0.901c-0.82,0.744-1.572,1.617-2.255,2.604C37.805,257.653,37.784,257.639,37.756,257.632z
			 M39.99,305.312c-0.27-1.609-0.462-3.234-0.552-4.869c3.081,1.697,6.273,3.166,9.575,4.352c-0.004,0.654,0.028,1.304,0.089,1.943
			C46.057,306.408,43.032,305.845,39.99,305.312z M40.406,307.408c2.762,0.49,5.514,0.988,8.281,1.301
			c-2.417,0.841-4.836,1.675-7.253,2.519C41.019,309.979,40.692,308.699,40.406,307.408z M42.113,313.104
			c2.571-0.896,5.146-1.781,7.716-2.678c0.112,0.362,0.219,0.729,0.355,1.079c-2.18,1.71-4.27,3.525-6.237,5.476
			C43.252,315.73,42.641,314.436,42.113,313.104z M47.148,321.646c-0.776-0.926-1.481-1.898-2.133-2.904
			c1.907-1.916,3.928-3.709,6.045-5.391c0.578,1.021,1.273,1.969,2.124,2.797c-1.565,2.547-2.984,5.174-3.914,7.938
			C48.524,323.252,47.806,322.429,47.148,321.646z M50.84,325.8c0.829-2.929,2.271-5.697,3.899-8.373
			c0.819,0.565,1.728,1.057,2.745,1.44c-1.31,3.375-2.269,6.937-3.099,10.478C53.134,328.181,51.954,326.984,50.84,325.8z
			 M62.709,335.666c-2.312-1.332-4.528-2.981-6.602-4.768c0.931-3.887,2.041-7.693,3.407-11.432c0.966,0.2,1.884,0.262,2.76,0.209
			C62.511,325.004,62.804,330.33,62.709,335.666z M62.588,285.343c-0.245-5.779-0.944-11.535-2.185-17.183
			c1.869,1.713,3.442,3.597,4.801,5.604c0.657,3.571-0.602,7.871-1.689,11.625C63.202,285.357,62.892,285.336,62.588,285.343z
			 M64.694,336.72c0.154-5.519-0.149-11.023-0.397-16.533c2.643,6.152,5.562,12.229,7.518,18.623
			C69.393,338.584,67.005,337.83,64.694,336.72z M74.692,338.822c-0.258,0.023-0.516,0.033-0.773,0.043
			c-2.043-6.916-5.259-13.463-8.076-20.104c0.678-0.33,1.317-0.736,1.917-1.209c4.94,5.789,9.893,11.616,13.902,18.096
			C79.893,337.375,77.645,338.558,74.692,338.822z M83.04,334.076c-4.02-6.377-8.927-12.149-13.817-17.881
			c0.407-0.441,0.793-0.908,1.152-1.404c5.74,3.705,11.453,7.89,15.907,12.957C85.448,330.054,84.418,332.248,83.04,334.076z
			 M87.006,325.568c-4.425-4.812-9.991-8.869-15.55-12.459c0.379-0.666,0.723-1.359,1.029-2.072c2.371,1.474,4.802,2.84,7.236,4.205
			c0.31,1.187,1.123,2.25,2.574,2.771c2.072,0.741,4.151,1.469,6.229,2.2C88.056,321.927,87.571,323.752,87.006,325.568z
			 M90.771,336.496c0.391-0.682,0.753-1.387,1.104-2.102c1.169-0.014,2.336-0.039,3.502-0.088
			C93.95,335.189,92.405,335.906,90.771,336.496z M98.24,332.123c-1.809,0.154-3.624,0.232-5.444,0.263
			c0.245-0.57,0.471-1.15,0.696-1.732h6.149C99.198,331.177,98.731,331.666,98.24,332.123z M101.098,328.652h-6.863
			c0.222-0.627,0.425-1.258,0.631-1.887c2.383-0.107,4.755,0.053,7.127,0.291C101.713,327.615,101.415,328.148,101.098,328.652z
			 M102.831,325.146c-2.438-0.262-4.875-0.463-7.321-0.402c0.194-0.635,0.394-1.272,0.575-1.899c2.246,0.774,4.498,1.534,6.75,2.295
			C102.835,325.14,102.832,325.143,102.831,325.146z M246.813,319.3c-4.34,9.987-7.118,21.666-5.904,32.69
			c-52.481-8.367-103.872-22.99-153.897-40.777c-0.533-1.049-1.006-2.114-1.456-3.19c24.132,4.422,46.772,14.643,70.808,19.559
			c22.301,4.562,46.082,7.162,66.977,16.697c4.516,2.059,8.453-4.346,4.417-6.688c-1.157-8.07-3.193-15.99-4.417-24.054
			c-1.342-8.844-0.523-17.602,1.287-26.305c3.271-15.73,9.151-31.018,15.52-45.725c0.173-0.397,0.26-0.787,0.312-1.172
			c1.046-0.879,1.717-2.229,1.425-3.91c-0.479-2.756-2.486-5.277-3.613-7.846c-1.742-3.973-3.41-7.977-5.106-11.968
			c-3.505-8.245-7.151-16.428-11.494-24.271c-6.508-11.758-14.994-24.084-26.715-31.123c-5.844-3.509-12.514-5.256-19.114-6.662
			c-9.78-2.083-19.712-3.438-29.642-4.574c-12.961-1.482-25.977-2.398-38.97-3.543c7.546-0.885,15.101-1.705,22.653-2.486
			c12.031-1.246,24.059-2.51,36.022-4.311c10.186-1.533,21.01-3.162,30.808-6.731c-1.32,3.321-2.676,6.628-4.141,9.892
			c-0.769,1.713-0.32,3.342,0.651,4.49c0.419,0.904,1.198,1.666,2.406,2.053c6.109,1.952,11.72,5.289,18.125,6.014
			c0.649,0.289,1.424,0.348,2.302,0.088c0.595-0.068,1.105-0.253,1.532-0.531c20.364-7.426,42.25-2.914,63.141-7.352
			c2.514,0.137,5.302-2.55,4.25-5.625c6.758,1.586,13.518,3.175,20.226,4.953c-11.995,2.027-24.243,2.584-36.392,3.452
			c-8.531,0.609-17.043,1.46-25.472,2.933c-6.494,1.135-13.614,0.85-19.857,3.079c-12.234,4.369-6.835,17.413-3.161,26.067
			c4.083,9.619,8.514,19.018,13.372,28.209c0.083,0.812,0.51,1.527,1.11,2.07c2.326,4.326,4.738,8.613,7.271,12.848
			c-0.009,2.324,1.973,4.937,5.014,4.461c42.854-6.678,85.879-12.227,128.667-19.332c0.324-0.055,0.618-0.138,0.885-0.244
			c2.267,1.814,4.626,3.519,7.118,5.053c9.73,5.986,21.633,9.185,32.274,13.178c20.183,7.571,40.318,15.287,59.436,25.248
			c-21.693,5.371-43.851,9.296-65.196,15.774c-17.13,5.196-37.607,15.078-55.803,9.781c-0.385-0.23-0.833-0.414-1.38-0.505
			c-0.16-0.024-0.313-0.065-0.474-0.094c-0.511-0.18-1.021-0.365-1.526-0.572c-0.785-0.317-1.486-0.356-2.106-0.223
			c-6.744-1.734-13.009-4.803-19.217-8.014c-8.022-4.148-16.028-7.953-24.347-11.467c-17.152-7.248-33.978-15.353-49.375-25.895
			c-4.27-2.922-8.266,4.014-4.038,6.908c15.908,10.891,33.316,19.109,51.03,26.594c8.286,3.5,16.216,7.42,24.204,11.549
			c7.362,3.808,15.018,7.392,23.232,8.83c19.188,6.869,41.08-2.522,59.312-8.363c11.814-3.784,24.071-6.135,36.15-8.909
			c13.314-3.06,26.606-6.222,39.799-9.782c2.38,1.351,4.768,2.754,7.05,4.295c-6.071,1.881-12.159,3.887-17.177,7.838
			c-6.724,5.295-9.111,14.588-4.777,22.23c6.249,11.02,24.091,7.432,35.052,2.334c-1.103,4.754-6.765,7.383-10.851,8.983
			c-6.174,2.42-12.795,3.672-19.273,4.972c-17.472,3.504-34.097,10.481-50.916,16.229c-19.666,6.719-39.798,12.611-60.755,12.357
			c-20.406-0.248-41.178-5.228-59.867-13.326c-0.419-1.314-0.861-2.621-1.366-3.906c-4.854-12.365-16.475-26.639-31.242-25.43
			C259.306,297.113,251.29,308.994,246.813,319.3z M468.644,320.431c1.529-0.431,3.065-0.845,4.605-1.248
			c-5.504,11.371-10.041,23.217-16.512,34.092c-2.315,0.629-4.634,1.248-6.954,1.859
			C456.578,343.843,461.607,331.58,468.644,320.431z M446.986,355.859c-1.639,0.426-3.275,0.855-4.913,1.277
			c-0.012,0.004-0.023,0.006-0.035,0.01c6.087-11.402,10.382-23.949,18.234-34.25c1.836-0.57,3.677-1.125,5.522-1.666
			C458.981,332.472,453.957,344.701,446.986,355.859z M260.341,342.545c3.614,1.939,7.089,4.148,10.37,6.611
			c-3.584-0.891-7.199-1.672-10.685-2.918C260.097,345.004,260.192,343.771,260.341,342.545z M254.529,321.425
			c0.467-1.06,0.988-2.146,1.557-3.234c0.028-0.01,0.055-0.006,0.082-0.021c2.996-1.348,6.086-2.407,9.222-3.329
			c-1.529,1.225-2.962,2.612-4.275,4.188C258.919,319.828,256.724,320.627,254.529,321.425z M260.638,340.434
			c0.24-1.513,0.541-3.015,0.908-4.506c3.672,3.043,6.977,6.479,10.073,10.104c-0.102,0.365-0.193,0.736-0.279,1.113
			C267.947,344.641,264.367,342.391,260.638,340.434z M262.115,333.828c0.066-0.227,0.122-0.455,0.191-0.68
			c0.748-2.437,1.748-4.588,2.943-6.49c2.997,4.961,5.763,10.047,7.885,15.408c-0.291,0.562-0.551,1.158-0.791,1.771
			C269.199,340.238,265.843,336.845,262.115,333.828z M266.499,324.865c1.452-1.891,3.126-3.483,5.006-4.752
			c1.68,6.105,2.896,12.312,4.041,18.531c-0.395,0.404-0.756,0.85-1.102,1.313C272.249,334.724,269.472,329.738,266.499,324.865z
			 M273.287,319.037c0.917-0.498,1.884-0.905,2.874-1.274c1.649,5.977,2.662,12.121,3.312,18.299
			c-0.777,0.291-1.504,0.664-2.174,1.115C276.17,331.084,274.959,325.013,273.287,319.037z M278.062,317.141
			c1.342-0.375,2.74-0.636,4.18-0.797c0.145,6.342,0.564,12.674,0.798,19.014c-0.558,0.025-1.102,0.074-1.618,0.168
			C280.756,329.318,279.728,323.14,278.062,317.141z M271.294,311.184c-4.617,1.174-9.196,2.44-13.626,4.203
			c1.004-1.64,2.131-3.222,3.376-4.666c6.679-1.738,13.486-2.933,20.148-4.724c1.148,0.631,2.248,1.379,3.285,2.246
			C279.713,308.373,275.276,309.345,271.294,311.184z M263.779,307.98c2.71-2.312,5.865-3.861,9.479-3.967
			c1.73-0.05,3.366,0.207,4.918,0.69C273.401,305.89,268.569,306.849,263.779,307.98z M289.078,316.341
			c-0.323,6.493-1.253,12.928-2.09,19.375c-0.668-0.138-1.322-0.248-1.947-0.308c-0.231-6.41-0.66-12.812-0.802-19.227
			C285.81,316.111,287.428,316.17,289.078,316.341z M291.067,316.6c0.12,0.018,0.236,0.028,0.356,0.051
			c1.118,1.846,2.109,3.77,2.979,5.682c-1.028,4.853-2.745,9.543-4.445,14.211c-0.35-0.118-0.692-0.229-1.033-0.334
			C289.768,329.682,290.725,323.173,291.067,316.6z M295.704,325.416c0.789,2.009,1.445,3.949,1.953,5.709
			c0.206,0.711,0.383,1.431,0.57,2.146c-1.608,1.645-3.104,3.395-4.578,5.162c-0.593-0.479-1.211-0.853-1.846-1.136
			C293.229,333.369,294.651,329.439,295.704,325.416z M298.813,335.552c0.26,1.088,0.514,2.176,0.75,3.27
			c-1.132,0.865-2.276,1.711-3.427,2.551c-0.193-0.309-0.381-0.621-0.592-0.914c-0.156-0.215-0.314-0.42-0.478-0.616
			C296.285,338.382,297.517,336.938,298.813,335.552z M300.011,340.975c0.36,1.76,0.711,3.522,1.057,5.285
			c-0.778,0.319-1.583,0.561-2.413,0.731c-0.413-1.356-0.928-2.66-1.538-3.887C298.082,342.398,299.05,341.691,300.011,340.975z
			 M300.229,357.283c0.075,0.002,0.146,0.021,0.229,0.004c0.962-0.184,1.924-0.291,2.888-0.358c0.521,2.088,1.098,4.159,1.771,6.204
			c-1.627-0.524-3.291-0.936-4.984-1.239c0.004-0.054,0.015-0.115,0.018-0.168C300.24,360.312,300.27,358.816,300.229,357.283z
			 M300.136,355.324c-0.022-0.334-0.062-0.672-0.093-1.008c0.854-0.189,1.709-0.379,2.566-0.553c0.09,0.401,0.174,0.807,0.267,1.207
			C301.961,355.05,301.049,355.16,300.136,355.324z M299.812,352.318c-0.159-1.141-0.37-2.275-0.634-3.391
			c0.779-0.166,1.54-0.39,2.28-0.67c0.235,1.188,0.473,2.372,0.722,3.555C301.391,351.975,300.602,352.146,299.812,352.318z
			 M299.864,363.877c2.08,0.387,4.121,0.93,6.098,1.664c0.755,2.021,1.604,4.019,2.61,5.967c0.098,0.188,0.212,0.343,0.323,0.5
			c-3.184-1.467-6.336-2.996-9.198-5.049c-0.178-0.129-0.354-0.18-0.521-0.182C299.471,365.762,299.698,364.787,299.864,363.877z
			 M307.197,337.443c-0.161-0.809-0.325-1.617-0.496-2.422c0.704,0.272,1.412,0.535,2.119,0.799
			C308.273,336.355,307.732,336.895,307.197,337.443z M310.884,336.58c0.49,0.177,0.983,0.345,1.476,0.517
			c-1.546,1.307-3,2.744-4.41,4.217c-0.095-0.496-0.188-0.992-0.284-1.488C308.718,338.722,309.78,337.627,310.884,336.58z
			 M308.857,346.033c-0.151-0.771-0.303-1.543-0.449-2.315c1.946-2.064,3.946-4.134,6.165-5.857
			c0.497,0.166,0.996,0.324,1.494,0.486C313.57,340.779,310.965,343.244,308.857,346.033z M318.223,339.035
			c0.597,0.188,1.197,0.351,1.796,0.531c-3.171,3.914-6.739,7.482-10.184,11.168c-0.147-0.668-0.292-1.338-0.433-2.008
			C311.751,345.082,315.148,342.062,318.223,339.035z M322.078,340.175c0.837,0.239,1.68,0.457,2.52,0.686
			c-4.827,4.814-9.07,10.17-13.361,15.486c-0.303-1.08-0.588-2.166-0.854-3.261C314.318,348.806,318.466,344.727,322.078,340.175z
			 M326.829,341.466c0.896,0.231,1.796,0.44,2.694,0.657c-5.246,6.738-11.378,12.736-16.582,19.508
			c-0.361-0.983-0.701-1.977-1.018-2.979C316.707,352.748,321.381,346.75,326.829,341.466z M331.638,342.629
			c0.915,0.207,1.835,0.4,2.753,0.597c-6.629,7.063-13.005,14.35-18.984,21.975c-0.327-0.076-0.655-0.158-0.982-0.234
			c-0.051-0.012-0.098-0.01-0.147-0.02c-0.166-0.375-0.306-0.76-0.462-1.137C319.317,356.39,326.016,349.955,331.638,342.629z
			 M313.646,372.998c1.659,0.396,3.321,0.799,4.986,1.207c-0.071,0.84-0.179,1.687-0.312,2.533
			c-1.999-1.221-4.103-2.264-6.232-3.258C312.624,373.42,313.155,373.262,313.646,372.998z M317.524,365.707
			c6.032-7.645,12.485-14.934,19.172-22.014c1.021,0.201,2.047,0.393,3.073,0.576c-5.823,7.813-11.457,16.375-19.341,22.151
			C319.46,366.182,318.491,365.941,317.524,365.707z M341.965,344.64c1.155,0.19,2.316,0.354,3.477,0.521
			c-6.5,7.525-12.85,15.182-19.409,22.656c-1.04-0.261-2.08-0.521-3.118-0.779C330.549,360.949,336.105,352.386,341.965,344.64z
			 M326.438,376.119c2.125,0.518,4.257,1.018,6.391,1.51c-2.262,0.324-4.523,0.646-6.784,0.972
			C326.194,377.771,326.335,376.943,326.438,376.119z M331.516,369.168c-1.104-0.268-2.206-0.539-3.309-0.812
			c6.604-7.56,13.008-15.287,19.587-22.867c0.734,0.096,1.472,0.176,2.206,0.262C343.603,353.375,338.288,361.861,331.516,369.168z
			 M251.749,350.332c-0.365,0.084-0.728,0.195-1.075,0.369c-0.602,0.301-1.208,0.592-1.814,0.883
			c-0.087-0.646-0.15-1.299-0.201-1.95c1.041-0.275,2.075-0.568,3.103-0.886C251.756,349.275,251.742,349.804,251.749,350.332z
			 M251.809,346.636c-1.075,0.344-2.157,0.664-3.248,0.957c-0.024-1.07-0.004-2.146,0.055-3.224c1.129-0.145,2.249-0.352,3.37-0.559
			C251.91,344.748,251.847,345.689,251.809,346.636z M252.184,341.754c-1.136,0.207-2.27,0.416-3.409,0.576
			c0.079-0.813,0.18-1.629,0.299-2.44h3.357C252.34,340.509,252.257,341.129,252.184,341.754z M252.767,337.89h-3.355
			c0.114-0.627,0.239-1.252,0.373-1.875c1.184-0.16,2.354-0.351,3.505-0.607C253.096,336.227,252.922,337.056,252.767,337.89z
			 M253.864,333.222c-1.175,0.325-2.379,0.545-3.596,0.721c0.306-1.227,0.654-2.438,1.019-3.637c1.328-0.484,2.68-0.896,4.024-1.326
			C254.763,330.369,254.273,331.781,253.864,333.222z M256.357,326.559c-1.426,0.516-2.884,0.951-4.329,1.42
			c0.465-1.383,0.961-2.736,1.476-4.06c1.817-0.661,3.635-1.321,5.451-1.981C258.013,323.365,257.139,324.898,256.357,326.559z
			 M259.942,348.326c3.521,1.215,7.168,1.984,10.773,2.896c-0.045,0.543-0.081,1.09-0.104,1.641
			c-3.546-0.469-7.1-0.838-10.679-0.979C259.905,350.697,259.913,349.511,259.942,348.326z M259.993,353.886
			c3.549,0.145,7.072,0.514,10.588,0.981c0.011,1.021,0.069,2.058,0.157,3.092c-3.438,0.381-6.876,0.729-10.338,0.83
			C260.217,357.158,260.076,355.521,259.993,353.886z M260.645,360.781c3.452-0.113,6.879-0.465,10.307-0.846
			c0.092,0.7,0.208,1.399,0.335,2.096c-3.343,0.846-6.693,1.656-10.069,2.354C261.007,363.189,260.809,361.988,260.645,360.781z
			 M261.575,366.35c3.393-0.697,6.757-1.511,10.114-2.357c0.115,0.506,0.244,1.006,0.378,1.504
			c-3.267,1.344-6.563,2.609-9.829,3.955C262.004,368.422,261.779,367.389,261.575,366.35z M263.289,373.654
			c-0.183-0.662-0.359-1.324-0.524-1.986c-0.021-0.086-0.04-0.172-0.062-0.258c3.295-1.371,6.627-2.65,9.931-4
			c0.131,0.406,0.278,0.801,0.421,1.199C269.827,370.344,266.563,372.01,263.289,373.654z M263.854,375.604
			c3.329-1.668,6.646-3.357,9.931-5.117c0.229,0.541,0.47,1.067,0.72,1.586c-3.254,2.195-6.436,4.488-9.539,6.889
			C264.567,377.85,264.195,376.729,263.854,375.604z M265.696,380.918c3.171-2.465,6.417-4.826,9.746-7.074
			c0.116,0.205,0.237,0.404,0.357,0.604c-3.155,2.719-6.327,5.424-9.354,8.287C266.188,382.135,265.937,381.529,265.696,380.918z
			 M267.319,384.66c3.087-2.963,6.343-5.74,9.586-8.531c0.102,0.144,0.211,0.273,0.313,0.412c-2.524,3.809-5.581,7.195-8.626,10.598
			C268.151,386.326,267.723,385.504,267.319,384.66z M269.641,388.957c3.112-3.492,6.275-6.938,8.916-10.801
			c0.642,0.693,1.315,1.316,2.027,1.859c-1.264,2.674-2.593,5.317-3.924,7.957c-0.991,1.965-1.923,4.29-3.1,6.334
			C272.116,392.674,270.807,390.879,269.641,388.957z M274.956,395.785c1.141-1.93,2.048-4.088,3.021-5.992
			c1.196-2.346,2.373-4.705,3.518-7.078c-1.487,4.996-2.97,9.992-4.348,15.021C276.385,397.123,275.653,396.477,274.956,395.785z
			 M285.517,402.117c-2.427-0.707-4.641-1.756-6.643-3.104c1.57-5.778,3.283-11.52,4.99-17.26c0.349,0.109,0.69,0.185,1.032,0.24
			C285.354,388.689,286.333,395.496,285.517,402.117z M287.455,402.594c0.844-6.778-0.115-13.698-0.562-20.541
			c0.992-0.108,1.942-0.43,2.848-0.909c-0.033,0.135-0.041,0.282-0.012,0.444c1.276,7.158,1.981,14.4,3.458,21.521
			C291.159,403.139,289.251,402.959,287.455,402.594z M295.209,403.004c-1.499-7.076-2.217-14.276-3.46-21.401
			c3.239,6.53,5.711,13.539,7.603,20.59C298.03,402.592,296.651,402.873,295.209,403.004z M301.242,401.518
			c-2.036-7.562-4.746-15.06-8.319-22.009c4.445,6.375,8.912,13.328,11.041,20.66C303.093,400.682,302.182,401.129,301.242,401.518z
			 M305.719,399.033c-2.362-7.701-7.142-14.939-11.796-21.57c0.293-0.367,0.572-0.754,0.849-1.149l16.833,16.834
			C309.917,395.416,307.955,397.428,305.719,399.033z M312.766,391.48l-16.894-16.894c0.579-0.99,1.101-2.031,1.571-3.084
			c5.879,4.41,11.796,8.879,17.041,14.025c0.456,0.446,1.032,0.324,1.387-0.021C315.016,387.596,313.981,389.609,312.766,391.48z
			 M315.899,384.115c-5.432-5.328-11.578-9.941-17.666-14.506c0.128-0.336,0.248-0.67,0.364-1.004
			c0.029,0.026,0.056,0.055,0.09,0.08c5.937,4.258,13.124,6.26,19.228,10.149c-0.427,1.98-0.998,3.957-1.737,5.881
			C316.162,384.51,316.091,384.303,315.899,384.115z M316.959,399.275c0.359-0.449,0.688-0.931,1.027-1.398
			c2.422-0.654,4.848-1.291,7.284-1.883C322.819,397.434,319.947,398.49,316.959,399.275z M329.018,393.098
			c-3.132,0.66-6.234,1.429-9.327,2.248c0.358-0.577,0.695-1.174,1.029-1.77c0.01-0.002,0.017,0.002,0.024,0
			c3.061-0.588,6.148-1.016,9.208-1.59C329.663,392.365,329.358,392.74,329.018,393.098z M331.391,389.66
			c-3.145,0.674-6.331,1.123-9.502,1.682c0.319-0.651,0.62-1.313,0.91-1.979c0.097,0.004,0.189,0.012,0.296-0.015
			c3.125-0.78,6.246-1.575,9.354-2.428C332.165,387.863,331.821,388.781,331.391,389.66z M332.987,384.703
			c-3.083,0.863-6.188,1.652-9.292,2.43c0.354-0.942,0.677-1.896,0.973-2.854c2.856-0.979,5.767-1.707,8.746-2.166
			C333.294,382.982,333.16,383.85,332.987,384.703z M333.672,380.068c-2.843,0.41-5.621,1.028-8.354,1.891
			c0.109-0.43,0.191-0.863,0.291-1.293c2.708-0.389,5.417-0.774,8.125-1.162C333.713,379.691,333.693,379.879,333.672,380.068z
			 M333.74,369.701c6.731-7.479,12.069-16.076,18.654-23.688c1.025,0.104,2.056,0.184,3.085,0.27
			c-6.222,8.021-12.25,16.188-18.528,24.164C335.88,370.203,334.81,369.955,333.74,369.701z M339.093,370.928
			c6.333-8.088,12.436-16.354,18.753-24.452c1.101,0.076,2.201,0.127,3.304,0.182c-4.768,9.23-11.777,17.213-18.649,24.988
			C341.362,371.414,340.227,371.176,339.093,370.928z M344.768,372.092c6.93-7.848,13.936-15.977,18.577-25.352
			c1.5,0.043,2.997,0.049,4.492,0.027c-6.18,9.115-13.473,17.358-20.543,25.786C346.452,372.406,345.609,372.254,344.768,372.092z
			 M349.574,372.938c7.188-8.535,14.557-16.922,20.73-26.244c1.757-0.062,3.507-0.18,5.255-0.32
			c-6.96,9.357-13.949,18.713-22.033,27.135C352.208,373.336,350.891,373.148,349.574,372.938z M355.997,373.807
			c8.109-8.629,15.152-18.171,22.216-27.667c2.142-0.22,4.274-0.492,6.402-0.812c-3.55,4.748-7.382,9.271-10.934,14.023
			c-3.843,5.146-7.11,11.151-12.438,14.909C359.492,374.152,357.743,374,355.997,373.807z M364.249,374.393
			c3.809-3.316,6.617-7.679,9.525-11.804c4.299-6.098,9.26-11.686,13.649-17.717c1.084-0.184,2.163-0.399,3.244-0.606
			c-6.711,9.979-13.942,19.616-19.896,30.077C368.596,374.445,366.421,374.457,364.249,374.393z M378.156,373.633
			c-0.342,0.05-0.682,0.105-1.023,0.15c-1.32,0.176-2.641,0.301-3.96,0.402c6.132-10.548,13.501-20.299,20.245-30.459
			c1.5-0.312,2.997-0.646,4.491-0.996C391.063,352.875,383.663,362.682,378.156,373.633z M380.606,373.236
			c5.741-11,13.314-20.893,20.18-31.213c2.044-0.512,4.081-1.057,6.112-1.623c-6.724,11.059-13.879,21.862-21.984,31.959
			C383.482,372.682,382.048,372.98,380.606,373.236z M388.025,371.625c7.957-10.164,15.032-20.975,21.692-32.026
			c2.181-0.631,4.349-1.297,6.513-1.974c-6.523,11.031-13.959,21.496-21.182,32.082
			C392.715,370.383,390.376,371.037,388.025,371.625z M398.069,368.822c7.229-10.549,14.603-21.018,21.001-32.09
			c2.14-0.688,4.26-1.408,6.385-2.121c-6.322,11.338-12.48,22.941-21.406,32.434C402.057,367.631,400.064,368.229,398.069,368.822z
			 M415.019,364.051c-1.44,0.373-2.883,0.744-4.32,1.123c-1.011,0.269-2.021,0.545-3.029,0.828
			c8.37-9.69,14.332-21.188,20.602-32.325c0.149-0.052,0.304-0.101,0.454-0.15c1.613-0.553,3.224-1.107,4.832-1.662
			C428.59,343.203,421.339,353.425,415.019,364.051z M417.78,363.332c6.412-10.606,13.541-20.885,18.312-32.348
			c1.924-0.666,3.845-1.332,5.764-1.992c-6.049,10.982-11.83,22.113-18.287,32.863C421.639,362.348,419.709,362.836,417.78,363.332z
			 M426.316,361.154c6.433-10.867,12.234-22.09,18.363-33.129c1.971-0.676,3.94-1.34,5.912-2
			c-7.146,10.793-12.215,22.795-19.041,33.795C429.807,360.264,428.062,360.711,426.316,361.154z M453.708,324.992
			c1.128-0.369,2.256-0.733,3.386-1.096c-7.26,10.465-11.489,22.797-17.693,33.922c-1.689,0.432-3.379,0.862-5.069,1.293
			C441.061,347.884,446.194,335.744,453.708,324.992z M435.662,367.018c1.1-0.279,2.198-0.562,3.297-0.843
			c2.585,1.716,5.406,3.002,8.387,3.92C442.907,371.52,438.953,370.271,435.662,367.018z M449.982,368.961
			c-0.115-0.147-0.27-0.274-0.502-0.336c-2.758-0.719-5.403-1.736-7.852-3.129c1.15-0.295,2.299-0.592,3.448-0.887
			c1.834,1.396,3.745,2.674,5.693,3.901C450.508,368.67,450.244,368.82,449.982,368.961z M452.593,367.303
			c-1.714-1.065-3.409-2.153-5.05-3.325c1.227-0.316,2.449-0.642,3.675-0.961c1.344,0.68,2.559,1.547,3.706,2.536
			C454.166,366.16,453.393,366.748,452.593,367.303z M456.475,364.262c-0.811-0.713-1.647-1.373-2.531-1.959
			c0.425-0.11,0.851-0.221,1.273-0.334c1.658-0.44,3.315-0.887,4.973-1.338C459.014,361.908,457.774,363.121,456.475,364.262z
			 M462.678,351.611c-1.062,0.299-2.122,0.607-3.186,0.902c6.239-10.922,10.724-22.728,16.304-33.992
			c1.134-0.285,2.272-0.562,3.414-0.826C473.312,328.811,467.721,340.082,462.678,351.611z M465.151,350.912
			c5.088-11.483,10.713-22.713,16.629-33.793c0.454-0.1,0.904-0.207,1.358-0.303c0.588-0.125,1.188-0.254,1.794-0.387
			c-1.686,3.354-3.095,6.854-4.507,10.348c-3.218,7.957-7.442,15.598-11.687,23.09C467.545,350.22,466.348,350.568,465.151,350.912z
			 M474.906,348.013c-1.122,0.35-2.248,0.686-3.374,1.024c3.285-5.739,6.585-11.594,9.125-17.614
			c2.184-5.179,4.089-10.597,6.773-15.562c1.146-0.268,2.31-0.559,3.479-0.873c-4.113,11.191-8.854,22.162-14.635,32.594
			C475.819,347.725,475.36,347.869,474.906,348.013z M479.038,346.707c5.604-10.393,10.213-21.303,14.24-32.399
			c2.084-0.629,4.155-1.359,6.143-2.215c-1.727,4.057-2.843,8.428-4.612,12.459c-3.018,6.866-6.064,13.702-9.856,20.168
			C482.987,345.418,481.011,346.076,479.038,346.707z M487.881,343.623c2.971-5.334,5.498-10.891,7.964-16.491
			c2.276-5.171,3.594-11.242,6.294-16.326c0.896-0.465,1.759-0.97,2.591-1.504c-4.382,10.021-4.152,21.909-10.131,31.34
			C492.418,341.742,490.173,342.732,487.881,343.623z M499.091,338.119c-0.384,0.242-0.784,0.461-1.174,0.693
			c5.061-10.26,4.564-22.723,10.618-32.494c1.083-1.043,2.042-2.193,2.852-3.461c-1.376,10.65-3.658,21.205-7.147,31.365
			C502.666,335.646,500.938,336.943,499.091,338.119z M513.022,318.48c-0.733,4.799-2.732,8.912-5.599,12.408
			c2.486-8.009,4.265-16.226,5.483-24.523C513.752,310.338,513.611,314.627,513.022,318.48z"/>
		<path d="M335.15,312.713c0.922,3.261,2.798,6.104,5.269,8.354c1.968,2.67,4.377,4.982,7.517,6.805
			c8.659,5.023,20.073,4.99,29.653,3.519c9.316-1.433,19.042-3.609,27.767-7.289c6.377-2.689,12.266-8.41,10.425-16.008
			c-4.679-19.306-32.712-11.693-45.887-12.396c-9.367-0.498-17.396-7.115-26.846-2.361c-7.197,3.621-10.179,10.837-8.212,18.552
			C334.914,312.193,335.024,312.461,335.15,312.713z M360.664,301.854c3.62,1.195,7.299,1.74,11.096,1.942
			c8.14,0.433,16.094-1.881,24.268-0.975c4.005,0.445,10.182,2.154,11.781,6.334c3.576,9.353-25.797,13.41-30.518,14.236
			c-7.876,1.381-16.835,1.457-24.243-1.879c-3.646-1.644-6.093-4.429-7.925-7.713c4.303-2.97,8.165-6.517,12.373-9.609
			c0.074-0.025,0.148-0.062,0.225-0.109c0.966-0.625,1.902-1.223,2.764-1.985C360.566,302.021,360.616,301.938,360.664,301.854z
			 M354.827,299.912c1.229,0.308,2.447,0.738,3.634,1.166c-4.976,3.353-9.33,7.521-14.257,10.937
			c-0.349-0.738-0.682-1.486-0.987-2.254c-0.072-0.187-0.17-0.343-0.261-0.507c3.648-3.155,7.479-6.137,11.472-8.829
			C354.635,300.283,354.762,300.104,354.827,299.912z M351.359,299.49c0.299-0.014,0.6,0.002,0.899,0.021
			c-3.459,2.395-6.81,4.981-10.014,7.719C342.297,302.523,346.271,299.695,351.359,299.49z"/>
		<path d="M154.025,241.489c-5.341-0.715-10.591-1.899-16-2c-5.161-0.096-5.152,7.905,0,8c5.392,0.1,10.671,1.287,16,2
			c2.167,0.291,4-2.039,4-4C158.025,243.09,156.186,241.778,154.025,241.489z"/>
		<path d="M68.692,222.823c-4.257-0.09-8.399-1.255-12.667-1.334c-5.161-0.094-5.152,7.906,0,8
			c4.265,0.078,8.405,1.244,12.667,1.334C73.854,230.932,73.844,222.932,68.692,222.823z"/>
		<path d="M71.726,176.436c-4.453,6.428-8.736,13.002-13.862,18.891c-1.055,1.212-1.228,2.6-0.864,3.816
			c-0.394,1.877,0.324,4.057,2.629,4.869c16.167,5.699,33.108,8.613,49.473,13.637c0.391,0.184,0.806,0.302,1.227,0.371
			c3.405,1.042,5.441-2.33,4.743-5.012c3.564-14.756,9.367-28.845,13.228-43.515c2.713-1.903,1.957-7.29-2.273-7.338
			c-11.354-0.128-22.819-2.364-33.603-5.856c-1.034-0.336-1.934-0.243-2.679,0.102c-0.642,0.131-1.282,0.412-1.88,0.926
			c-5.76,4.958-10.351,10.887-14.686,17.034C72.365,174.858,71.895,175.61,71.726,176.436z M107.843,208.932
			c-13.043-3.774-26.384-6.461-39.36-10.449c15.912-9.415,33.66-15.1,49.995-23.703
			C115.017,186.192,110.796,197.373,107.843,208.932z M91.853,164.489c1.283,0.398,2.58,0.772,3.882,1.134
			c-2.819,1.185-5.628,2.396-8.45,3.571C88.737,167.564,90.245,165.983,91.853,164.489z M79.033,179.747
			c9.507-3.079,18.396-7.728,27.84-10.993c0.312-0.107,0.582-0.252,0.829-0.412c2.055,0.364,4.117,0.682,6.185,0.939
			c-13.181,6.818-27.222,11.857-40.451,18.541C75.298,185.125,77.142,182.416,79.033,179.747z"/>
	</g>
</g>
<g>
</g>
<g>
</g>
<g>
</g>
<g>
</g>
<g>
</g>
<g>
</g>
<g>
</g>
<g>
</g>
<g>
</g>
<g>
</g>
<g>
</g>
<g>
</g>
<g>
</g>
<g>
</g>
<g>
</g>
</svg>
