<svg width="326.9" height="507.2" viewBox="0 0 86.5 134.2" xmlns="http://www.w3.org/2000/svg">
  <path style="fill:#ff7f2a;fill-opacity:1;stroke-width:.264583" d="M84.7 158.5A45 45 0 0 1 55 141a46 46 0 0 1-7.6-18.8 43.1 43.1 0 1 1 37.3 36.5zM98 151a36 36 0 0 0 18.1-10.5 36 36 0 0 0 9.3-17.7c.7-3 .7-11.1 0-14.1a36.6 36.6 0 0 0-18.7-25 35 35 0 0 0-16.7-4 36 36 0 1 0 8 71.3z" transform="translate(-47 -72.7)"/>
  <path style="fill:#000;stroke-width:.126901" d="M57.7 107.6c-1.8 0-2.9.4-3 1.1a36.7 36.7 0 0 0 5.7 28 156.2 156.2 0 0 0 4 4.8c1.6 3.4-3 11 .7 11 2.6 0 .9-7.6.9-7.6.5-.4 1.3 0 2.1.3 11.5 11.4 14.2 6.4 23.3 7.7v.1c-.2.4.6.4 1 .6 1.5.6 1.5.4 1.5 4.6.1 6.8-.4 12-1.5 15.2-.5 1.6-.6 2.9-.1 3.8.4.8.8 1 1.7 1.1.6 0 .7 0 1.1-.3a3 3 0 0 0 .9-2.1l-.4-2.1c-.2-.9-.5-2.2-.5-3-.3-2.6 0-14.8.4-15.8.2-.4.6-.4 1.7-.2.8.2 1 .2 1.5.1 1.3-.4 1.8-.3 2.1.5.6 1.4.6 1.4 0 9.6a59 59 0 0 0 0 10.4c.2 3.8.2 4.5-.4 7-1 4.3-1.1 6.1-.7 7 .3.5.9.7 1.6.7 1.5-.2 2-1.6 1.5-4.8-.3-2-.5-7.8-.6-18.4 0-11.4.1-9.7.7-10.8.2-.5 1.8-.9 2.8-1.2.7-.2 2.4-3.8 2.2-.4l-.3 7c0 2.8-.2 6.1-.3 7.4-.2 3.4-.2 4.5 0 4.9.4.2 1 .3 1.5 0 .6-.2.6-.7.1-6.3v-3.4l.1-7.9c0-4.9 0-3.5.1-3.8.9-1 2.5.3 5.4-.9.8.8 1.4 1.9 1.7 3.3.5 2.5.6 5.5.2 17l-.2 12.5c-.1 8.9-.2 9.4-.9 13.8-.4 2-.4 2.6-.4 4 .1 1.9.3 2.6 1 3.6.7 1.1 2.1 1.5 3.2 1 1.4-.8 2.2-3 2-5.6l-1-4.8c-1.7-8.6-2-12.6-2-26 0-14.3.3-16.8 2.2-18.8 2.7-3 1.2-1.4 4.4-4.6 1.5-1.5 2-3.4 3-6.5.7-2 0-3 1.7-5.1.2-.3 2.3-6.5 3.2-9.8.2-.9.5-1.7.5-2.6.1-2.5 1.5-7.2-1-7.3-9.4-.2-22-1.1-33-2-12-1.1-33.5-6.2-41.4-6z" transform="translate(-47 -72.7)"/>
  <path d="M80.4 140.1v-3.4H75l-5.5-.2v-4.9h1.8c2.5 0 3.8-.3 4.2-1.2.3-.8.6-23.9.3-27.3-.3-2.8-.5-3-3.7-3.2h-2.5v-5h10.8V88H86l-.1 3.4-.1 3.5h5.8V88H96.8v3.5L97 95l1.6.2c5 .5 8.2 2.2 9.6 5 .8 1.5 1.1 4.3.8 6.2-.5 3.6-2.7 6-6.5 7.4l-1.4.7 1.4.5c3.4.7 6.3 2.8 7.5 5.5.7 1.4.7 1.8.7 5s0 3.5-.7 4.9a10 10 0 0 1-4.2 4.2c-1.4.7-4.6 1.5-7 1.7l-2 .2v7.1H91.5v-6.9h-5.9l.2 3.4v3.5h-5.4zm15.6-9c3-1 4.3-3.1 4.3-6.8 0-4.3-2-6-7.2-6.7l-4.9-.2H86l-.1 7.2v7.1l4.3-.1c3.2-.1 4.9-.3 5.9-.6zm-3.8-18.8c4.8-.6 6.4-2.4 6.2-6.8 0-1.7-.2-2.3-.8-3-1.3-2-3.5-2.6-8.6-2.6h-3.3v6.2c0 3.4.1 6.2.2 6.3.3.3 4 .2 6.3 0z" style="fill:#ff7f2a;fill-opacity:1;stroke-width:.0700042" transform="translate(-47 -72.7)"/>
</svg>
