<?xml version="1.0" encoding="UTF-8" standalone="no"?>
<!-- Created with Inkscape (http://www.inkscape.org/) -->

<svg
   width="86.014915mm"
   height="86.111015mm"
   viewBox="0 0 86.014907 86.111013"
   version="1.1"
   id="svg1034"
   xmlns:xlink="http://www.w3.org/1999/xlink"
   xmlns="http://www.w3.org/2000/svg"
   xmlns:svg="http://www.w3.org/2000/svg">
  <defs
     id="defs1031">
    <linearGradient
       xlink:href="#linearGradient23369"
       id="linearGradient23371"
       x1="294.14886"
       y1="392.00464"
       x2="296.08844"
       y2="252.33362"
       gradientUnits="userSpaceOnUse"
       gradientTransform="matrix(0.26458333,0,0,0.26458333,31.162783,33.779234)" />
    <linearGradient
       id="linearGradient23369">
      <stop
         style="stop-color:#00ffff;stop-opacity:1"
         offset="0"
         id="stop23365" />
      <stop
         style="stop-color:#260e58;stop-opacity:1"
         offset="0.93375683"
         id="stop23535" />
      <stop
         style="stop-color:#ffffff;stop-opacity:1"
         offset="1"
         id="stop23367" />
    </linearGradient>
  </defs>
  <g
     id="layer1"
     transform="translate(-67.579721,-57.992345)">
    <circle
       style="fill:url(#linearGradient23371);fill-opacity:1;stroke-width:0.264583"
       id="path23253"
       cx="110.60989"
       cy="101.01919"
       r="42.674618" />
    <path
       style="fill:#19ab3c;fill-opacity:1;stroke-width:0.264583"
       d="m 105.19582,143.80817 c -6.779905,-0.77674 -14.490834,-3.88179 -20.377213,-8.20553 -2.786636,-2.04687 -7.296951,-6.61823 -9.288301,-9.41401 -3.798019,-5.33228 -6.530514,-12.07844 -7.637213,-18.85523 -0.41783,-2.55854 -0.41783,-10.141464 0,-12.7 2.668233,-16.33874 13.363143,-29.128953 28.846729,-34.498267 4.733338,-1.641402 7.961898,-2.142788 13.797958,-2.142788 4.40162,0 5.60626,0.09234 8.20208,0.628707 8.4344,1.742777 15.48937,5.412341 21.65337,11.262742 13.46803,12.782846 17.07845,33.492416 8.75538,50.221406 -8.19248,16.46655 -25.52574,25.81407 -43.95279,23.70297 z m 13.28228,-7.57659 c 7.24436,-1.78056 13.07709,-5.13551 18.13629,-10.43189 4.76125,-4.98445 7.80163,-10.78636 9.30822,-17.76268 0.6569,-3.04181 0.6569,-11.065416 0,-14.107217 -2.34377,-10.852922 -9.15498,-19.934972 -18.69017,-24.921429 -5.24743,-2.744163 -10.67645,-4.066598 -16.69466,-4.066598 -9.99327,0 -18.97271,3.833775 -25.936843,11.073741 -11.783438,12.250155 -13.413051,30.902773 -3.937505,45.068863 3.233473,4.8341 8.128545,9.24234 13.166759,11.85727 3.26562,1.69492 5.793415,2.60327 9.431549,3.38919 2.60577,0.5629 3.43662,0.61958 7.9375,0.54146 3.98698,-0.0692 5.49297,-0.20176 7.27886,-0.64071 z m -17.7299,-10.90114 v -3.43422 l -5.445631,-0.0715 -5.445628,-0.0715 -0.04448,-2.44748 -0.04447,-2.44748 1.852083,-0.001 c 2.53415,-0.002 3.78315,-0.38203 4.176601,-1.27113 0.354701,-0.80153 0.6247,-23.874114 0.318704,-27.234542 -0.25931,-2.84771 -0.536017,-3.088626 -3.677883,-3.202162 l -2.537213,-0.09179 v -2.488001 -2.488001 h 5.423959 5.423958 V 76.641733 73.20215 l 2.71198,-5.29e-4 2.71198,-5.29e-4 -0.0809,3.440046 -0.0809,3.440046 h 2.92512 2.92513 v -3.439583 -3.439583 h 2.63815 2.63816 l 0.0738,3.505729 0.0738,3.505729 1.64862,0.181853 c 4.91705,0.542378 8.20459,2.249808 9.60059,4.986187 0.75901,1.487792 1.13251,4.337563 0.82154,6.268453 -0.57984,3.600487 -2.76636,6.054365 -6.58065,7.385309 -0.76398,0.266584 -1.38906,0.556866 -1.38906,0.645073 0,0.08821 0.65135,0.306144 1.44744,0.484299 3.38566,0.75768 6.26088,2.87915 7.50834,5.54001 0.64625,1.37844 0.70151,1.76728 0.70151,4.9359 0,3.22286 -0.0462,3.53363 -0.73302,4.93223 -0.81388,1.65731 -2.47675,3.33626 -4.14951,4.18964 -1.42137,0.72513 -4.68416,1.53246 -7.10128,1.7571 l -1.90682,0.17736 v 3.53388 3.53388 h -2.64583 -2.64583 v -3.43958 -3.43959 h -2.92513 -2.92512 l 0.0809,3.44005 0.0809,3.44005 -2.71198,-5.3e-4 -2.71198,-4e-4 z m 15.56004,-9.11397 c 2.94715,-0.93622 4.28862,-3.05206 4.2779,-6.74739 -0.0124,-4.26166 -1.92427,-6.03571 -7.15827,-6.6421 -1.37127,-0.15886 -3.56478,-0.25171 -4.87446,-0.20632 l -2.38125,0.0825 -0.0705,7.10824 -0.0705,7.10823 4.43615,-0.12846 c 3.12471,-0.0905 4.85145,-0.26038 5.84097,-0.57473 z m -3.74197,-18.695532 c 4.7383,-0.659037 6.33487,-2.425946 6.13631,-6.790992 -0.077,-1.692018 -0.21971,-2.270482 -0.75192,-3.047169 -1.31427,-1.918009 -3.51116,-2.574377 -8.61653,-2.574377 h -3.29427 v 6.17361 c 0,3.395488 0.0794,6.252988 0.17639,6.35 0.27404,0.274037 4.05693,0.207867 6.35002,-0.111072 z"
       id="path845" />
    <text
       xml:space="preserve"
       style="font-style:italic;font-variant:normal;font-weight:bold;font-stretch:normal;font-size:34.5723px;line-height:1.25;font-family:Ubuntu;-inkscape-font-specification:'Ubuntu, Bold Italic';font-variant-ligatures:normal;font-variant-caps:normal;font-variant-numeric:normal;font-variant-east-asian:normal;text-align:center;text-anchor:middle;fill:#19ab3c;fill-opacity:1;stroke:none;stroke-width:0.264583"
       x="109.53216"
       y="178.46814"
       id="text9306"><tspan
         id="tspan9304"
         x="109.53216"
         y="178.46814"
         style="font-style:italic;font-variant:normal;font-weight:bold;font-stretch:normal;font-size:34.5723px;font-family:Ubuntu;-inkscape-font-specification:'Ubuntu, Bold Italic';font-variant-ligatures:normal;font-variant-caps:normal;font-variant-numeric:normal;font-variant-east-asian:normal;text-align:center;text-anchor:middle;fill:#19ab3c;fill-opacity:1;stroke-width:0.264583">greencoin</tspan></text>
  </g>
</svg>
