<?xml version="1.0" encoding="UTF-8" standalone="no"?>
<!-- Created with Inkscape (http://www.inkscape.org/) -->

<svg
   version="1.1"
   id="svg2"
   width="524.02521"
   height="524.09485"
   viewBox="0 0 524.02521 524.09485"
   xmlns="http://www.w3.org/2000/svg"
   xmlns:svg="http://www.w3.org/2000/svg">
  <defs
     id="defs6" />
  <g
     id="g8"
     transform="translate(-97.405821,70.857014)">
    <path
       id="rect1037"
       style="fill:#f9f9f9"
       d="m 249.75781,78.039062 c -3.20761,-0.598118 -7.81532,5.818745 -17.97851,20.388672 -7.80088,11.183336 -22.95472,33.534636 -33.67578,49.667966 -22.07423,33.21784 -33.17885,45.73816 -46.54102,52.48047 -4.56242,2.30212 -9.20316,4.18555 -10.3125,4.18555 -1.10934,0 -3.82508,1.64934 -6.03516,3.66601 -3.39496,3.09785 -5.11395,7.39113 -11.08593,27.66797 l -7.06836,24 -15.35743,20.66602 c -25.443415,34.2413 -26.975676,36.63225 -25.994136,40.54297 l 0.867188,3.45703 H 260.44141 c 101.12605,0 184.81464,-0.36345 185.97461,-0.8086 1.15999,-0.44511 2.10937,-2.04719 2.10937,-3.55859 0,-3.38757 -63.40798,-148.74261 -66.27344,-151.92383 -1.48458,-1.64816 -2.71167,-1.94305 -4.3789,-1.05078 -1.2743,0.68199 -13.63312,15.9497 -27.46289,33.92774 -13.82976,17.97803 -25.57306,32.25042 -26.09571,31.71679 -0.52267,-0.53361 -14.96077,-29.52756 -32.08593,-64.43164 -19.28346,-39.30312 -32.82429,-68.61566 -35.57032,-76.999998 -2.75766,-8.419849 -4.40558,-13.128546 -6.90039,-13.59375 z"
       transform="translate(97.405821,-70.857014)" />
    <path
       style="fill:#000000;stroke-width:1.33333"
       d="m 294.22992,370.54585 c 0.32132,-0.91666 4.43551,-12.9154 9.14266,-26.66384 l 8.55845,-24.99718 9.66667,-0.003 c 5.31666,-10e-4 9.66666,0.3632 9.66666,0.81056 0,0.44736 -3,9.49819 -6.66666,20.11295 -3.66667,10.61474 -6.66667,19.54873 -6.66667,19.85328 0,0.30454 5.4,0.55372 12,0.55372 7.36007,0 12,0.5321 12,1.37616 0,0.75688 -0.86939,3.45688 -1.93196,6 l -1.93197,4.62369 h -22.21068 c -17.19124,0 -22.07867,-0.37665 -21.6265,-1.66667 z m 46.36778,1.01191 c 0,-0.36012 8.14944,-12.36012 18.10985,-26.66667 l 18.10986,-26.01191 h 11.68104 11.68104 l 2.27761,23 c 1.25268,12.65 2.59445,24.65 2.98171,26.66666 l 0.7041,3.66667 h -9.3507 c -9.20962,0 -9.35708,-0.0553 -9.77262,-3.66667 -0.41541,-3.6103 -0.58116,-3.67265 -10.78474,-4.05661 -10.30772,-0.38788 -10.37511,-0.3684 -12.66667,3.65823 -2.25413,3.96089 -2.52664,4.04837 -12.63715,4.05662 -5.68333,0.004 -10.33333,-0.2862 -10.33333,-0.64632 z m 45.33333,-26.59988 c 0,-4.72339 -0.5429,-8.92352 -1.20646,-9.33363 -0.66356,-0.4101 -2.86284,2.10449 -4.88727,5.58799 -2.02444,3.48347 -4.55053,7.6836 -5.61355,9.33361 -1.91472,2.97202 -1.86912,3 4.88727,3 h 6.82001 z m 22.66667,26.35905 c 0,-0.55682 3.98255,-12.5831 8.85011,-26.72508 l 8.8501,-25.71266 h 9.74475 9.74475 l -2.59486,7.54206 c -1.42717,4.14814 -2.59485,7.7772 -2.59485,8.0646 0,0.28739 4.31133,-3.10654 9.58075,-7.54206 l 9.58073,-8.0646 h 12.48779 12.48779 l -13.7352,10.86834 c -7.55435,5.9776 -13.97949,11.07188 -14.27806,11.32066 -0.43809,0.365 2.93356,10.10637 10.20275,29.47766 0.46572,1.2411 -1.93669,1.66667 -9.40852,1.66667 h -10.03395 l -2.95387,-9 c -1.62464,-4.95 -3.20548,-9.44436 -3.51298,-9.98747 -1.34668,-2.37842 -8.59312,5.29276 -10.93116,11.57191 l -2.51296,6.74889 -9.48656,0.39175 c -5.2176,0.21545 -9.48655,-0.0638 -9.48655,-0.62067 z m 61.56891,-0.78053 c 0.23709,-0.92187 4.284,-12.92187 8.99312,-26.66667 l 8.56203,-24.99054 h 22.52782 22.52783 l -0.93456,3 c -2.96824,9.52826 -2.04387,9 -15.74837,9 h -12.56924 l -1.46376,4.19896 c -0.80508,2.30944 -1.46378,4.40944 -1.46378,4.66666 0,0.25724 4.8,0.46771 10.66667,0.46771 11.49267,0 11.97855,0.37591 9.36633,7.24653 -1.25586,3.3032 -1.69006,3.42014 -12.69966,3.42014 -11.0096,0 -11.4438,0.11693 -12.69967,3.42013 -0.71519,1.88107 -1.30033,3.98107 -1.30033,4.66667 0,0.68568 5.69912,1.24653 12.66666,1.24653 6.96667,0 12.66667,0.38039 12.66667,0.84531 0,0.46492 -0.69497,3.16492 -1.54439,6 l -1.54438,5.15469 h -23.22004 c -17.98562,0 -23.12287,-0.37784 -22.78895,-1.67612 z m -277.5202,-58.556 c -10.74378,-3.08255 -16.04872,-10.04987 -16.04872,-21.07783 0,-18.61364 13.53096,-31.55799 34.48979,-32.99453 18.87464,-1.2937 33.51021,5.87208 33.51021,16.40704 v 4.5641 h -10 c -8.83109,0 -10,-0.28754 -10,-2.46001 0,-4.04441 -4.36074,-6.87332 -10.59518,-6.87332 -4.83698,0 -6.49442,0.77588 -10.7515,5.03295 -5.55828,5.55828 -8.81834,14.13846 -7.44738,19.60078 2.15806,8.59846 18.45312,9.03386 23.23938,0.62096 2.15551,-3.78877 2.52763,-3.90474 12.55468,-3.91293 5.68334,-0.004 10.33334,0.31548 10.33334,0.71136 0,2.43863 -5.86432,11.48996 -9.3381,14.41295 -7.87981,6.63043 -27.44877,9.55425 -39.94652,5.96848 z m 296.86303,-0.36629 c -9.64482,-3.43978 -14.24507,-10.02991 -14.24507,-20.40693 0,-12.06266 7.61401,-23.20725 20.51137,-30.02238 7.8254,-4.13504 28.60976,-4.27183 35.4841,-0.23352 7.2603,4.26504 10.6712,10.35008 10.6712,19.03745 0,19.27295 -16.85435,33.66052 -39.242,33.4986 -4.45024,-0.0321 -10.38106,-0.87514 -13.1796,-1.87322 z m 24.00448,-13.4425 c 3.6537,-2.394 9.71708,-14.23732 9.73742,-19.01969 0.007,-1.68334 -1.53105,-4.6047 -3.41826,-6.49191 -2.83844,-2.83844 -4.25871,-3.29701 -8.22024,-2.65415 -6.25227,1.01462 -13.01098,7.64022 -15.62774,15.31999 -2.74013,8.04187 -2.62897,9.09964 1.37723,13.10584 2.82,2.82 4.27032,3.29512 8.14103,2.667 2.59034,-0.42036 6.1951,-1.73754 8.01056,-2.92708 z m -271.27657,12.37424 c 0.3254,-0.91666 4.4396,-12.91275 9.14265,-26.65795 l 8.55103,-24.99128 18.24653,-0.009 c 10.0356,-0.005 19.72798,0.55452 21.53863,1.24293 9.45521,3.59487 11.985,14.51664 4.98407,21.51758 -2.14359,2.1436 -4.84359,3.89744 -6,3.89744 -2.62506,0 -2.62672,0.62717 -0.012,4.61724 1.65774,2.53004 1.89797,5.14117 1.16105,12.61976 l -0.92951,9.43028 h -9.31638 -9.31638 l 0.9034,-8.43584 c 1.06744,-9.9676 -0.35546,-11.96464 -8.06329,-11.31687 -4.92311,0.41375 -5.03307,0.54893 -8.20416,10.08604 l -3.21419,9.66667 h -10.03153 c -7.45188,0 -9.8794,-0.42859 -9.43992,-1.66667 z m 44.97385,-32.26928 c 3.25254,-3.91907 1.11595,-6.70347 -5.47178,-7.13083 -5.87602,-0.3812 -6.23794,-0.19842 -7.65468,3.86563 -0.81787,2.34616 -1.48704,4.47621 -1.48704,4.73344 0,1.52269 13.23482,0.19297 14.6135,-1.46824 z m 28.05316,32.65198 c 0,-0.70619 1.16599,-4.24211 2.59108,-7.8576 2.56091,-6.49709 2.5613,-6.74218 0.0332,-21.04937 -1.40685,-7.96165 -2.90002,-16.42573 -3.31816,-18.80906 l -0.76026,-4.33334 h 9.31205 9.31205 l 0.80466,6.33334 c 1.89602,14.92334 1.76494,14.8771 10.40674,3.67074 l 7.71466,-10.00408 h 11.49197 11.49199 l -2.53999,2.89082 c -1.397,1.58993 -9.18368,10.26389 -17.30375,19.27544 -11.7575,13.04833 -15.27533,17.88967 -17.27612,23.77585 l -2.51234,7.39123 h -9.7239 c -5.34813,0 -9.72388,-0.57779 -9.72388,-1.28397 z m 44.33447,-0.3827 c 0.34087,-0.91666 4.45507,-12.91071 9.14266,-26.65343 l 8.52288,-24.98677 15.70949,-0.0133 c 17.0826,-0.0144 23.06959,1.50773 26.78292,6.80925 3.05209,4.35748 2.75781,13.77612 -0.61809,19.78273 -4.29483,7.64162 -9.3003,9.95548 -23.20766,10.72811 l -12,0.66667 -2.63968,7.66667 -2.63968,7.66666 h -9.8363 c -7.3107,0 -9.67718,-0.42793 -9.21654,-1.66666 z m 40.70219,-28.40893 c 5.57571,-3.90539 3.06479,-11.25774 -3.84465,-11.25774 -3.10474,0 -3.90446,0.87004 -5.73334,6.23752 -1.16893,3.43064 -2.12533,6.43064 -2.12533,6.66667 0,1.38703 9.22536,0.0892 11.70332,-1.64645 z m 35.05828,10.4589 c 3.61445,-10.78917 6.57173,-19.78917 6.57173,-20 0,-0.21081 -3.66504,-0.3833 -8.14454,-0.3833 -8.95556,0 -8.97598,-0.0389 -5.21115,-9.9412 l 1.28969,-3.39214 h 26.033 c 16.10798,0 26.03301,0.49804 26.03301,1.30635 0,0.71849 -0.96515,3.71849 -2.14478,6.66667 l -2.14477,5.36032 h -7.74652 -7.74652 l -2.95844,9 c -1.62714,4.95 -4.7328,13.95 -6.90147,20 l -3.94304,11 h -9.77897 -9.77898 z m -262.24503,-45.1733 c -0.98154,-3.91072 0.5517,-6.30204 25.99512,-40.54334 l 15.35662,-20.66666 7.06854,-24 c 5.97198,-20.27684 7.69192,-24.56882 11.08688,-27.66667 2.21008,-2.01667 4.92598,-3.66667 6.03532,-3.66667 1.10934,0 5.74988,-1.88354 10.3123,-4.18566 13.36217,-6.74231 24.46558,-19.26316 46.53981,-52.481003 10.72106,-16.13333 25.87538,-38.48334 33.67626,-49.66667 18.0679,-25.9020897 18.57528,-26.0406797 24.87851,-6.79531 2.74603,8.38434 16.28714,37.69688 35.5706,77 17.12516,34.904083 31.56428,63.898583 32.08695,64.432193 0.52265,0.53363 12.26556,-13.73908 26.09532,-31.71711 13.82977,-17.97804 26.18766,-33.245333 27.46196,-33.927323 1.66723,-0.89227 2.89544,-0.59771 4.38002,1.05045 2.86546,3.181224 66.27256,148.536223 66.27256,151.923793 0,1.5114 -0.94907,3.1122 -2.10906,3.55732 -1.15997,0.44514 -84.84855,0.80932 -185.9746,0.80932 H 173.98183 Z m 25.79705,-6.28554 c 1.88159,-1.88158 10.08833,-29.71858 9.38421,-31.83094 -0.33582,-1.0075 -20.62372,25.72084 -24.22686,31.91776 -2.49318,4.28792 10.54417,4.21166 14.84265,-0.0868 z m 40.19564,-0.59113 c 5.6166,-5.3014 73.73039,-87.20479 73.071,-87.86417 -0.3048,-0.3048 -11.58504,4.47472 -25.06721,10.62114 -13.48219,6.14643 -29.61305,13.115 -35.84639,15.48572 -14.85212,5.6487 -20.9942,9.31135 -27.56037,16.4348 -5.80595,6.29871 -7.65695,11.04938 -12.53371,32.1683 -2.96096,12.82241 -2.97592,13.2284 -0.55312,15 1.63071,1.19238 6.30676,1.82088 13.54767,1.82088 10.23205,0 11.34744,-0.27371 14.94213,-3.66667 z m 172.50502,2 c 0.66252,-1.74461 -21.13033,-75.607 -22.81159,-77.31517 -0.53149,-0.54 -13.74477,-4.68816 -29.36284,-9.21812 -21.78789,-6.3195 -29.1304,-7.9528 -31.55004,-7.01816 -1.73445,0.66996 -10.17163,9.61812 -18.74927,19.88478 -8.57764,10.26667 -26.00829,31.09494 -38.7348,46.28504 -12.72649,15.19011 -23.13908,27.94011 -23.13908,28.33334 0,0.39322 36.83582,0.71496 81.85735,0.71496 64.25944,0 81.99342,-0.35831 82.49027,-1.66667 z m 20.56245,0.22327 c 1.03566,-1.03566 -0.16516,-7.72139 -4.25069,-23.66667 -3.13175,-12.2228 -6.6648,-26.38396 -7.85123,-31.46925 -1.18642,-5.08528 -3.10028,-10.6854 -4.25301,-12.4447 -2.44623,-3.73341 -10.17208,-7.30488 -14.53239,-6.71796 -2.99854,0.40363 -2.90286,0.85006 7.80407,36.40864 5.96192,19.8 11.32527,36.75 11.91855,37.66667 1.32406,2.0458 9.18497,2.203 11.1647,0.22327 z m 97.75661,0.27032 c 0,-0.85563 -83.18939,-54.08503 -101.05115,-64.6584 -1.6716,-0.98951 -1.8274,-0.18688 -1.0353,5.33333 1.81755,12.66643 11.70851,54.54291 13.5807,57.49815 l 1.90056,3 h 43.30259 c 24.03568,0 43.3026,-0.52195 43.3026,-1.17308 z m 2.29348,-11.16026 c -4.7084,-11.91704 -56.1256,-126.32261 -56.75994,-126.29338 -0.47678,0.022 -8.06688,9.45288 -16.86688,20.95757 -8.8,11.50469 -18.83639,24.07804 -22.30309,27.94077 -10.85346,12.09334 -10.12878,16.05219 4.3291,23.64959 7.98283,4.19485 68.97851,42.05221 83.97399,52.119 5.15204,3.45867 8.64502,4.20356 7.62682,1.62645 z M 275.027,160.65074 c 28.0084,-12.47234 47.61818,-21.94793 48.38446,-23.37973 0.70865,-1.32415 4.87812,-19.35401 9.26545,-40.066349 4.38733,-20.712344 9.49735,-44.139064 11.35559,-52.059374 3.65996,-15.59969 3.87328,-25.37125 0.5652,-25.89015 -1.22831,-0.19267 -6.11571,5.70691 -12.66667,15.28992 -5.86667,8.58201 -19.8238,29.04326 -31.01585,45.46944 -11.19204,16.42618 -22.7745,32.762563 -25.73876,36.303073 -6.69926,8.00151 -19.13468,16.42667 -28.69243,19.43949 -3.9919,1.25834 -8.17344,3.29943 -9.29232,4.53579 -2.80554,3.10008 -12.76763,41.24141 -10.7849,41.29153 0.83835,0.0212 22.71744,-9.39894 48.62023,-20.93364 z m 138.90403,1.76526 c 0,-1.37006 -41.64288,-85.005043 -42.09829,-84.549633 -0.49409,0.49409 15.48207,56.149163 20.19331,70.346153 2.68918,8.10365 4.79918,10.589 10.80953,12.73244 4.73911,1.69009 11.09545,2.53282 11.09545,1.47104 z m -28.7651,-8.71087 c 0.63393,-1.02573 -30.68818,-107.932263 -32.04725,-109.381503 -0.28654,-0.30556 -0.91421,-0.16233 -1.39481,0.31827 -1.82637,1.82637 -20.03875,92.278033 -18.99728,94.349843 0.61659,1.22658 5.70516,3.34035 12.1332,5.0401 6.08919,1.61013 16.47124,4.65342 23.07124,6.76286 13.0812,4.18091 16.13136,4.69598 17.2349,2.91043 z"
       id="path845-0" />
    <g
       id="g4522"
       transform="matrix(1,0,-0.33181271,1,171.87112,0)">
      <rect
         style="fill:#ff0000;stroke-width:1.17841"
         id="rect3807"
         width="104.01287"
         height="53.327389"
         x="124.71729"
         y="318.88483" />
      <rect
         style="fill:#f9f9f9"
         id="rect4410"
         width="14.928516"
         height="36.576256"
         x="168.88737"
         y="327.34125" />
      <rect
         style="fill:#f9f9f9"
         id="rect4410-9"
         width="14.928516"
         height="36.576256"
         x="338.16513"
         y="-194.63976"
         transform="rotate(90)" />
    </g>
  </g>
</svg>
