<?xml version="1.0" encoding="UTF-8" standalone="no"?>
<!-- Created with Inkscape (http://www.inkscape.org/) -->

<svg
   width="143.95425mm"
   height="143.95425mm"
   viewBox="0 0 143.95425 143.95425"
   version="1.1"
   id="svg16623"
   xmlns:xlink="http://www.w3.org/1999/xlink"
   xmlns="http://www.w3.org/2000/svg"
   xmlns:svg="http://www.w3.org/2000/svg">
  <defs
     id="defs16620" />
  <g
     id="layer1"
     transform="translate(13.608536,-75.457763)">
    <g
       id="leaf"
       transform="matrix(0.26458333,0,0,0.26458333,-48.981466,22.404307)">
      <path
         id="path1833"
         style="fill:#81cd2b;stroke:none"
         d="m 502.39574,287.32438 c -7.06247,19.87852 -22.08587,34.69056 -39.18499,45.90006 -55.1565,27.51881 -118.08758,41.65886 -159.16098,89.20805 -29.98944,34.07276 -37.22666,96.36441 -30.21407,140.82039 1.97226,10.58234 0.62024,28.79636 15.74116,19.13169 63.97565,-18.7792 127.85102,-52.14381 165.64551,-108.98989 11.67503,-18.207 22.44978,-39.24398 20.21835,-61.52674 4.05784,10.36581 1.66459,27.10814 -0.6127,39.24801 -11.41061,48.05557 -51.34976,81.99563 -91.41139,107.26323 -25.87335,17.35078 -55.17188,28.18914 -82.54383,42.71116 -18.55893,9.99032 -37.6832,27.31881 -35.72893,50.32975 9.44015,-17.43003 27.84327,-28.76509 45.87523,-36.82254 57.52324,-27.11185 122.97537,-43.3689 168.69273,-90.29096 40.11344,-40.51182 50.05603,-101.40767 43.55298,-156.09712 -4.66758,-26.37944 -6.28028,-57.48781 -20.86907,-80.88509 z" />
      <path
         id="path1835"
         style="fill:#800080;stroke-width:1.18125"
         d="m 505.01714,291.68665 c -24.06893,42.11881 -70.50734,62.90472 -113.6396,80.04199 -34.1233,14.5286 -65.08912,36.51265 -87.55298,68.05765 -26.96595,36.2238 -37.43121,74.76872 -30.83425,117.95787 3.41593,10.69216 -0.74505,35.66234 16.51447,24.48676 63.02317,-19.58082 126.81037,-51.43519 164.36562,-107.87376 12.64358,-18.15197 21.83727,-39.51096 22.1807,-61.75962 3.74075,12.13612 0.89111,27.45141 -1.60985,40.39352 -10.02815,41.379 -42.90692,72.40687 -76.5334,96.11441 -29.95988,21.23805 -63.87536,35.61525 -96.46192,52.11937 -17.19392,9.79646 -36.1096,25.216 -35.8285,46.83037 12.24182,-15.21575 28.90967,-25.9167 46.4497,-34.25784 54.21417,-25.33042 114.79115,-41.57799 160.07821,-82.65708 39.80379,-35.32856 54.78645,-90.82877 52.17668,-142.55825 -1.89042,-27.09663 -5.17155,-54.36384 -12.24508,-80.635 -1.98801,-5.4426 -3.57569,-11.79704 -7.0598,-16.26039 z" />
    </g>
    <circle
       style="fill:none;fill-opacity:1;stroke:#008000;stroke-width:10.5486;stroke-miterlimit:4;stroke-dasharray:none"
       id="circle"
       cx="58.368591"
       cy="147.43489"
       r="66.702827" />
    <g
       id="co2"
       style="fill:#2e002e;fill-opacity:1"
       transform="translate(5.656144,-1.4109299)">
      <text
         xml:space="preserve"
         style="font-style:normal;font-weight:normal;font-size:10.5833px;line-height:1.25;font-family:sans-serif;text-align:end;text-anchor:end;fill:#2e002e;fill-opacity:1;stroke:none;stroke-width:0.264583"
         x="86.578636"
         y="194.82175"
         id="text50974"><tspan
           id="tspan50972"
           style="text-align:end;text-anchor:end;fill:#2e002e;fill-opacity:1;stroke-width:0.264583"
           x="86.578636"
           y="194.82175">CO</tspan></text>
      <text
         xml:space="preserve"
         style="font-style:normal;font-variant:normal;font-weight:normal;font-stretch:normal;font-size:8.46667px;line-height:1.25;font-family:sans-serif;-inkscape-font-specification:'sans-serif, Normal';font-variant-ligatures:normal;font-variant-caps:normal;font-variant-numeric:normal;font-variant-east-asian:normal;fill:#2e002e;fill-opacity:1;stroke:none;stroke-width:0.264583"
         x="86.530342"
         y="196.68254"
         id="text69920"><tspan
           id="tspan69918"
           style="font-style:normal;font-variant:normal;font-weight:normal;font-stretch:normal;font-size:8.46667px;font-family:sans-serif;-inkscape-font-specification:'sans-serif, Normal';font-variant-ligatures:normal;font-variant-caps:normal;font-variant-numeric:normal;font-variant-east-asian:normal;fill:#2e002e;fill-opacity:1;stroke-width:0.264583"
           x="86.530342"
           y="196.68254">2</tspan></text>
    </g>
    <text
       xml:space="preserve"
       style="font-style:normal;font-weight:normal;font-size:10.5833px;line-height:1.25;font-family:sans-serif;text-align:end;text-anchor:end;fill:#260026;fill-opacity:1;stroke:none;stroke-width:0.264583;stroke-opacity:1"
       x="73.956505"
       y="192.59399"
       id="text79546"><tspan
         id="co2weight"
         style="text-align:end;text-anchor:end;fill:#260026;fill-opacity:1;stroke:none;stroke-width:0.264583;stroke-opacity:1"
         x="73.956505"
         y="192.59399">61mg</tspan></text>
    <text
       xml:space="preserve"
       style="font-style:normal;font-weight:normal;font-size:4.23333px;line-height:1.25;font-family:sans-serif;text-align:center;text-anchor:middle;fill:#000000;fill-opacity:1;stroke:none;stroke-width:0.264583"
       id="text110302"><textPath
         xlink:href="#path139665"
         startOffset="50%"
         id="textPath139918"><tspan
           id="qmhash"
           style="font-size:4.23333px;text-align:center;text-anchor:middle;stroke-width:0.264583">QmVYhabrNidUzhLmDpbB28JxK12mUbagDuEj8VnwdMugqr</tspan></textPath></text>
    <path
       style="fill:#000000;stroke:#400960;stroke-width:0.267366px;stroke-linecap:butt;stroke-linejoin:miter;stroke-opacity:1;opacity:0.01059034;fill-opacity:0"
       d="m 2.4423508,184.0152 c 0,0 16.5023632,30.88812 52.7386742,30.83227 45.663115,-0.0704 59.313455,-30.27283 59.313455,-30.27283"
       id="path139665" />
  </g>
  <script>
  !(async function() {
// included: eo-coin.js
// script to update dynamic logo parts
 const symb = 'eo-coin';
 const ticker = 'eoc';
 const gw = 'https://ipfs.safewatch.care';
 const immutable = 'QmYsqLqjJrZzGUg1ZjGjP1fsDtzLuT3oD3nT6JqLGjwKkn';
 const mutable = 'QmVYhabrNidUzhLmDpbB28JxK12mUbagDuEj8VnwdMugqr';
 let path = 'https://raw.githubusercontent.com/PurpleZone/NFTs/'+ticker
     path = 'https://cdn.jsdelivr.net/gh/PurpleZone/NFTs@latest/'+ticker
     path = gw+'/ipns/'+mutable;
     //path = location.pathname.replace(/\/[^/]*$/,'');
 console.log('path:',path);
 fetch(path+`/${symb}.json`).then(resp => resp.json()).
   then(cfg => {
   console.log('cfg:',cfg);
   document.getElementById('leaf').addEventListener('click',
        function() { location.href = path+'/factsheet.html'; }
        );
     if (typeof(cfg.attributes[1].value) != 'undefined') {
       document.getElementById('co2weight').innerHTML = `${cfg.attributes[1].value}`;
     }
     document.getElementById('qmhash').innerHTML = immutable;

     return cfg;
   }).
   catch(console.error);

  })();
  </script>
</svg>
