<?xml version="1.0" encoding="UTF-8" standalone="no"?>
<!-- Created with Inkscape (http://www.inkscape.org/) -->

<svg
   width="86.014915mm"
   height="86.111008mm"
   viewBox="0 0 86.014913 86.111009"
   version="1.1"
   id="gcoin"
   xmlns:xlink="http://www.w3.org/1999/xlink"
   xmlns="http://www.w3.org/2000/svg"
   xmlns:svg="http://www.w3.org/2000/svg">
  <defs
     id="defs1031">
    <linearGradient
       id="linearGradient2127">
      <stop
         style="stop-color:#008080;stop-opacity:1"
         offset="0"
         id="stop2123" />
      <stop
         style="stop-color:#00ffff;stop-opacity:1"
         offset="1"
         id="stop2125" />
    </linearGradient>
    <linearGradient
       xlink:href="#linearGradient23369"
       id="linearGradient23371"
       x1="294.14886"
       y1="392.00464"
       x2="296.08844"
       y2="252.33362"
       gradientUnits="userSpaceOnUse"
       gradientTransform="matrix(0.26458333,0,0,0.26458333,-36.416937,-24.213111)" />
    <linearGradient
       id="linearGradient23369">
      <stop
         style="stop-color:#00ffff;stop-opacity:1"
         offset="0"
         id="stop23365" />
      <stop
         style="stop-color:#260e58;stop-opacity:1"
         offset="0.93375683"
         id="stop23535" />
      <stop
         style="stop-color:#ffffff;stop-opacity:1"
         offset="1"
         id="stop23367" />
    </linearGradient>
    <clipPath
       clipPathUnits="userSpaceOnUse"
       id="clipPath2612">
      <path
         title="Greening cryptocurrencies"
         style="display:inline;fill:url(#linearGradient2616);fill-opacity:1;stroke-width:0.262914"
         d="M 63.651294,87.75348 C 56.871388,86.986517 49.160459,83.920509 43.27408,79.651154 40.487444,77.630027 35.977128,73.116161 33.985778,70.355542 30.18776,65.090325 27.455265,58.42901 26.348565,51.737451 c -0.41783,-2.526363 -0.41783,-10.013918 0,-12.540274 2.668233,-16.133252 13.363144,-28.762605 28.84673,-34.0643899 4.733338,-1.6207584 7.961897,-2.1158386 13.797958,-2.1158386 4.401621,0 5.606261,0.091179 8.20208,0.6207999 8.434401,1.7208584 15.48937,5.3442709 21.653371,11.1210926 C 112.31673,27.38092 115.92715,47.83003 107.60408,64.348623 99.411605,80.608076 82.078343,89.838029 63.651294,87.75348 Z m 13.282279,-7.481298 c 7.24436,-1.758164 13.077092,-5.070921 18.136291,-10.300688 4.761248,-4.921763 7.801626,-10.650704 9.308226,-17.539283 0.65689,-3.003552 0.65689,-10.926247 0,-13.929792 C 102.03431,27.785991 95.223105,18.818164 85.687913,13.894421 80.440485,11.184771 75.011465,9.878968 68.993253,9.878968 c -9.993271,0 -18.97271,3.785558 -25.936843,10.934469 -11.783439,12.096088 -13.413051,30.514114 -3.937505,44.502041 3.233473,4.773301 8.128545,9.126101 13.166759,11.708144 3.26562,1.673601 5.793415,2.570529 9.43155,3.346563 2.60577,0.555821 3.43662,0.611787 7.9375,0.534652 3.986979,-0.06833 5.492969,-0.199224 7.278859,-0.632655 z M 59.203672,69.508146 v -3.391028 l -5.44563,-0.0706 -5.445628,-0.0706 -0.04448,-2.416696 -0.04447,-2.416699 1.852083,-10e-4 c 2.53415,-0.0021 3.78315,-0.377225 4.176601,-1.255143 0.354701,-0.791451 0.6247,-23.573853 0.318704,-26.892018 -0.25931,-2.811895 -0.536017,-3.049782 -3.677883,-3.161889 l -2.537213,-0.09064 V 27.28508 24.82837 h 5.42396 5.423956 V 21.431834 18.03551 l 2.711982,-5.23e-4 2.711979,-5.22e-4 -0.0809,3.396781 -0.0809,3.396781 h 2.92512 2.92513 v -3.396324 -3.396324 h 2.63815 2.63816 l 0.0738,3.461639 0.0738,3.461638 1.648621,0.179565 c 4.917048,0.535557 8.204589,2.221513 9.600589,4.923478 0.75901,1.46908 1.132509,4.283011 0.821539,6.189616 -0.57984,3.555204 -2.766359,5.97822 -6.580651,7.292425 -0.763979,0.263231 -1.389059,0.549863 -1.389059,0.63696 0,0.0871 0.651351,0.302294 1.44744,0.478208 3.385661,0.74815 6.26088,2.84294 7.50834,5.470334 0.64625,1.361103 0.701511,1.745052 0.701511,4.873822 0,3.182327 -0.0462,3.489188 -0.73302,4.870199 -0.813879,1.636466 -2.476751,3.294301 -4.149511,4.136947 -1.42137,0.716011 -4.684159,1.513186 -7.101281,1.735002 l -1.906818,0.175128 v 3.489436 3.489436 h -2.645831 -2.64583 V 69.50289 66.106558 h -2.925131 -2.925119 l 0.0809,3.396786 0.0809,3.396785 -2.71198,-5.23e-4 -2.711979,-5.22e-4 z m 15.560043,-8.999345 c 2.947148,-0.924445 4.28862,-3.013676 4.277899,-6.66253 -0.01241,-4.208062 -1.924269,-5.9598 -7.15827,-6.558564 -1.371272,-0.156863 -3.564782,-0.248545 -4.874461,-0.203724 l -2.38125,0.08146 -0.0705,7.018841 -0.0705,7.018831 4.436147,-0.126845 c 3.124713,-0.08936 4.851453,-0.257104 5.840973,-0.567502 z M 71.021744,42.048399 c 4.738299,-0.650749 6.334871,-2.395436 6.136309,-6.705583 -0.077,-1.670738 -0.21971,-2.241927 -0.751919,-3.008845 -1.31427,-1.893887 -3.511161,-2.542 -8.616532,-2.542 h -3.294269 v 6.095966 c 0,3.352783 0.0794,6.174345 0.17639,6.270137 0.27404,0.27059 4.05693,0.205253 6.350021,-0.109675 z"
         id="path2614" />
    </clipPath>
    <linearGradient
       xlink:href="#linearGradient2127"
       id="linearGradient2616"
       gradientUnits="userSpaceOnUse"
       gradientTransform="matrix(1,0,0,0.9874232,26.035193,3.0169485)"
       x1="4.5881319"
       y1="54.282589"
       x2="75.616959"
       y2="21.891623" />
  </defs>
  <text
     xml:space="preserve"
     style="font-style:italic;font-variant:normal;font-weight:bold;font-stretch:normal;font-size:34.5723px;line-height:1.25;font-family:Ubuntu;-inkscape-font-specification:'Ubuntu, Bold Italic';font-variant-ligatures:normal;font-variant-caps:normal;font-variant-numeric:normal;font-variant-east-asian:normal;text-align:center;text-anchor:middle;display:inline;fill:#19ab3c;fill-opacity:1;stroke:none;stroke-width:0.264583"
     x="41.952435"
     y="120.4758"
     id="wordmark"><tspan
       id="tspan9304"
       x="41.952435"
       y="120.4758"
       style="font-style:italic;font-variant:normal;font-weight:bold;font-stretch:normal;font-size:34.5723px;font-family:Ubuntu;-inkscape-font-specification:'Ubuntu, Bold Italic';font-variant-ligatures:normal;font-variant-caps:normal;font-variant-numeric:normal;font-variant-east-asian:normal;text-align:center;text-anchor:middle;fill:#19ab3c;fill-opacity:1;stroke-width:0.264583">greencoin</tspan></text>
  <circle
     style="display:none;fill:url(#linearGradient23371);fill-opacity:1;stroke-width:0.264583"
     id="water-bg"
     cx="43.03017"
     cy="43.026844"
     r="42.674618" />
  <path
     title="Greening cryptocurrencies"
     style="display:inline;fill:#19ab3c;fill-opacity:1;stroke-width:0.264583"
     d="m 37.6161,85.81582 c -6.779905,-0.77673 -14.490834,-3.88179 -20.377213,-8.205525 -2.786636,-2.04687 -7.2969515,-6.61823 -9.2883015,-9.41401 -3.798019,-5.33228 -6.530514,-12.07844 -7.637213,-18.85523 -0.41783,-2.55854 -0.41783,-10.141464 0,-12.7 C 2.9816055,20.302315 13.676516,7.512102 29.160102,2.142788 33.89344,0.501386 37.122,0 42.95806,0 c 4.401621,0 5.606261,0.09234 8.202081,0.628707 8.4344,1.742777 15.48937,5.412341 21.65337,11.262742 13.46803,12.782846 17.07845,33.492416 8.75538,50.221406 C 73.376411,78.579405 56.043151,87.92692 37.6161,85.81582 Z m 13.282281,-7.576585 c 7.24436,-1.78056 13.07709,-5.13551 18.13629,-10.43189 4.761249,-4.98445 7.801629,-10.78636 9.30822,-17.76268 0.6569,-3.04181 0.6569,-11.065416 0,-14.107217 C 75.999121,25.084526 69.187911,16.002476 59.652721,11.016019 54.405291,8.271856 48.976271,6.949421 42.95806,6.949421 c -9.99327,0 -18.97271,3.833775 -25.936843,11.073741 -11.7834385,12.250155 -13.4130515,30.902773 -3.937505,45.068863 3.233473,4.8341 8.128545,9.24234 13.166759,11.85727 3.26562,1.69492 5.793415,2.60327 9.431549,3.38919 2.60577,0.5629 3.43662,0.61958 7.9375,0.54146 3.986981,-0.0692 5.492971,-0.20176 7.278861,-0.64071 z M 33.16848,67.338095 v -3.43422 l -5.445631,-0.0715 -5.445628,-0.0715 -0.04448,-2.44748 -0.04447,-2.44748 1.852083,-10e-4 c 2.534149,-0.002 3.78315,-0.38203 4.176601,-1.27113 0.354701,-0.80153 0.6247,-23.874114 0.318704,-27.234542 -0.25931,-2.84771 -0.536017,-3.088626 -3.677883,-3.202162 l -2.537213,-0.09179 V 24.57729 22.089289 h 5.423959 5.423958 v -3.439901 -3.439583 l 2.71198,-5.29e-4 2.71198,-5.29e-4 -0.0809,3.440046 -0.0809,3.440046 h 2.92512 2.92513 v -3.439583 -3.439583 h 2.63815 2.63816 l 0.0738,3.505729 0.0738,3.505729 1.64862,0.181853 c 4.91705,0.542378 8.20459,2.249808 9.60059,4.986187 0.75901,1.487792 1.132509,4.337563 0.82154,6.268453 -0.579841,3.600487 -2.766361,6.054365 -6.580651,7.385309 -0.76398,0.266584 -1.38906,0.556866 -1.38906,0.645073 0,0.08821 0.65135,0.306144 1.44744,0.484299 3.38566,0.75768 6.26088,2.87915 7.50834,5.54001 0.64625,1.37844 0.70151,1.76728 0.70151,4.9359 0,3.22286 -0.0462,3.53363 -0.733019,4.93223 -0.81388,1.65731 -2.47675,3.33626 -4.149511,4.18964 -1.42137,0.72513 -4.68416,1.53246 -7.10128,1.7571 l -1.90682,0.17736 v 3.53388 3.53388 h -2.64583 -2.645831 v -3.43958 -3.43959 h -2.92513 -2.92512 l 0.0809,3.44005 0.0809,3.44005 -2.71198,-5.3e-4 -2.71198,-4e-4 z m 15.560041,-9.11397 c 2.94715,-0.93622 4.28862,-3.05206 4.2779,-6.74739 -0.0124,-4.26166 -1.92427,-6.03571 -7.15827,-6.6421 -1.371271,-0.15886 -3.564781,-0.25171 -4.874461,-0.20632 l -2.38125,0.0825 -0.0705,7.10824 -0.0705,7.10823 4.43615,-0.12846 c 3.124711,-0.0905 4.851451,-0.26038 5.840971,-0.57473 z M 44.98655,39.528593 c 4.738301,-0.659037 6.334871,-2.425946 6.136311,-6.790992 -0.077,-1.692018 -0.21971,-2.270482 -0.75192,-3.047169 -1.31427,-1.918009 -3.51116,-2.574377 -8.616531,-2.574377 h -3.29427 v 6.17361 c 0,3.395488 0.0794,6.252988 0.17639,6.35 0.27404,0.274037 4.05693,0.207867 6.35002,-0.111072 z"
     id="bcoin" />
  <g
     id="clickable"
     transform="matrix(1,0,0,1.012737,0,-1.1064137)">
    <g
       id="gauge"
       transform="translate(-26.035193,-1.92445)">
      <rect
         style="opacity:0.9625;fill:#003030;fill-opacity:1;stroke:#75f0ff;stroke-width:0;stroke-miterlimit:4;stroke-dasharray:none;stroke-opacity:1"
         id="level"
         width="86.014915"
         height="85.028008"
         x="26.035192"
         y="13.016949"
         clip-path="url(#clipPath2612)" />
    </g>
    <g
       id="CO2"
       transform="matrix(0.73220239,0,0,0.73220239,-32.163962,20.26998)">
      <text
         xml:space="preserve"
         style="font-style:normal;font-variant:normal;font-weight:normal;font-stretch:normal;font-size:6.35px;line-height:1.25;font-family:sans-serif;-inkscape-font-specification:'sans-serif, Normal';font-variant-ligatures:normal;font-variant-caps:normal;font-variant-numeric:normal;font-variant-east-asian:normal;text-align:end;text-anchor:end;stroke-width:0.264583"
         x="127.52312"
         y="72.309486"
         id="CO"><tspan
           id="tspan49755"
           style="font-style:normal;font-variant:normal;font-weight:normal;font-stretch:normal;font-size:6.35px;font-family:sans-serif;-inkscape-font-specification:'sans-serif, Normal';font-variant-ligatures:normal;font-variant-caps:normal;font-variant-numeric:normal;font-variant-east-asian:normal;text-align:end;text-anchor:end;stroke-width:0.264583"
           x="123.16368"
           y="72.309486">CO</tspan></text>
      <text
         xml:space="preserve"
         style="font-style:normal;font-variant:normal;font-weight:normal;font-stretch:normal;font-size:4.58611px;line-height:1.25;font-family:sans-serif;-inkscape-font-specification:'sans-serif, Normal';font-variant-ligatures:normal;font-variant-caps:normal;font-variant-numeric:normal;font-variant-east-asian:normal;text-align:start;text-anchor:start;stroke-width:0.264583"
         x="122.42028"
         y="73.774536"
         id="two"><tspan
           id="tspan50749"
           style="font-style:normal;font-variant:normal;font-weight:normal;font-stretch:normal;font-size:4.58611px;font-family:sans-serif;-inkscape-font-specification:'sans-serif, Normal';font-variant-ligatures:normal;font-variant-caps:normal;font-variant-numeric:normal;font-variant-east-asian:normal;text-align:start;text-anchor:start;stroke-width:0.264583"
           x="123.48171"
           y="73.774536">2</tspan></text>
    </g>
    <text
       xml:space="preserve"
       style="font-size:3.89216px;line-height:1.25;font-family:sans-serif;text-align:start;text-anchor:start;stroke-width:0.162174"
       x="73.491684"
       y="63.730156"
       id="footprint"
       transform="scale(0.9359227,1.0684643)"><tspan
         id="co2weight"
         style="font-size:3.89216px;text-align:start;text-anchor:start;stroke-width:0.162174"
         x="53.883312"
         y="63.730156">3tons</tspan></text>
  </g>
  <script
     src="gcoin.js"
     type="text/javascript"
     id="dynascript">
!(async function() {
console.log('Running gcoin.js script from',location.pathname);
// included: gcoin.js
// script to update dynamic logo parts
 const symb = 'gcoin';
 const ticker = 'gcoin';
 const gw = 'https://ipfs.safewatch.care';
 const mutable = 'QmTo1AnNH7Snu37Dotphw2fX54u1S5VLFpnnERN7GbyUrW';
 let path = 'https://raw.githubusercontent.com/PurpleZone/NFTs/master/'+ticker
     //path = gw+'/ipns/'+mutable;
     //path = location.pathname.replace(/\/[^/]*$/,'');
 console.log('path:',path);
 fetch(path+`/${symb}.json`).then(resp => resp.json()).
   then(cfg => {
   console.log('cfg:',cfg);
   document.getElementById('clickable').addEventListener('click',
        function() { location.href = path+'/factsheet.html'; }
        );
     let p = 100.0;
     if (typeof(cfg.level) != 'undefined') {
       p =  parseFloat(cfg.level.replace('%$',''));
       let y =  86 * p / 100;
       console.log('y:',y);
       document.getElementById('level').setAttribute('y',y);
       console.log('levelid:',document.getElementById('level'));
     }
     if (typeof(cfg.footprint) != 'undefined') {
       let co2 = parseFloat(cfg.footprint) * (100 - p ) / 100;
       document.getElementById('co2weight').innerHTML = `${co2}tons`;
     }
     return cfg;
   }).
   catch(console.error);
})();
 </script>
</svg>
