<?xml version="1.0" encoding="UTF-8" standalone="no"?>
<!-- Created with Inkscape (http://www.inkscape.org/) -->

<svg
   width="86.014854mm"
   height="86.111145mm"
   viewBox="0 0 86.014853 86.111148"
   version="1.1"
   id="svg5"
   xmlns:xlink="http://www.w3.org/1999/xlink"
   xmlns="http://www.w3.org/2000/svg"
   xmlns:svg="http://www.w3.org/2000/svg">
  <defs
     id="defs2">
    <linearGradient
       id="linearGradient2127">
      <stop
         style="stop-color:#008080;stop-opacity:1"
         offset="0"
         id="stop2123" />
      <stop
         style="stop-color:#00ffff;stop-opacity:1"
         offset="1"
         id="stop2125" />
    </linearGradient>
    <linearGradient
       xlink:href="#linearGradient23369"
       id="linearGradient23371"
       x1="294.14886"
       y1="392.00464"
       x2="296.08844"
       y2="252.33362"
       gradientUnits="userSpaceOnUse"
       gradientTransform="matrix(0.26458333,0,0,0.26458333,61.133483,-29.897267)" />
    <linearGradient
       id="linearGradient23369">
      <stop
         style="stop-color:#00ffff;stop-opacity:1"
         offset="0"
         id="stop23365" />
      <stop
         style="stop-color:#260e58;stop-opacity:1"
         offset="0.93375683"
         id="stop23535" />
      <stop
         style="stop-color:#ffffff;stop-opacity:1"
         offset="1"
         id="stop23367" />
    </linearGradient>
    <linearGradient
       xlink:href="#linearGradient2127"
       id="linearGradient2616"
       gradientUnits="userSpaceOnUse"
       gradientTransform="matrix(1,0,0,0.9874232,26.035193,3.0169485)"
       x1="4.5881319"
       y1="54.282589"
       x2="75.616959"
       y2="21.891623" />
    <clipPath
       clipPathUnits="userSpaceOnUse"
       id="clipPath28352">
      <path
         title="Greening cryptocurrencies"
         style="display:inline;fill:url(#linearGradient28356);fill-opacity:1;stroke-width:0.262914"
         d="M 63.651293,87.753481 C 56.871387,86.986517 49.160458,83.920509 43.27408,79.651154 40.487443,77.630028 35.977128,73.116161 33.985778,70.355543 30.187759,65.090325 27.455264,58.42901 26.348565,51.737452 c -0.41783,-2.526364 -0.41783,-10.013919 0,-12.540275 2.668233,-16.133251 13.363143,-28.762606 28.846729,-34.0643912 4.733338,-1.6207573 7.961898,-2.1158369 13.797958,-2.1158369 4.401621,0 5.606261,0.091178 8.20208,0.6207985 8.434401,1.72086 15.48937,5.3442731 21.653371,11.1210946 C 112.31673,27.380921 115.92715,47.83003 107.60408,64.348623 99.411604,80.608077 82.078342,89.83803 63.651293,87.753481 Z m 13.282279,-7.481298 c 7.244361,-1.758165 13.077092,-5.070922 18.136291,-10.300689 4.761248,-4.921762 7.801627,-10.650703 9.308227,-17.539282 0.65689,-3.003553 0.65689,-10.926248 0,-13.929792 C 102.03431,27.78599 95.223104,18.818165 85.687912,13.894422 80.440484,11.184772 75.011464,9.8789688 68.993252,9.8789688 c -9.99327,0 -18.97271,3.7855562 -25.936843,10.9344692 -11.783438,12.096087 -13.413049,30.514114 -3.937505,44.50204 3.233473,4.773302 8.128545,9.126101 13.166759,11.708144 3.26562,1.673602 5.793415,2.570529 9.431552,3.346563 2.605768,0.555821 3.43662,0.611788 7.9375,0.534652 3.986977,-0.06833 5.492967,-0.199223 7.278857,-0.632654 z M 61.849504,68.463124 v -3.391029 l -5.44563,-0.0706 -5.445628,-0.0706 -0.04448,-2.416696 -0.04447,-2.416699 1.852083,-10e-4 c 2.53415,-0.0021 3.78315,-0.377225 4.176602,-1.255143 0.3547,-0.791451 0.624699,-23.573854 0.318704,-26.892018 -0.259311,-2.811895 -0.536017,-3.049782 -3.677883,-3.161889 L 51.00159,28.69681 v -2.456755 -2.45671 h 5.423959 5.423955 v -3.396536 -3.396322 l 2.711982,-5.23e-4 2.711979,-5.22e-4 -0.0809,3.396779 -0.0809,3.396781 h 2.92512 2.92513 v -3.396324 -3.396324 h 2.63815 2.63816 l 0.0738,3.461641 0.0738,3.461638 1.648621,0.179564 c 4.917049,0.535558 8.204589,2.221512 9.600589,4.923479 0.75901,1.46908 1.13251,4.28301 0.821539,6.189615 -0.579839,3.555205 -2.766359,5.978221 -6.58065,7.292426 -0.763979,0.263231 -1.38906,0.549862 -1.38906,0.63696 0,0.0871 0.651351,0.302293 1.44744,0.478207 3.385662,0.74815 6.260881,2.842941 7.508341,5.470335 0.64625,1.361103 0.701511,1.745052 0.701511,4.873822 0,3.182327 -0.0462,3.489187 -0.73302,4.870198 -0.81388,1.636467 -2.476752,3.294301 -4.149511,4.136948 -1.421371,0.71601 -4.68416,1.513185 -7.101282,1.735002 l -1.906818,0.175127 v 3.489436 3.489436 h -2.64583 -2.645831 V 68.45782 65.061488 h -2.92513 -2.92512 l 0.0809,3.396787 0.0809,3.396784 -2.711979,-5.22e-4 -2.711979,-5.23e-4 z m 15.560043,-8.999345 c 2.947149,-0.924446 4.288621,-3.013677 4.2779,-6.662531 -0.01241,-4.208061 -1.92427,-5.959799 -7.158271,-6.558563 -1.371272,-0.156863 -3.564781,-0.248546 -4.874461,-0.203725 l -2.38125,0.08146 -0.0705,7.018841 -0.0705,7.018831 4.436147,-0.126845 c 3.124714,-0.08935 4.851453,-0.257104 5.840974,-0.567502 z m -3.74197,-18.460403 c 4.738298,-0.650748 6.334871,-2.395435 6.136309,-6.705582 -0.077,-1.670738 -0.21971,-2.241927 -0.751919,-3.008846 -1.314271,-1.893887 -3.575778,-3.341526 -8.616532,-2.542 h -3.294269 v 6.095966 c 0,3.352784 0.0794,6.174345 0.176389,6.270138 0.27404,0.27059 4.056931,0.205252 6.350022,-0.109676 z"
         id="path28354" />
    </clipPath>
    <linearGradient
       xlink:href="#linearGradient2127"
       id="linearGradient28356"
       gradientUnits="userSpaceOnUse"
       gradientTransform="matrix(1,0,0,0.9874232,26.035192,3.0169489)"
       x1="4.5881319"
       y1="54.282589"
       x2="75.616959"
       y2="21.891623" />
  </defs>
  <g
     id="layer1"
     transform="translate(-60.574901,-53.393638)">
    <g
       id="g879"
       transform="translate(60.574794,53.393546)">
      <text
         xml:space="preserve"
         style="font-style:italic;font-variant:normal;font-weight:bold;font-stretch:normal;font-size:34.5723px;line-height:1.25;font-family:Ubuntu;-inkscape-font-specification:'Ubuntu, Bold Italic';font-variant-ligatures:normal;font-variant-caps:normal;font-variant-numeric:normal;font-variant-east-asian:normal;text-align:center;text-anchor:middle;display:inline;fill:#00afc1;fill-opacity:1;stroke:none;stroke-width:0.264583"
         x="41.952435"
         y="120.4758"
         id="wordmark"><tspan
           id="tspan9304"
           x="41.952435"
           y="120.4758"
           style="font-style:italic;font-variant:normal;font-weight:bold;font-stretch:normal;font-size:34.5723px;font-family:Ubuntu;-inkscape-font-specification:'Ubuntu, Bold Italic';font-variant-ligatures:normal;font-variant-caps:normal;font-variant-numeric:normal;font-variant-east-asian:normal;text-align:center;text-anchor:middle;fill:#00afc1;fill-opacity:1;stroke-width:0.264583">anchorcoin</tspan></text>
      <path
         id="path10876"
         style="display:inline;fill:#00afc1;fill-opacity:1;stroke-width:0.999999"
         d="m 391.30469,201.80273 c -22.05755,0 -34.25866,1.89394 -52.14844,8.09766 -58.52064,20.29347 -98.94268,68.63595 -109.02734,130.38867 -1.5792,9.67006 -1.5792,38.32993 0,48 4.1828,25.61307 14.51051,51.11018 28.86523,71.26367 7.52636,10.56673 24.5733,27.84388 35.10547,35.58008 22.24773,16.34168 51.39079,28.078 77.01562,31.01367 69.64555,7.97897 135.15739,-27.35015 166.1211,-89.58593 31.45727,-63.22768 17.81099,-141.50134 -33.0918,-189.81446 -23.29701,-22.11175 -49.9618,-35.98148 -81.83984,-42.56836 -9.81098,-2.02721 -14.36395,-2.375 -31,-2.375 z m 0,26.26563 c 22.74599,0 43.26485,4.9975 63.09765,15.36914 36.03852,18.84645 61.78229,53.17249 70.64063,94.19141 2.48277,11.49657 2.48277,41.82175 0,53.31836 -5.6942,26.36719 -17.18442,48.2959 -35.17969,67.13476 -19.12138,20.01782 -41.16662,32.69806 -68.54687,39.42774 -6.74982,1.65902 -12.44282,2.16033 -27.51172,2.42187 -17.0112,0.29526 -20.15142,0.0806 -30,-2.04687 -13.75043,-2.97041 -23.30399,-6.4026 -35.64649,-12.8086 -19.04207,-9.8832 -37.54267,-26.54579 -49.76367,-44.8164 -35.81309,-53.54113 -29.65497,-124.0381 14.88086,-170.33789 26.32113,-27.36366 60.25946,-41.85352 98.0293,-41.85352 z"
         transform="matrix(0.26458333,0,0,0.26458333,-60.574794,-53.393546)" />
      <path
         id="path10882"
         style="display:inline;fill:#00afc1;fill-opacity:1;stroke-width:0.264583"
         d="m 41.422826,14.376064 -2.711979,5.29e-4 -2.711979,5.29e-4 v 3.439584 3.439583 H 30.57491 25.150952 v 2.488221 2.487702 l 2.537311,0.09199 c 3.141867,0.113536 3.418502,0.35468 3.677812,3.20239 0.305996,3.360428 0.03637,26.432981 -0.318326,27.234512 -0.393451,0.8891 -1.642858,1.268722 -4.177006,1.270722 l -1.852083,0.0011 0.04444,2.447395 0.04444,2.447912 5.445665,0.07131 5.445662,0.07131 v 3.434416 3.434416 h 2.711979 l 2.711979,5.3e-4 -0.08062,-3.440102 -0.08113,-3.439584 h 2.925402 2.924887 v 3.439584 3.439583 h 2.645833 2.645834 v -3.534151 -3.533634 l 1.90686,-0.177766 c 2.417119,-0.224642 5.680006,-1.03187 7.101374,-1.757 1.672762,-0.853379 3.335737,-2.532097 4.149619,-4.189407 0.686819,-1.398601 0.732771,-1.709656 0.732771,-4.932516 0,-3.168621 -0.055,-3.557177 -0.701249,-4.935617 -1.24746,-2.660859 -4.122925,-4.78255 -7.508586,-5.540229 -0.796089,-0.178155 -1.447456,-0.396 -1.447456,-0.484209 0,-0.08821 0.625081,-0.378338 1.389062,-0.644922 3.814289,-1.330944 6.000637,-3.785108 6.580476,-7.385595 0.31097,-1.930889 -0.06213,-4.78056 -0.821137,-6.268352 -1.396,-2.736379 -4.683916,-4.443881 -9.600964,-4.986258 l -1.648479,-0.181901 -0.0739,-3.505729 -0.0739,-3.505729 H 49.749441 47.11136 v 3.439583 3.439583 h -2.924887 -2.925402 l 0.08113,-3.44016 z m -0.132291,11.907282 h 3.294372 c 5.105371,0 7.302259,0.655994 8.616529,2.574004 0.532209,0.776687 0.674891,1.355341 0.75189,3.04736 0.198562,4.365045 -1.397756,6.131761 -6.136058,6.790798 -2.29309,0.318939 -6.07596,0.385141 -6.35,0.111104 -0.09699,-0.09701 -0.176733,-2.954512 -0.176733,-6.35 z m 3.332612,17.50074 c 1.284674,0.0032 2.94141,0.08848 4.055568,0.217559 5.233998,0.60639 7.145819,2.38031 7.158217,6.641973 0.01072,3.695329 -1.330624,5.81117 -4.277775,6.74739 -0.989518,0.314349 -2.716276,0.484143 -5.840987,0.574641 l -4.436422,0.128675 0.0708,-7.108092 0.07028,-7.108095 2.38125,-0.08268 c 0.245565,-0.0085 0.522608,-0.01209 0.819071,-0.01138 z" />
      <g
         id="clickable"
         transform="matrix(1,0,0,1.012737,0,-1.1064137)">
        <g
           id="gauge"
           transform="translate(-26.035193,-1.92445)"
           style="display:inline">
          <rect
             style="display:none;opacity:0.9625;fill:#003030;fill-opacity:1;stroke:#75f0ff;stroke-width:0;stroke-miterlimit:4;stroke-dasharray:none;stroke-opacity:1"
             id="level"
             width="86.014915"
             height="85.028008"
             x="26.035192"
             y="13.016949"
             clip-path="url(#clipPath28352)" />
        </g>
        <g
           id="CO2"
           transform="matrix(0.73220239,0,0,0.73220239,-6.7639491,30.720201)">
          <text
             xml:space="preserve"
             style="font-style:normal;font-variant:normal;font-weight:normal;font-stretch:normal;font-size:6.35px;line-height:1.25;font-family:sans-serif;-inkscape-font-specification:'sans-serif, Normal';font-variant-ligatures:normal;font-variant-caps:normal;font-variant-numeric:normal;font-variant-east-asian:normal;text-align:end;text-anchor:end;stroke-width:0.264583"
             x="127.52312"
             y="72.309486"
             id="CO"><tspan
               id="tspan49755"
               style="font-style:normal;font-variant:normal;font-weight:normal;font-stretch:normal;font-size:6.35px;font-family:sans-serif;-inkscape-font-specification:'sans-serif, Normal';font-variant-ligatures:normal;font-variant-caps:normal;font-variant-numeric:normal;font-variant-east-asian:normal;text-align:end;text-anchor:end;stroke-width:0.264583"
               x="123.16368"
               y="72.309486">CO</tspan></text>
          <text
             xml:space="preserve"
             style="font-style:normal;font-variant:normal;font-weight:normal;font-stretch:normal;font-size:4.58611px;line-height:1.25;font-family:sans-serif;-inkscape-font-specification:'sans-serif, Normal';font-variant-ligatures:normal;font-variant-caps:normal;font-variant-numeric:normal;font-variant-east-asian:normal;text-align:start;text-anchor:start;stroke-width:0.264583"
             x="122.42028"
             y="73.774536"
             id="two"><tspan
               id="tspan50749"
               style="font-style:normal;font-variant:normal;font-weight:normal;font-stretch:normal;font-size:4.58611px;font-family:sans-serif;-inkscape-font-specification:'sans-serif, Normal';font-variant-ligatures:normal;font-variant-caps:normal;font-variant-numeric:normal;font-variant-east-asian:normal;text-align:start;text-anchor:start;stroke-width:0.264583"
               x="123.48171"
               y="73.774536">2</tspan></text>
        </g>
        <text
           xml:space="preserve"
           style="font-size:3.89216px;line-height:1.25;font-family:sans-serif;text-align:start;text-anchor:start;stroke-width:0.162174"
           x="96.107643"
           y="73.510735"
           id="footprint"
           transform="scale(0.9359227,1.0684643)"><tspan
             id="co2weight"
             style="font-size:3.89216px;text-align:start;text-anchor:start;stroke-width:0.162174"
             x="76.499214"
             y="73.510735">2454kg</tspan></text>
      </g>
      <path
         style="fill:#032256;fill-opacity:1;stroke-width:0.264583"
         d="m 29.912613,61.317003 c -0.605203,-1.328272 -1.935059,-2.485491 -3.697735,-3.217706 -3.596963,-1.494182 -6.195219,-3.709652 -7.30819,-6.23152 l -0.582037,-1.318832 -0.731088,0.575072 c -0.402098,0.316291 -0.772156,0.531736 -0.82235,0.478764 -0.05019,-0.05297 0.01695,-0.810684 0.149202,-1.683809 0.3878,-2.56019 2.880344,-7.176674 2.880344,-5.334733 0,0.396262 1.674827,3.789241 2.27415,4.607129 0.427491,0.583391 0.419684,0.595313 -0.389795,0.595313 -0.459807,0 -0.826021,0.138866 -0.826021,0.313224 0,0.618884 2.591951,2.82769 3.523198,3.002391 1.316306,0.246941 2.491799,-0.44332 3.101251,-1.821087 0.575355,-1.300689 0.717077,-2.766388 0.918401,-9.498174 l 0.148362,-4.960938 h -2.623669 -2.623672 l -0.811802,-1.247981 c -0.44649,-0.68639 -0.787622,-1.272161 -0.758069,-1.301714 0.02955,-0.02955 1.597094,-0.109924 3.483425,-0.178604 l 3.429693,-0.124873 0.09428,-0.967715 c 0.07686,-0.788933 -0.03243,-1.067379 -0.591555,-1.507191 -1.477288,-1.162036 -1.879161,-3.124141 -0.951487,-4.645567 0.722008,-1.184127 1.600256,-1.682047 3.017017,-1.710484 3.45961,-0.06944 4.895348,4.188848 2.142432,6.354292 -0.558564,0.439367 -0.668419,0.721904 -0.600599,1.544716 l 0.083,1.006996 3.502694,0.0738 3.502695,0.07381 -0.856861,1.310504 -0.856861,1.310506 -2.60314,0.0048 -2.603138,0.0048 0.168214,6.548437 c 0.18283,7.117424 0.397595,8.542798 1.406779,9.336622 1.462654,1.150525 4.555234,0.166759 5.688896,-1.809665 l 0.470112,-0.819589 -0.925293,-0.173585 -0.925293,-0.173585 1.037543,-1.230466 c 0.570648,-0.676754 1.383961,-1.993609 1.80736,-2.926345 l 0.769822,-1.695879 0.682029,1.168382 c 1.018255,1.744366 1.265209,2.56028 1.323359,4.372237 0.06008,1.872242 -0.09271,2.15501 -0.952746,1.763151 -0.568193,-0.258884 -0.64175,-0.191349 -1.053137,0.966941 -0.958035,2.697409 -2.948657,4.539433 -6.16725,5.706864 -2.017392,0.731737 -3.288236,1.631114 -4.322739,3.059206 -0.735216,1.014933 -0.739732,1.016717 -1.019733,0.402179 z m 1.380024,-31.460852 c 0.646745,-0.472912 0.607783,-1.689487 -0.07601,-2.373278 -0.457832,-0.457832 -0.68558,-0.511143 -1.284221,-0.300612 -0.949352,0.333869 -1.470105,1.33884 -1.079082,2.082456 0.527073,1.00234 1.541123,1.248206 2.439313,0.591434 z"
         id="path10934" />
    </g>
  </g>
</svg>
