<?xml version="1.0" encoding="UTF-8" standalone="no"?>
<!-- Created with Inkscape (http://www.inkscape.org/) -->

<svg
   width="564.43127"
   height="564.00031"
   viewBox="0 0 149.33911 149.22509"
   version="1.1"
   id="svg58362"
   xmlns="http://www.w3.org/2000/svg"
   xmlns:svg="http://www.w3.org/2000/svg">
  <defs
     id="defs58359" />
  <g
     id="layer1"
     transform="translate(-27.568374,-5.1107829)">
    <g
       id="g58453"
       transform="translate(-33.230779,24.124046)">
      <path
         style="fill:#b66801;stroke-width:0.264583"
         d="m 96.054248,105.53963 c -0.481083,-0.32742 -1.08891,-0.89297 -1.350727,-1.25677 -0.29568,-0.41085 -1.428768,-4.921732 -2.990735,-11.90625 C 90.329699,86.191975 87.33773,72.856975 85.063965,62.743277 82.790201,52.629579 80.840145,43.723148 80.730507,42.95121 c -0.581456,-4.09395 1.78874,-8.533661 5.411276,-10.136081 0.649001,-0.287084 6.508927,-1.715201 13.022058,-3.173595 6.513129,-1.458394 12.080179,-2.810272 12.371219,-3.004175 0.29105,-0.1939 4.16058,-3.418342 8.59896,-7.165424 17.3686,-14.6633437 17.04813,-14.407825 18.0704,-14.407825 0.87716,0 1.1347,0.2391318 4.32956,4.0200885 1.8683,2.2110485 3.52308,4.1874695 3.67727,4.3920465 0.23067,0.306044 0.65698,0.132844 2.40569,-0.97738 2.16776,-1.376278 3.25432,-1.644508 4.08836,-1.009262 0.23342,0.177786 1.10864,1.424156 1.94492,2.76971 0.83628,1.345555 1.69569,2.446464 1.90981,2.446464 0.21411,0 1.72015,-0.308255 3.34675,-0.685011 1.8322,-0.424378 3.42276,-0.641728 4.18042,-0.571254 1.3897,0.129267 2.70448,0.946859 3.26466,2.030123 0.27397,0.529792 2.78841,10.883993 2.78841,11.482361 0,0.04012 0.40823,0.02529 0.90718,-0.03297 2.09612,-0.24471 4.11132,1.27422 4.67839,3.526282 0.25813,1.025134 0.3914,1.18422 0.99428,1.18694 1.25631,0.0057 3.49649,0.739608 4.98433,1.632989 1.5799,0.948661 2.86752,2.356303 3.73966,4.088242 0.8383,1.664731 4.84943,19.939291 4.8504,22.098238 0.001,3.218825 -1.48442,5.478698 -4.5624,6.939068 l -1.73837,0.82478 1.52706,6.844292 c 1.60703,7.202676 1.65384,7.851908 0.67324,9.336321 -1.04506,1.581994 0.33906,1.185746 -20.2871,5.807776 -4.87495,1.092406 -14.39995,3.225533 -21.16667,4.74028 -6.76672,1.51475 -19.74453,4.424736 -28.83958,6.466626 -9.09505,2.0419 -17.0844,3.71288 -17.754103,3.71331 -0.828155,5.3e-4 -1.497434,-0.18965 -2.092339,-0.59454 z"
         id="path58467" />
      <path
         style="fill:#3a9b23;stroke-width:0.264583"
         d="m 96.054248,105.53963 c -0.481083,-0.32742 -1.08891,-0.89297 -1.350727,-1.25677 -0.29568,-0.41085 -1.428768,-4.921732 -2.990735,-11.90625 C 90.329699,86.191975 87.33773,72.856975 85.063965,62.743277 82.790201,52.629579 80.840145,43.723148 80.730507,42.95121 c -0.581456,-4.09395 1.78874,-8.533661 5.411276,-10.136081 0.649001,-0.287084 6.508927,-1.715201 13.022058,-3.173595 6.513129,-1.458394 12.080179,-2.810272 12.371219,-3.004175 0.29105,-0.1939 4.16058,-3.418342 8.59896,-7.165424 17.3686,-14.6633437 17.04813,-14.407825 18.0704,-14.407825 0.87716,0 1.1347,0.2391318 4.32956,4.0200885 1.8683,2.2110485 3.52308,4.1874695 3.67727,4.3920465 0.23067,0.306044 0.65698,0.132844 2.40569,-0.97738 2.16776,-1.376278 3.25432,-1.644508 4.08836,-1.009262 0.23342,0.177786 1.10864,1.424156 1.94492,2.76971 0.83628,1.345555 1.69569,2.446464 1.90981,2.446464 0.21411,0 1.72015,-0.308255 3.34675,-0.685011 1.8322,-0.424378 3.42276,-0.641728 4.18042,-0.571254 1.3897,0.129267 2.70448,0.946859 3.26466,2.030123 0.27397,0.529792 2.78841,10.883993 2.78841,11.482361 0,0.04012 0.40823,0.02529 0.90718,-0.03297 2.09612,-0.24471 4.11132,1.27422 4.67839,3.526282 0.25813,1.025134 0.3914,1.18422 0.99428,1.18694 1.25631,0.0057 3.49649,0.739608 4.98433,1.632989 1.5799,0.948661 2.86752,2.356303 3.73966,4.088242 0.8383,1.664731 4.84943,19.939291 4.8504,22.098238 0.001,3.218825 -1.48442,5.478698 -4.5624,6.939068 l -1.73837,0.82478 1.52706,6.844292 c 1.60703,7.202676 1.65384,7.851908 0.67324,9.336321 -1.04506,1.581994 0.33906,1.185746 -20.2871,5.807776 -4.87495,1.092406 -14.39995,3.225533 -21.16667,4.74028 -6.76672,1.51475 -19.74453,4.424736 -28.83958,6.466626 -9.09505,2.0419 -17.0844,3.71288 -17.754103,3.71331 -0.828155,5.3e-4 -1.497434,-0.18965 -2.092339,-0.59454 z m 7.031692,-4.83993 c 2.31869,-0.51554 6.23985,-1.398031 8.71371,-1.961102 9.0639,-2.063025 14.14328,-3.205702 19.44687,-4.374848 6.27681,-1.383684 14.0926,-3.132987 24.20938,-5.418455 3.92906,-0.887611 11.48953,-2.576999 16.80104,-3.754199 5.31151,-1.1772 9.76085,-2.23515 9.88743,-2.351001 0.12816,-0.1173 -0.37011,-2.896886 -1.12448,-6.272858 -0.74504,-3.334223 -1.35462,-6.128808 -1.35462,-6.210194 0,-0.149127 -1.75763,0.208613 -8.06979,1.642496 -18.18505,4.130948 -17.62979,4.021641 -19.87239,3.912003 -3.45761,-0.16904 -5.96384,-1.642621 -8.07092,-4.74543 -0.5746,-0.846142 -1.3841,-1.713933 -1.79888,-1.928426 -0.97136,-0.502306 -1.9949,-1.727546 -2.84561,-3.406346 -0.53986,-1.065348 -0.6762,-1.720215 -0.6762,-3.247726 0,-3.633735 2.09056,-6.529946 5.50565,-7.627398 1.25031,-0.401791 13.9205,-3.345354 21.22659,-4.931405 1.93732,-0.420565 3.63396,-0.833612 3.77031,-0.917881 0.13635,-0.08427 0.24791,-0.443847 0.24791,-0.799061 0,-0.840771 1.03717,-0.916194 1.25294,-0.09111 0.12093,0.46246 0.28185,0.52763 0.96742,0.391801 1.43007,-0.283337 3.07131,-1.005782 3.07131,-1.351942 0,-0.495522 -2.92009,-13.450789 -3.06428,-13.594979 -0.068,-0.06805 -3.24619,0.572513 -7.06254,1.423469 -3.81635,0.850958 -7.89131,1.753446 -9.05548,2.005536 -1.16416,0.252087 -3.72401,0.82164 -5.68854,1.265671 -1.96453,0.444032 -6.01265,1.359004 -8.99583,2.033265 -2.98318,0.674264 -6.43599,1.448641 -7.67292,1.720837 -1.23693,0.272198 -7.54724,1.684779 -14.02291,3.139072 -6.47568,1.454293 -15.28631,3.43271 -19.579172,4.396483 -6.659555,1.495108 -8.106164,1.74025 -9.855588,1.670122 -1.12771,-0.0452 -2.050444,-0.191331 -2.050521,-0.324726 -7.7e-5,-0.133392 -0.06002,-0.18265 -0.133217,-0.109458 -0.07319,0.07319 1.009779,5.242489 2.406602,11.487327 1.396823,6.244836 2.697225,12.068625 2.889782,12.94175 1.229783,5.57629 4.181415,18.783692 4.493874,20.108333 0.205954,0.873125 0.566005,2.480469 0.800113,3.571875 0.530967,2.475355 0.586565,2.645835 0.862886,2.645835 0.123359,0 2.121391,-0.4218 4.440071,-0.93733 z m -4.533684,-3.115796 c -0.25534,-0.665406 0.06096,-0.915967 1.587524,-1.257599 1.5626,-0.349695 2.26716,-0.220983 2.26716,0.414176 0,0.477938 -0.94141,0.885626 -2.556075,1.106942 -0.892782,0.12237 -1.172295,0.06565 -1.298609,-0.263519 z m 5.484794,-1.524865 c 0.0749,-0.525362 0.33002,-0.683824 1.54489,-0.959446 1.67868,-0.380849 2.11667,-0.294891 2.11667,0.415407 0,0.610936 -0.38074,0.777195 -2.29501,1.00218 -1.42148,0.167069 -1.4541,0.156134 -1.36655,-0.458141 z m 5.42544,-0.683819 c -0.68722,-0.687223 0.83329,-1.675693 2.57763,-1.675693 1.80236,0 1.51355,1.101984 -0.40488,1.544812 -1.53001,0.353168 -1.92657,0.377058 -2.17275,0.130881 z m 5.37986,-1.648155 c 0,-0.666197 0.80449,-1.044062 2.44404,-1.147951 0.86141,-0.05458 1.12853,0.02888 1.20006,0.374957 0.11965,0.578948 -0.58085,0.936443 -2.27541,1.161233 -1.28104,0.169936 -1.36869,0.145073 -1.36869,-0.388239 z m 5.60996,-0.873419 c -0.5663,-0.566301 -0.34021,-0.980321 0.6739,-1.234054 2.20583,-0.551907 2.38509,-0.562901 2.7141,-0.166465 0.46642,0.561993 -0.0464,1.090348 -1.26832,1.306788 -0.54052,0.09574 -1.16695,0.227613 -1.39208,0.293047 -0.22512,0.06543 -0.55255,-0.02426 -0.7276,-0.199316 z m 5.42787,-1.16907 c -0.10445,-0.104452 -0.18991,-0.399751 -0.18991,-0.656222 0,-0.352838 0.35804,-0.540639 1.47136,-0.771763 0.80924,-0.168 1.64268,-0.239707 1.85208,-0.159353 0.5822,0.223411 0.45307,0.942223 -0.21458,1.194451 -0.96045,0.362836 -2.71309,0.598741 -2.91895,0.392887 z m 5.23829,-1.417772 c -0.29713,-0.480772 0.36727,-0.9578 1.82395,-1.309563 1.10751,-0.267449 1.35965,-0.253056 1.71034,0.09763 0.36115,0.361157 0.36407,0.458526 0.0239,0.798328 -0.52516,0.524592 -3.2909,0.846084 -3.55818,0.413607 z m 5.59611,-0.977 c -0.52804,-0.52804 -0.11434,-1.099331 0.9991,-1.379702 1.89895,-0.47816 2.58071,-0.400333 2.48093,0.283218 -0.0656,0.449659 -0.38044,0.65564 -1.40746,0.920938 -1.52307,0.39343 -1.8288,0.419325 -2.07257,0.175546 z m 5.22866,-1.497248 c -0.25551,-0.665859 0.0349,-0.875216 1.70622,-1.229887 1.62043,-0.343879 2.14914,-0.246385 2.14914,0.396288 0,0.520007 -0.7384,0.85907 -2.33093,1.070327 -1.11115,0.147399 -1.39387,0.103497 -1.52443,-0.236728 z m 5.61444,-0.88882 c -0.0944,-0.09436 -0.17158,-0.385263 -0.17158,-0.646441 0,-0.337132 0.32617,-0.558363 1.12448,-0.762717 0.61847,-0.158314 1.27331,-0.337759 1.45521,-0.398769 0.55112,-0.184841 1.12448,0.164089 1.12448,0.684326 0,0.476239 -0.32935,0.616863 -2.6727,1.141166 -0.37858,0.0847 -0.76553,0.0768 -0.85989,-0.01757 z m 5.32903,-1.448047 c -0.25204,-0.683312 0.10074,-0.988721 1.50514,-1.303012 1.55088,-0.347072 2.25467,-0.216916 2.25467,0.416971 0,0.748646 -3.50576,1.574821 -3.75981,0.886041 z m 5.61515,-1.014568 c -0.17595,-0.108741 -0.27728,-0.419039 -0.22518,-0.689549 0.0683,-0.354846 0.49932,-0.583909 1.54738,-0.822399 1.68568,-0.383583 2.11413,-0.29581 2.11413,0.433101 0,0.513612 -0.26431,0.632664 -2.5504,1.148774 -0.31131,0.07028 -0.70998,0.03882 -0.88593,-0.06993 z m 5.17003,-1.516385 c -0.10742,-0.279935 -0.008,-0.577951 0.25674,-0.771737 0.52827,-0.386284 2.90205,-0.738717 3.30368,-0.490495 0.63528,0.392626 0.0885,1.009883 -1.19308,1.346972 -1.77531,0.466934 -2.16094,0.453131 -2.36734,-0.08474 z m 5.45266,-1.422993 c 0.0743,-0.525497 0.33368,-0.69414 1.50988,-0.981599 1.61827,-0.395496 2.15168,-0.285734 2.15168,0.442772 0,0.610936 -0.38074,0.777195 -2.29501,1.002181 -1.42435,0.167405 -1.45428,0.157261 -1.36655,-0.463354 z m 5.48988,-0.927722 c -0.30004,-0.361527 -0.27742,-0.480875 0.15046,-0.79375 0.27698,-0.202536 0.59189,-0.368244 0.69979,-0.368244 0.1079,0 0.27396,-0.245065 0.36903,-0.544592 0.11742,-0.369951 0.35646,-0.518433 0.74543,-0.463021 0.45042,0.06417 0.5899,0.289737 0.65372,1.057185 0.0771,0.927418 0.0314,0.989431 -0.92604,1.255294 -1.29023,0.358286 -1.27543,0.359535 -1.69239,-0.142872 z m 0.58683,-4.383889 c -0.12772,-0.338011 -0.31708,-1.120317 -0.4208,-1.738461 -0.15394,-0.91739 -0.10764,-1.154959 0.25196,-1.29295 0.72076,-0.276582 1.19619,0.485024 1.26319,2.023544 0.0514,1.180883 -0.0188,1.449017 -0.39988,1.527382 -0.29302,0.06025 -0.54726,-0.129937 -0.69447,-0.519515 z M 89.853987,55.887986 c -0.343655,-0.556043 0.224133,-0.9882 1.645851,-1.252694 0.832916,-0.154953 1.669065,-0.224536 1.85811,-0.154625 0.527886,0.195218 0.257229,0.934588 -0.478353,1.306751 -0.76366,0.386368 -2.806999,0.454287 -3.025608,0.100568 z m 5.4902,-1.252762 c -0.235249,-0.613048 0.508862,-1.074666 2.080825,-1.290865 2.329783,-0.320429 2.406806,0.849717 0.09426,1.432022 -1.577324,0.397174 -1.978502,0.371139 -2.175088,-0.141157 z m 5.352163,-1.137465 c -0.32494,-0.525775 0.37971,-1.034061 1.8594,-1.341247 1.56425,-0.324734 1.96786,-0.218102 1.96786,0.519906 0,0.584544 -0.27519,0.703575 -2.1755,0.941004 -0.99457,0.124261 -1.52474,0.08585 -1.65176,-0.119663 z m 5.50256,-1.22604 c -0.23874,-0.622149 0.40776,-1.069054 1.97272,-1.363691 1.22831,-0.231251 1.42946,-0.206611 1.64809,0.20189 0.32211,0.601877 -0.0444,0.886613 -1.64297,1.276421 -1.61381,0.393526 -1.78669,0.383506 -1.97784,-0.11462 z m 5.37297,-1.301874 c -0.22808,-0.594357 0.86412,-1.174938 2.35933,-1.254149 1.13545,-0.06015 1.30802,-0.0026 1.30802,0.436266 0,0.929601 -3.33875,1.674199 -3.66735,0.817883 z m 5.4773,-1.073251 c -0.26271,-0.684604 0.10944,-1.098071 1.14394,-1.270944 0.55817,-0.09327 1.27256,-0.240406 1.58752,-0.326959 0.41383,-0.113721 0.65607,-0.0016 0.87341,0.40459 0.26879,0.502245 0.20795,0.599525 -0.57266,0.915541 -1.45285,0.58816 -2.86351,0.717388 -3.03221,0.277772 z m 5.3895,-1.440553 c -0.16469,-0.629764 -0.16076,-0.632439 1.56402,-1.065546 1.51512,-0.380457 2.29871,-0.217241 2.16984,0.451959 -0.0553,0.286933 -0.55888,0.569182 -1.40862,0.789445 -1.80266,0.467273 -2.16421,0.439928 -2.32524,-0.175858 z m 5.63816,-0.790726 c -0.17708,-0.109444 -0.27933,-0.420364 -0.22723,-0.690935 0.0697,-0.361693 0.509,-0.583848 1.65937,-0.839055 1.36437,-0.302686 1.61657,-0.295166 1.97047,0.05874 0.29904,0.29904 0.32803,0.483671 0.11015,0.701553 -0.41623,0.416224 -3.12451,1.00965 -3.51276,0.769699 z m 5.33238,-1.403037 c -0.46548,-0.560869 0.0696,-1.016336 1.61625,-1.375876 1.50393,-0.349602 2.04189,-0.195178 2.04189,0.586131 0,0.68679 -3.17477,1.37218 -3.65814,0.789745 z m 34.86736,-0.879729 c -0.14469,-0.38059 -0.29058,-1.243793 -0.32418,-1.918229 -0.0533,-1.070227 0.006,-1.226252 0.46808,-1.226252 0.42579,0 0.59957,0.296519 0.88956,1.517825 0.19821,0.834803 0.29125,1.698006 0.20674,1.918229 -0.24301,0.63328 -0.95193,0.466611 -1.2402,-0.291573 z M 138.7554,44.896573 c -0.24352,-0.634582 0.10008,-0.887918 1.63701,-1.206982 1.10471,-0.229338 1.554,-0.22896 1.83174,0.0016 0.5902,0.489825 0.18674,0.984596 -1.05862,1.29818 -1.55964,0.392721 -2.2338,0.366779 -2.41013,-0.09274 z m 5.57242,-1.071005 c -0.49959,-0.386058 -0.50018,-0.407262 -0.0214,-0.778073 0.5692,-0.440878 3.00789,-1.017342 3.36642,-0.795761 0.54138,0.334592 0.23641,1.168202 -0.48513,1.326084 -0.40019,0.08756 -1.0728,0.268428 -1.49469,0.401918 -0.42191,0.133487 -0.78611,0.242707 -0.80934,0.242707 -0.0232,0 -0.27335,-0.178593 -0.55583,-0.396875 z m 5.25595,-1.361178 c -0.23558,-0.613918 0.50939,-1.074737 2.08856,-1.291931 0.9598,-0.132006 1.39324,-0.08918 1.54256,0.152432 0.3793,0.613722 -0.037,1.007856 -1.36557,1.292778 -1.76366,0.378237 -2.06953,0.357544 -2.26555,-0.153279 z m 5.51783,-1.428295 c 0.0732,-0.505528 0.35193,-0.68563 1.51587,-0.979564 1.53197,-0.386876 2.14572,-0.304284 2.14572,0.288753 0,0.63703 -0.69853,0.995148 -2.25426,1.155713 -1.45482,0.150151 -1.49452,0.137039 -1.40733,-0.464902 z m 5.33794,-0.932479 c -0.23411,-0.610076 0.21756,-0.925946 1.87491,-1.311211 1.36202,-0.316611 1.5027,-0.305784 1.73793,0.133739 0.33408,0.624245 -0.0706,0.955847 -1.59544,1.307227 -1.59626,0.367845 -1.83228,0.352665 -2.0174,-0.129755 z m 6.52573,-0.246798 c -0.13831,-0.363802 -0.4413,-0.661458 -0.67331,-0.661458 -0.28521,0 -0.39444,-0.191079 -0.33728,-0.589989 0.10001,-0.697854 1.37499,-1.268114 1.82627,-0.816832 0.34519,0.345194 0.72731,1.942063 0.57406,2.399009 -0.19676,0.586676 -1.12492,0.365791 -1.38974,-0.33073 z m -6.87917,30.020374 c 3.85631,-0.878176 8.08303,-1.822881 9.39271,-2.09935 2.75868,-0.58234 7.48522,-1.648161 10.71563,-2.416344 3.73882,-0.889082 5.54729,-2.343203 5.55965,-4.470305 0.007,-1.218385 -1.12247,-6.35 -1.39774,-6.35 -0.11783,0 -0.66886,0.231929 -1.2245,0.515395 -0.55565,0.28347 -2.3666,0.830922 -4.02436,1.216563 -5.44071,1.265663 -10.57242,2.45197 -18.32513,4.236249 -4.20097,0.966851 -8.02775,1.920705 -8.50395,2.119677 -1.13064,0.472408 -2.42927,1.787546 -2.91644,2.953496 -0.39631,0.948497 -0.47737,3.136866 -0.15838,4.275818 0.22245,0.794292 1.71845,1.616239 2.94089,1.615808 0.51159,-1.8e-4 4.08532,-0.718834 7.94162,-1.597007 z"
         id="path58465" />
      <path
         style="fill:#874b01;stroke-width:0.264583"
         d="m 96.850688,105.94404 c -0.829497,-0.31169 -1.874458,-1.20156 -2.239169,-1.90684 -0.323962,-0.62646 -2.860623,-11.69202 -9.799789,-42.749132 -0.780337,-3.4925 -2.034013,-9.082587 -2.785945,-12.422415 -1.120966,-4.978945 -1.348994,-6.408264 -1.266321,-7.9375 0.118561,-2.193081 0.984108,-4.291914 2.429946,-5.892284 1.86838,-2.068073 2.963739,-2.434166 16.020123,-5.354285 7.392747,-1.653421 12.233807,-2.859768 12.581867,-3.135281 0.31115,-0.246301 6.07144,-5.091255 12.80065,-10.766568 6.7292,-5.675312 12.5104,-10.4251506 12.84712,-10.5551959 1.20916,-0.4670018 1.82576,0.025575 5.4311,4.3387372 1.95467,2.3384277 3.68108,4.2011957 3.83646,4.1394837 0.15537,-0.06171 1.16999,-0.661435 2.25471,-1.332719 3.00173,-1.85764 3.3922,-1.719718 5.70214,2.0141 0.83497,1.34966 1.5342,2.474558 1.55384,2.499773 0.0196,0.02521 1.52322,-0.30015 3.34127,-0.723032 1.81804,-0.422883 3.7118,-0.770935 4.20834,-0.77345 1.21256,-0.0061 2.99099,1.077608 3.54267,2.158861 0.24675,0.483601 0.93214,3.081932 1.52309,5.774067 0.59096,2.692135 1.13495,5.10327 1.20888,5.358074 0.10756,0.370674 0.32918,0.433793 1.1087,0.315752 1.83343,-0.277633 4.53806,1.759532 4.5502,3.42728 0.007,0.936582 0.34205,1.176605 2.02085,1.446969 3.21653,0.518007 6.57361,2.967477 7.76588,5.666325 0.78784,1.783387 4.76131,19.993856 4.76131,21.821185 0,1.841531 -0.48875,3.404012 -1.46527,4.684286 -0.77527,1.016437 -2.7854,2.39267 -3.89505,2.666751 -0.40156,0.09918 -0.78127,0.263123 -0.84381,0.364313 -0.0625,0.10119 0.5305,3.034797 1.31786,6.519127 0.78736,3.48433 1.43497,6.883085 1.43913,7.552791 0.008,1.32938 -0.67884,2.609371 -1.84453,3.436217 -0.40023,0.283896 -4.94556,1.425568 -11.50938,2.890872 -12.14318,2.710842 -30.48919,6.816829 -42.06875,9.415331 -33.958417,7.620407 -33.358719,7.497817 -34.528122,7.058407 z m 6.235252,-5.24434 c 2.31869,-0.51554 6.23985,-1.398031 8.71371,-1.961102 9.0639,-2.063025 14.14328,-3.205702 19.44687,-4.374848 6.27681,-1.383684 14.0926,-3.132987 24.20938,-5.418455 3.92906,-0.887611 11.48953,-2.576999 16.80104,-3.754199 5.31151,-1.1772 9.76085,-2.23515 9.88743,-2.351001 0.12816,-0.1173 -0.37011,-2.896886 -1.12448,-6.272858 -0.74504,-3.334223 -1.35462,-6.128808 -1.35462,-6.210194 0,-0.149127 -1.75763,0.208613 -8.06979,1.642496 -18.18505,4.130948 -17.62979,4.021641 -19.87239,3.912003 -3.45761,-0.16904 -5.96384,-1.642621 -8.07092,-4.74543 -0.5746,-0.846142 -1.3841,-1.713933 -1.79888,-1.928426 -0.97136,-0.502306 -1.9949,-1.727546 -2.84561,-3.406346 -0.53986,-1.065348 -0.6762,-1.720215 -0.6762,-3.247726 0,-3.633735 2.09056,-6.529946 5.50565,-7.627398 1.25031,-0.401791 13.9205,-3.345354 21.22659,-4.931405 1.93732,-0.420565 3.63396,-0.833612 3.77031,-0.917881 0.13635,-0.08427 0.24791,-0.443847 0.24791,-0.799061 0,-0.840771 1.03717,-0.916194 1.25294,-0.09111 0.12093,0.46246 0.28185,0.52763 0.96742,0.391801 1.43007,-0.283337 3.07131,-1.005782 3.07131,-1.351942 0,-0.495522 -2.92009,-13.450789 -3.06428,-13.594979 -0.068,-0.06805 -3.24619,0.572513 -7.06254,1.423469 -3.81635,0.850958 -7.89131,1.753446 -9.05548,2.005536 -1.16416,0.252087 -3.72401,0.82164 -5.68854,1.265671 -1.96453,0.444032 -6.01265,1.359004 -8.99583,2.033265 -2.98318,0.674264 -6.43599,1.448641 -7.67292,1.720837 -1.23693,0.272198 -7.54724,1.684779 -14.02291,3.139072 -6.47568,1.454293 -15.28631,3.43271 -19.579172,4.396483 -6.659555,1.495108 -8.106164,1.74025 -9.855588,1.670122 -1.12771,-0.0452 -2.050444,-0.191331 -2.050521,-0.324726 -7.7e-5,-0.133392 -0.06002,-0.18265 -0.133217,-0.109458 -0.07319,0.07319 1.009779,5.242489 2.406602,11.487327 1.396823,6.244836 2.697225,12.068625 2.889782,12.94175 1.229783,5.57629 4.181415,18.783692 4.493874,20.108333 0.205954,0.873125 0.566005,2.480469 0.800113,3.571875 0.530967,2.475355 0.586565,2.645835 0.862886,2.645835 0.123359,0 2.121391,-0.4218 4.440071,-0.93733 z m -4.533684,-3.115796 c -0.25534,-0.665406 0.06096,-0.915967 1.587524,-1.257599 1.5626,-0.349695 2.26716,-0.220983 2.26716,0.414176 0,0.477938 -0.94141,0.885626 -2.556075,1.106942 -0.892782,0.12237 -1.172295,0.06565 -1.298609,-0.263519 z m 5.484794,-1.524865 c 0.0749,-0.525362 0.33002,-0.683824 1.54489,-0.959446 1.67868,-0.380849 2.11667,-0.294891 2.11667,0.415407 0,0.610936 -0.38074,0.777195 -2.29501,1.00218 -1.42148,0.167069 -1.4541,0.156134 -1.36655,-0.458141 z m 5.42544,-0.683819 c -0.68722,-0.687223 0.83329,-1.675693 2.57763,-1.675693 1.80236,0 1.51355,1.101984 -0.40488,1.544812 -1.53001,0.353168 -1.92657,0.377058 -2.17275,0.130881 z m 5.37986,-1.648155 c 0,-0.666197 0.80449,-1.044062 2.44404,-1.147951 0.86141,-0.05458 1.12853,0.02888 1.20006,0.374957 0.11965,0.578948 -0.58085,0.936443 -2.27541,1.161233 -1.28104,0.169936 -1.36869,0.145073 -1.36869,-0.388239 z m 5.60996,-0.873419 c -0.5663,-0.566301 -0.34021,-0.980321 0.6739,-1.234054 2.20583,-0.551907 2.38509,-0.562901 2.7141,-0.166465 0.46642,0.561993 -0.0464,1.090348 -1.26832,1.306788 -0.54052,0.09574 -1.16695,0.227613 -1.39208,0.293047 -0.22512,0.06543 -0.55255,-0.02426 -0.7276,-0.199316 z m 5.42787,-1.16907 c -0.10445,-0.104452 -0.18991,-0.399751 -0.18991,-0.656222 0,-0.352838 0.35804,-0.540639 1.47136,-0.771763 0.80924,-0.168 1.64268,-0.239707 1.85208,-0.159353 0.5822,0.223411 0.45307,0.942223 -0.21458,1.194451 -0.96045,0.362836 -2.71309,0.598741 -2.91895,0.392887 z m 5.23829,-1.417772 c -0.29713,-0.480772 0.36727,-0.9578 1.82395,-1.309563 1.10751,-0.267449 1.35965,-0.253056 1.71034,0.09763 0.36115,0.361157 0.36407,0.458526 0.0239,0.798328 -0.52516,0.524592 -3.2909,0.846084 -3.55818,0.413607 z m 5.59611,-0.977 c -0.52804,-0.52804 -0.11434,-1.099331 0.9991,-1.379702 1.89895,-0.47816 2.58071,-0.400333 2.48093,0.283218 -0.0656,0.449659 -0.38044,0.65564 -1.40746,0.920938 -1.52307,0.39343 -1.8288,0.419325 -2.07257,0.175546 z m 5.22866,-1.497248 c -0.25551,-0.665859 0.0349,-0.875216 1.70622,-1.229887 1.62043,-0.343879 2.14914,-0.246385 2.14914,0.396288 0,0.520007 -0.7384,0.85907 -2.33093,1.070327 -1.11115,0.147399 -1.39387,0.103497 -1.52443,-0.236728 z m 5.61444,-0.88882 c -0.0944,-0.09436 -0.17158,-0.385263 -0.17158,-0.646441 0,-0.337132 0.32617,-0.558363 1.12448,-0.762717 0.61847,-0.158314 1.27331,-0.337759 1.45521,-0.398769 0.55112,-0.184841 1.12448,0.164089 1.12448,0.684326 0,0.476239 -0.32935,0.616863 -2.6727,1.141166 -0.37858,0.0847 -0.76553,0.0768 -0.85989,-0.01757 z m 5.32903,-1.448047 c -0.25204,-0.683312 0.10074,-0.988721 1.50514,-1.303012 1.55088,-0.347072 2.25467,-0.216916 2.25467,0.416971 0,0.748646 -3.50576,1.574821 -3.75981,0.886041 z m 5.61515,-1.014568 c -0.17595,-0.108741 -0.27728,-0.419039 -0.22518,-0.689549 0.0683,-0.354846 0.49932,-0.583909 1.54738,-0.822399 1.68568,-0.383583 2.11413,-0.29581 2.11413,0.433101 0,0.513612 -0.26431,0.632664 -2.5504,1.148774 -0.31131,0.07028 -0.70998,0.03882 -0.88593,-0.06993 z m 5.17003,-1.516385 c -0.10742,-0.279935 -0.008,-0.577951 0.25674,-0.771737 0.52827,-0.386284 2.90205,-0.738717 3.30368,-0.490495 0.63528,0.392626 0.0885,1.009883 -1.19308,1.346972 -1.77531,0.466934 -2.16094,0.453131 -2.36734,-0.08474 z m 5.45266,-1.422993 c 0.0743,-0.525497 0.33368,-0.69414 1.50988,-0.981599 1.61827,-0.395496 2.15168,-0.285734 2.15168,0.442772 0,0.610936 -0.38074,0.777195 -2.29501,1.002181 -1.42435,0.167405 -1.45428,0.157261 -1.36655,-0.463354 z m 5.48988,-0.927722 c -0.30004,-0.361527 -0.27742,-0.480875 0.15046,-0.79375 0.27698,-0.202536 0.59189,-0.368244 0.69979,-0.368244 0.1079,0 0.27396,-0.245065 0.36903,-0.544592 0.11742,-0.369951 0.35646,-0.518433 0.74543,-0.463021 0.45042,0.06417 0.5899,0.289737 0.65372,1.057185 0.0771,0.927418 0.0314,0.989431 -0.92604,1.255294 -1.29023,0.358286 -1.27543,0.359535 -1.69239,-0.142872 z m 0.58683,-4.383889 c -0.12772,-0.338011 -0.31708,-1.120317 -0.4208,-1.738461 -0.15394,-0.91739 -0.10764,-1.154959 0.25196,-1.29295 0.72076,-0.276582 1.19619,0.485024 1.26319,2.023544 0.0514,1.180883 -0.0188,1.449017 -0.39988,1.527382 -0.29302,0.06025 -0.54726,-0.129937 -0.69447,-0.519515 z M 89.853987,55.887986 c -0.343655,-0.556043 0.224133,-0.9882 1.645851,-1.252694 0.832916,-0.154953 1.669065,-0.224536 1.85811,-0.154625 0.527886,0.195218 0.257229,0.934588 -0.478353,1.306751 -0.76366,0.386368 -2.806999,0.454287 -3.025608,0.100568 z m 5.4902,-1.252762 c -0.235249,-0.613048 0.508862,-1.074666 2.080825,-1.290865 2.329783,-0.320429 2.406806,0.849717 0.09426,1.432022 -1.577324,0.397174 -1.978502,0.371139 -2.175088,-0.141157 z m 5.352163,-1.137465 c -0.32494,-0.525775 0.37971,-1.034061 1.8594,-1.341247 1.56425,-0.324734 1.96786,-0.218102 1.96786,0.519906 0,0.584544 -0.27519,0.703575 -2.1755,0.941004 -0.99457,0.124261 -1.52474,0.08585 -1.65176,-0.119663 z m 5.50256,-1.22604 c -0.23874,-0.622149 0.40776,-1.069054 1.97272,-1.363691 1.22831,-0.231251 1.42946,-0.206611 1.64809,0.20189 0.32211,0.601877 -0.0444,0.886613 -1.64297,1.276421 -1.61381,0.393526 -1.78669,0.383506 -1.97784,-0.11462 z m 5.37297,-1.301874 c -0.22808,-0.594357 0.86412,-1.174938 2.35933,-1.254149 1.13545,-0.06015 1.30802,-0.0026 1.30802,0.436266 0,0.929601 -3.33875,1.674199 -3.66735,0.817883 z m 5.4773,-1.073251 c -0.26271,-0.684604 0.10944,-1.098071 1.14394,-1.270944 0.55817,-0.09327 1.27256,-0.240406 1.58752,-0.326959 0.41383,-0.113721 0.65607,-0.0016 0.87341,0.40459 0.26879,0.502245 0.20795,0.599525 -0.57266,0.915541 -1.45285,0.58816 -2.86351,0.717388 -3.03221,0.277772 z m 5.3895,-1.440553 c -0.16469,-0.629764 -0.16076,-0.632439 1.56402,-1.065546 1.51512,-0.380457 2.29871,-0.217241 2.16984,0.451959 -0.0553,0.286933 -0.55888,0.569182 -1.40862,0.789445 -1.80266,0.467273 -2.16421,0.439928 -2.32524,-0.175858 z m 5.63816,-0.790726 c -0.17708,-0.109444 -0.27933,-0.420364 -0.22723,-0.690935 0.0697,-0.361693 0.509,-0.583848 1.65937,-0.839055 1.36437,-0.302686 1.61657,-0.295166 1.97047,0.05874 0.29904,0.29904 0.32803,0.483671 0.11015,0.701553 -0.41623,0.416224 -3.12451,1.00965 -3.51276,0.769699 z m 5.33238,-1.403037 c -0.46548,-0.560869 0.0696,-1.016336 1.61625,-1.375876 1.50393,-0.349602 2.04189,-0.195178 2.04189,0.586131 0,0.68679 -3.17477,1.37218 -3.65814,0.789745 z m 34.86736,-0.879729 c -0.14469,-0.38059 -0.29058,-1.243793 -0.32418,-1.918229 -0.0533,-1.070227 0.006,-1.226252 0.46808,-1.226252 0.42579,0 0.59957,0.296519 0.88956,1.517825 0.19821,0.834803 0.29125,1.698006 0.20674,1.918229 -0.24301,0.63328 -0.95193,0.466611 -1.2402,-0.291573 z M 138.7554,44.896573 c -0.24352,-0.634582 0.10008,-0.887918 1.63701,-1.206982 1.10471,-0.229338 1.554,-0.22896 1.83174,0.0016 0.5902,0.489825 0.18674,0.984596 -1.05862,1.29818 -1.55964,0.392721 -2.2338,0.366779 -2.41013,-0.09274 z m 5.57242,-1.071005 c -0.49959,-0.386058 -0.50018,-0.407262 -0.0214,-0.778073 0.5692,-0.440878 3.00789,-1.017342 3.36642,-0.795761 0.54138,0.334592 0.23641,1.168202 -0.48513,1.326084 -0.40019,0.08756 -1.0728,0.268428 -1.49469,0.401918 -0.42191,0.133487 -0.78611,0.242707 -0.80934,0.242707 -0.0232,0 -0.27335,-0.178593 -0.55583,-0.396875 z m 5.25595,-1.361178 c -0.23558,-0.613918 0.50939,-1.074737 2.08856,-1.291931 0.9598,-0.132006 1.39324,-0.08918 1.54256,0.152432 0.3793,0.613722 -0.037,1.007856 -1.36557,1.292778 -1.76366,0.378237 -2.06953,0.357544 -2.26555,-0.153279 z m 5.51783,-1.428295 c 0.0732,-0.505528 0.35193,-0.68563 1.51587,-0.979564 1.53197,-0.386876 2.14572,-0.304284 2.14572,0.288753 0,0.63703 -0.69853,0.995148 -2.25426,1.155713 -1.45482,0.150151 -1.49452,0.137039 -1.40733,-0.464902 z m 5.33794,-0.932479 c -0.23411,-0.610076 0.21756,-0.925946 1.87491,-1.311211 1.36202,-0.316611 1.5027,-0.305784 1.73793,0.133739 0.33408,0.624245 -0.0706,0.955847 -1.59544,1.307227 -1.59626,0.367845 -1.83228,0.352665 -2.0174,-0.129755 z m 6.52573,-0.246798 c -0.13831,-0.363802 -0.4413,-0.661458 -0.67331,-0.661458 -0.28521,0 -0.39444,-0.191079 -0.33728,-0.589989 0.10001,-0.697854 1.37499,-1.268114 1.82627,-0.816832 0.34519,0.345194 0.72731,1.942063 0.57406,2.399009 -0.19676,0.586676 -1.12492,0.365791 -1.38974,-0.33073 z m -6.87917,30.020374 c 3.85631,-0.878176 8.08303,-1.822881 9.39271,-2.09935 2.75868,-0.58234 7.48522,-1.648161 10.71563,-2.416344 3.73882,-0.889082 5.54729,-2.343203 5.55965,-4.470305 0.007,-1.218385 -1.12247,-6.35 -1.39774,-6.35 -0.11783,0 -0.66886,0.231929 -1.2245,0.515395 -0.55565,0.28347 -2.3666,0.830922 -4.02436,1.216563 -5.44071,1.265663 -10.57242,2.45197 -18.32513,4.236249 -4.20097,0.966851 -8.02775,1.920705 -8.50395,2.119677 -1.13064,0.472408 -2.42927,1.787546 -2.91644,2.953496 -0.39631,0.948497 -0.47737,3.136866 -0.15838,4.275818 0.22245,0.794292 1.71845,1.616239 2.94089,1.615808 0.51159,-1.8e-4 4.08532,-0.718834 7.94162,-1.597007 z M 135.4426,30.42446 c 1.69398,-1.040453 4.2983,-2.647797 5.78739,-3.571875 1.48908,-0.924079 2.79877,-1.677438 2.91041,-1.674133 0.11165,0.0033 0.39176,0.390258 0.62248,0.859896 0.23364,0.475583 0.98689,1.205547 1.70019,1.647637 1.67951,1.040918 3.96453,1.114171 5.4829,0.175765 0.5427,-0.335409 1.089,-0.546629 1.214,-0.469376 0.12499,0.07725 0.84946,1.155049 1.60992,2.395106 0.76046,1.240058 1.49253,2.322555 1.62682,2.405552 0.21126,0.130564 3.40045,-0.35607 3.64674,-0.556453 0.0493,-0.04011 -0.73833,-1.421656 -1.75031,-3.070095 -3.71454,-6.050743 -7.26447,-11.734148 -7.46135,-11.945533 -0.11122,-0.119415 -0.72363,0.13168 -1.36093,0.557987 -0.63729,0.426307 -2.23028,1.43158 -3.53996,2.233939 -2.01159,1.232363 -14.31454,8.874527 -17.72709,11.011442 l -1.05833,0.662721 1.85208,0.587142 c 2.82816,0.896572 3.00712,0.86187 6.44504,-1.249722 z m 12.30262,-5.14023 c -0.89164,-1.36081 0.67047,-3.209526 2.08322,-2.465441 0.77839,0.409967 0.98824,0.744863 0.9932,1.585042 0.009,1.537576 -2.22661,2.177376 -3.07642,0.880399 z m -18.16319,-3.883501 c 1.4248,-1.169787 2.78185,-2.291013 3.01569,-2.491616 0.37171,-0.318883 0.56174,-0.22814 1.51177,0.721881 0.70021,0.70022 1.20762,1.014108 1.42692,0.882719 0.91688,-0.549333 7.23231,-4.434093 7.31886,-4.501987 0.0547,-0.04287 -1.06546,-1.458471 -2.48913,-3.145769 -1.42368,-1.687298 -2.65902,-2.9666281 -2.74521,-2.842955 -0.0862,0.123672 -3.19279,2.766084 -6.90358,5.872025 -3.71078,3.105942 -6.96372,5.850694 -7.22876,6.099448 -0.46065,0.43235 -0.42015,0.474474 0.91906,0.955889 0.77052,0.276982 1.6671,0.520176 1.9924,0.540427 0.38219,0.02379 1.50799,-0.715676 3.18198,-2.090062 z m 6.85955,-3.655822 c -1.33923,-1.053434 -0.64343,-2.891214 1.09463,-2.891214 0.8803,0 1.64781,0.772445 1.64781,1.658398 0,0.569827 -1.13716,1.781186 -1.67208,1.781186 -0.20527,0 -0.68694,-0.246767 -1.07036,-0.54837 z"
         id="path58463" />
      <path
         style="fill:#774c0b;stroke-width:0.264583"
         d="m 96.850688,105.94404 c -0.829497,-0.31169 -1.874458,-1.20156 -2.239169,-1.90684 -0.323962,-0.62646 -2.860623,-11.69202 -9.799789,-42.749132 -0.780337,-3.4925 -2.034013,-9.082587 -2.785945,-12.422415 -1.120966,-4.978945 -1.348994,-6.408264 -1.266321,-7.9375 0.118561,-2.193081 0.984108,-4.291914 2.429946,-5.892284 1.86838,-2.068073 2.963739,-2.434166 16.020123,-5.354285 7.392747,-1.653421 12.233807,-2.859768 12.581867,-3.135281 0.31115,-0.246301 6.07144,-5.091255 12.80065,-10.766568 6.7292,-5.675312 12.5104,-10.4251506 12.84712,-10.5551959 1.20916,-0.4670018 1.82576,0.025575 5.4311,4.3387372 1.95467,2.3384277 3.68108,4.2011957 3.83646,4.1394837 0.15537,-0.06171 1.16999,-0.661435 2.25471,-1.332719 3.00173,-1.85764 3.3922,-1.719718 5.70214,2.0141 0.83497,1.34966 1.5342,2.474558 1.55384,2.499773 0.0196,0.02521 1.52322,-0.30015 3.34127,-0.723032 1.81804,-0.422883 3.7118,-0.770935 4.20834,-0.77345 1.21256,-0.0061 2.99099,1.077608 3.54267,2.158861 0.24675,0.483601 0.93214,3.081932 1.52309,5.774067 0.59096,2.692135 1.13495,5.10327 1.20888,5.358074 0.10756,0.370674 0.32918,0.433793 1.1087,0.315752 1.83343,-0.277633 4.53806,1.759532 4.5502,3.42728 0.007,0.936582 0.34205,1.176605 2.02085,1.446969 3.21653,0.518007 6.57361,2.967477 7.76588,5.666325 0.78784,1.783387 4.76131,19.993856 4.76131,21.821185 0,1.841531 -0.48875,3.404012 -1.46527,4.684286 -0.77527,1.016437 -2.7854,2.39267 -3.89505,2.666751 -0.40156,0.09918 -0.78127,0.263123 -0.84381,0.364313 -0.0625,0.10119 0.5305,3.034797 1.31786,6.519127 0.78736,3.48433 1.43497,6.883085 1.43913,7.552791 0.008,1.32938 -0.67884,2.609371 -1.84453,3.436217 -0.40023,0.283896 -4.94556,1.425568 -11.50938,2.890872 -12.14318,2.710842 -30.48919,6.816829 -42.06875,9.415331 -33.958417,7.620407 -33.358719,7.497817 -34.528122,7.058407 z m 3.885302,-4.69656 c 0.99178,-0.21425 3.64871,-0.81035 5.90428,-1.324678 6.28492,-1.433116 14.64021,-3.311824 17.72709,-3.98598 7.4984,-1.637609 22.65764,-5.021784 24.20937,-5.40454 1.01947,-0.251466 16.34152,-3.665649 19.05,-4.244875 0.7276,-0.155601 1.73964,-0.390673 2.24896,-0.522383 0.50932,-0.131709 1.9976,-0.474411 3.30729,-0.76156 1.30969,-0.28715 3.57188,-0.782775 5.02708,-1.101392 4.16224,-0.911318 3.97809,-0.816832 3.90831,-2.00533 -0.0333,-0.566229 -0.23979,-1.743882 -0.45899,-2.617007 -0.2192,-0.873125 -0.76038,-3.247279 -1.20261,-5.275895 -0.44223,-2.028618 -0.831,-3.71189 -0.86392,-3.740602 -0.0329,-0.02872 -2.32206,0.451427 -5.08695,1.066982 -2.7649,0.615553 -6.51537,1.444004 -8.33438,1.840998 -3.32635,0.725971 -5.82043,1.296122 -10.14628,2.319464 -6.3541,1.503151 -10.74921,-0.690131 -13.9481,-6.960486 -0.57732,-1.131634 -0.63625,-1.69186 -0.41394,-3.934836 0.16066,-1.620951 1.28634,-4.601633 1.62276,-4.296907 0.11893,0.107725 0.12872,0.04402 0.0218,-0.141566 -0.11983,-0.207923 0.14315,-0.675044 0.68519,-1.217083 0.48381,-0.483809 0.90022,-0.986809 0.92537,-1.117777 0.0251,-0.130969 0.25823,-0.357188 0.51799,-0.502709 0.25975,-0.14552 0.63458,-0.413356 0.83296,-0.595188 0.19837,-0.181832 0.82847,-0.405408 1.40023,-0.496837 0.57176,-0.09143 1.03774,-0.24031 1.03551,-0.330854 -0.0116,-0.470482 -0.4949,-0.826418 -0.94315,-0.694565 -0.29142,0.08573 -0.23465,0.0072 0.13315,-0.184222 0.50489,-0.262741 0.66422,-0.26448 0.74966,-0.0082 0.11823,0.3547 1.80568,0.454202 2.01304,0.118702 0.0703,-0.113723 0.52379,-0.233166 1.0078,-0.265427 1.36486,-0.09097 5.02436,-0.869524 5.90709,-1.256718 0.43656,-0.191489 1.80578,-0.525825 3.04271,-0.742966 1.23693,-0.217141 2.58413,-0.523703 2.99379,-0.681249 0.40965,-0.157549 1.13925,-0.286451 1.62133,-0.286451 0.48208,0 1.30394,-0.178594 1.82636,-0.396875 0.52242,-0.218281 1.34659,-0.396875 1.83148,-0.396875 0.48489,0 0.99473,-0.100748 1.13298,-0.223885 0.13824,-0.123137 1.11996,-0.381381 2.1816,-0.573873 2.02673,-0.367486 2.54705,-0.690436 1.7926,-1.112642 -0.42684,-0.238877 -0.42681,-0.271992 5.3e-4,-0.584499 0.54362,-0.397502 0.45233,-1.665407 -0.38234,-5.310309 -0.29992,-1.309688 -0.91109,-3.983305 -1.35817,-5.941373 -0.44708,-1.958064 -0.8684,-3.615647 -0.93626,-3.683516 -0.10807,-0.108063 -1.99551,0.275535 -11.62998,2.36364 -1.16416,0.252312 -5.62901,1.261568 -9.92187,2.242791 -4.29287,0.98122 -8.51958,1.934906 -9.39271,2.119296 -0.87312,0.184394 -2.18281,0.461013 -2.91042,0.614715 -0.7276,0.153701 -2.6326,0.586367 -4.23333,0.961477 -1.60073,0.375113 -4.2201,0.967216 -5.82083,1.315786 -1.60073,0.34857 -4.99401,1.104858 -7.54063,1.680639 -7.09527,1.604219 -23.829756,5.378037 -24.870831,5.608661 -3.926961,0.869913 -5.51812,0.989317 -7.107871,0.533382 -0.864547,-0.247949 -0.883686,-0.236395 -0.767123,0.46302 0.09901,0.59408 1.245266,5.660769 2.317162,10.242315 0.136184,0.582083 0.564852,2.487083 0.952596,4.233333 1.207184,5.436693 1.632493,7.341294 2.097452,9.392709 0.52889,2.333484 1.041349,4.638008 2.353426,10.583333 0.529898,2.401094 1.131776,5.08 1.337506,5.953125 0.20573,0.873125 0.748037,3.254375 1.205127,5.291667 1.002236,4.467055 0.972258,4.365615 1.29029,4.365615 0.140574,0 1.067046,-0.17529 2.058826,-0.38954 z m 10.35259,-6.670359 c 0.19099,-0.07643 0.4192,-0.06703 0.50712,0.02087 0.0879,0.08792 -0.0683,0.150453 -0.34727,0.138965 -0.30822,-0.0127 -0.37092,-0.07539 -0.15985,-0.159851 z m 54.28919,-12.358662 c 0,-0.05719 0.18478,-0.174889 0.41062,-0.261553 0.23546,-0.09035 0.34166,-0.046 0.24897,0.103984 -0.15538,0.251409 -0.65959,0.371858 -0.65959,0.157569 z M 140.63923,61.155777 c -0.0899,-0.145521 -0.0374,-0.264584 0.11668,-0.264584 0.15411,0 0.2802,0.119063 0.2802,0.264584 0,0.145521 -0.0525,0.264583 -0.11668,0.264583 -0.0642,0 -0.19026,-0.119062 -0.2802,-0.264583 z m 0.85395,-1.834597 c -0.19591,-0.749176 0.0603,-1.604987 0.48056,-1.604987 0.23545,0 0.31263,0.269605 0.24045,0.839944 -0.13517,1.067991 -0.53174,1.488792 -0.72101,0.765043 z m 2.31989,-2.929771 c -0.0906,-0.14655 0.0266,-0.339852 0.26039,-0.429562 0.50658,-0.194395 0.78891,0.01982 0.5454,0.413827 -0.21971,0.355489 -0.59132,0.362746 -0.80579,0.01574 z m 22.35845,-6.091852 c 0,-0.140954 0.1786,-0.25628 0.39688,-0.25628 0.21828,0 0.39687,0.04679 0.39687,0.103984 0,0.05719 -0.17859,0.172516 -0.39687,0.25628 -0.21828,0.08376 -0.39688,0.03697 -0.39688,-0.103984 z m 3.28364,-0.759311 c 0.54175,-0.598631 2.53719,-0.884794 2.53719,-0.363858 0,0.209579 -0.35137,0.337722 -0.92604,0.337722 -0.50932,0 -0.92604,0.119063 -0.92604,0.264583 0,0.145521 -0.25658,0.264584 -0.57017,0.264584 -0.54354,0 -0.54891,-0.0235 -0.11494,-0.503031 z m -50.77635,-0.02614 c -0.0899,-0.145521 0.0291,-0.264583 0.26459,-0.264583 0.23545,0 0.35452,0.119062 0.26458,0.264583 -0.0899,0.145521 -0.209,0.264583 -0.26458,0.264583 -0.0556,0 -0.17465,-0.119062 -0.26459,-0.264583 z m 53.57813,-0.529167 c 0,-0.14552 0.11906,-0.264583 0.26458,-0.264583 0.14552,0 0.26459,0.119063 0.26459,0.264583 0,0.145521 -0.11907,0.264584 -0.26459,0.264584 -0.14552,0 -0.26458,-0.119063 -0.26458,-0.264584 z m -3.96875,-5.159375 c -0.27492,-0.331258 -0.23791,-0.396875 0.22388,-0.396875 0.38309,0 0.50642,0.122074 0.40097,0.396875 -0.0838,0.218282 -0.18451,0.396875 -0.22389,0.396875 -0.0394,0 -0.2198,-0.178593 -0.40096,-0.396875 z m -13.24653,27.262037 c 1.32496,-0.348138 4.02156,-0.958072 11.26215,-2.547345 1.30969,-0.287469 2.88727,-0.637831 3.50573,-0.778578 0.61847,-0.140748 1.6305,-0.370338 2.24896,-0.510199 10.47274,-2.368344 10.79016,-2.455132 11.88795,-3.250367 1.12044,-0.811643 2.12493,-2.636776 1.93737,-3.520162 -0.94664,-4.458583 -1.34262,-5.910559 -1.75586,-6.438463 -0.27166,-0.347046 -0.49394,-0.846034 -0.49394,-1.108864 0,-0.262829 -0.10832,-0.544814 -0.24071,-0.626636 -0.36944,-0.228328 -1.08221,0.129119 -1.08221,0.542718 0,0.202711 -0.17859,0.368568 -0.39687,0.368568 -0.21828,0 -0.39688,0.132948 -0.39688,0.295441 0,0.167916 -0.23493,0.234006 -0.54428,0.153109 -0.47075,-0.123102 -0.49756,-0.08567 -0.19844,0.27704 0.3041,0.368755 0.28152,0.385117 -0.18708,0.135554 -0.39725,-0.211563 -0.65639,-0.19354 -1.0179,0.0708 -0.26674,0.195043 -0.62508,0.300863 -0.79631,0.235156 -0.17123,-0.06571 -0.9038,0.06024 -1.62793,0.279892 -0.72413,0.219647 -1.62021,0.400648 -1.99128,0.402225 -0.37108,0.0016 -0.8038,0.131966 -0.96159,0.289761 -0.15779,0.157795 -1.04481,0.352566 -1.97115,0.432827 -0.92633,0.08026 -2.00575,0.308343 -2.39871,0.506852 -0.39295,0.198509 -1.30977,0.360923 -2.03737,0.360923 -0.84004,0 -1.40014,0.132178 -1.5345,0.362117 -0.11637,0.199165 -1.04502,0.502814 -2.06366,0.674777 -1.63274,0.27563 -2.73044,0.55082 -4.10105,1.028123 -0.21828,0.07602 -0.81359,0.185772 -1.32291,0.243907 -0.50932,0.05813 -1.89482,0.336314 -3.07887,0.61818 -1.18406,0.281863 -2.46297,0.512479 -2.84203,0.512479 -0.38535,0 -0.82469,0.216953 -0.99652,0.492102 -0.24692,0.39538 -0.53338,0.466621 -1.45745,0.362465 -0.89868,-0.101295 -1.15013,-0.04379 -1.15013,0.263012 0,0.215958 -0.31339,0.730801 -0.69642,1.144096 -1.37491,1.483555 -1.8245,3.658015 -0.99978,4.835474 0.23127,0.330171 0.34918,0.78612 0.26203,1.01322 -0.2111,0.550119 1.25976,2.212649 2.47253,2.794717 1.17064,0.56185 2.83733,0.591608 4.76511,0.08508 z m -6.46493,-6.492245 c -0.0899,-0.145521 -0.0374,-0.264583 0.11668,-0.264583 0.15411,0 0.2802,0.119062 0.2802,0.264583 0,0.145521 -0.0525,0.264583 -0.11668,0.264583 -0.0642,0 -0.19026,-0.119062 -0.2802,-0.264583 z M 170.35525,56.7417 c 0.19099,-0.07643 0.4192,-0.06703 0.50711,0.02088 0.0879,0.08792 -0.0684,0.150453 -0.34726,0.138965 -0.30823,-0.0127 -0.37092,-0.07539 -0.15985,-0.159851 z m 10.06388,-9.410406 c -0.0347,-0.181902 0.19839,-0.890154 0.51798,-1.573898 0.31959,-0.683742 0.53021,-1.517179 0.46803,-1.852084 -0.0622,-0.334901 -0.12189,-0.867669 -0.13271,-1.183925 -0.0108,-0.316259 -0.31731,-0.928759 -0.68112,-1.361112 -0.3638,-0.432356 -0.66146,-0.977271 -0.66146,-1.210927 0,-0.257685 -0.22273,-0.424825 -0.56614,-0.424825 -0.31138,0 -0.71959,-0.20836 -0.90714,-0.463021 -0.32413,-0.440108 -0.35008,-0.439621 -0.52429,0.0099 -0.10081,0.260091 0.01,1.16087 0.24569,2.001734 0.23593,0.840862 0.42897,1.907633 0.42897,2.370603 0,0.883383 1.29739,4.018312 1.66298,4.018312 0.11676,0 0.18391,-0.148828 0.14921,-0.330729 z m -0.75386,-3.309792 c 0,-0.110517 0.24081,-0.35133 0.53514,-0.535139 0.49636,-0.30998 0.51092,-0.295418 0.20094,0.200938 -0.33298,0.533175 -0.73608,0.716195 -0.73608,0.334201 z m -90.487498,0.957537 c 0.363802,-0.295865 0.482864,-0.455006 0.264583,-0.353647 -0.218281,0.101359 -0.03969,-0.122153 0.396875,-0.496692 0.436563,-0.374539 0.883047,-0.685263 0.992187,-0.690496 0.109141,-0.0052 0.198438,-0.144489 0.198438,-0.30946 0,-0.376835 1.345074,-1.551381 1.777118,-1.551815 0.310226,-2.65e-4 1.121707,-0.700101 3.390418,-2.923757 0.586572,-0.574924 1.195727,-1.045316 1.353676,-1.045316 0.157951,0 0.928184,-0.592122 1.711632,-1.315826 0.783451,-0.723704 1.510011,-1.319017 1.614581,-1.322916 0.10457,-0.0039 0.12449,-0.178168 0.0443,-0.387261 -0.0802,-0.209092 -0.31564,-0.315026 -0.52312,-0.235407 -0.20748,0.07962 -1.001303,0.223684 -1.764045,0.320146 -1.087587,0.137546 -1.378975,0.273351 -1.350529,0.629435 0.01995,0.249727 -0.06688,0.390295 -0.192969,0.31237 -0.126083,-0.07792 -0.462602,-0.0168 -0.74782,0.135856 -0.344316,0.184271 -0.573676,0.188383 -0.682542,0.01222 -0.213376,-0.345238 -1.720233,-0.345865 -1.720233,-7.03e-4 0,0.145521 -0.186422,0.264583 -0.414269,0.264583 -0.227848,0 -0.674333,0.141338 -0.992188,0.314087 -0.317855,0.172746 -1.054168,0.35624 -1.636252,0.407765 -1.699926,0.150474 -2.714701,0.579403 -3.605762,1.524098 -0.458621,0.486227 -0.969698,0.831921 -1.135726,0.76821 -0.474386,-0.182039 -0.865493,2.471454 -0.550178,3.732715 0.214253,0.857012 0.369593,1.043329 0.816617,0.979456 0.434192,-0.06204 0.540543,0.05092 0.498209,0.529166 -0.06803,0.768528 0.560828,1.513171 1.147602,1.358903 0.246394,-0.06478 0.745645,-0.359852 1.109447,-0.655717 z m 3.850813,-7.347958 c -0.08204,-0.132744 0.02655,-0.215566 0.24131,-0.184047 0.566532,0.08315 0.834617,0.425405 0.333214,0.425405 -0.233947,0 -0.492483,-0.108611 -0.574524,-0.241358 z m 4.830827,-2.056048 c 0.190996,-0.07643 0.4192,-0.06703 0.507118,0.02088 0.08792,0.08792 -0.06835,0.150452 -0.347265,0.138964 -0.308225,-0.0127 -0.37092,-0.07539 -0.159853,-0.15985 z M 135.4426,30.42446 c 1.69398,-1.040453 4.2983,-2.647797 5.78739,-3.571875 1.48908,-0.924079 2.79877,-1.677438 2.91041,-1.674133 0.11165,0.0033 0.39176,0.390258 0.62248,0.859896 0.23364,0.475583 0.98689,1.205547 1.70019,1.647637 1.67951,1.040918 3.96453,1.114171 5.4829,0.175765 0.5427,-0.335409 1.089,-0.546629 1.214,-0.469376 0.12499,0.07725 0.84946,1.155049 1.60992,2.395106 0.76046,1.240058 1.49253,2.322555 1.62682,2.405552 0.21126,0.130564 3.40045,-0.35607 3.64674,-0.556453 0.0493,-0.04011 -0.73833,-1.421656 -1.75031,-3.070095 -3.71454,-6.050743 -7.26447,-11.734148 -7.46135,-11.945533 -0.11122,-0.119415 -0.72363,0.13168 -1.36093,0.557987 -0.63729,0.426307 -2.23028,1.43158 -3.53996,2.233939 -2.01159,1.232363 -14.31454,8.874527 -17.72709,11.011442 l -1.05833,0.662721 1.85208,0.587142 c 2.82816,0.896572 3.00712,0.86187 6.44504,-1.249722 z m 12.30262,-5.14023 c -0.89164,-1.36081 0.67047,-3.209526 2.08322,-2.465441 0.77839,0.409967 0.98824,0.744863 0.9932,1.585042 0.009,1.537576 -2.22661,2.177376 -3.07642,0.880399 z m 16.98347,4.14157 c -0.0831,-0.134506 0.0502,-0.283334 0.29622,-0.330729 0.41657,-0.08024 0.41563,-0.117903 -0.0136,-0.547161 -0.25354,-0.253545 -0.38505,-0.583872 -0.29223,-0.73406 0.0928,-0.150188 0.0884,-0.639117 -0.01,-1.086514 -0.12982,-0.591074 -0.25814,-0.733967 -0.4694,-0.522711 -0.36586,0.365863 -1.06753,0.384024 -0.84369,0.02183 0.0914,-0.147894 0.27703,-0.2004 0.41249,-0.116676 0.40724,0.251688 0.42188,-2.913639 0.0158,-3.419506 -0.13066,-0.162777 -0.31839,-0.674167 -0.41717,-1.13642 -0.17413,-0.814911 -0.21924,-0.839039 -1.48369,-0.79375 -0.71725,0.02569 -1.30503,0.136006 -1.30616,0.245147 -10e-4,0.109141 -0.18066,0.198437 -0.39894,0.198437 -0.55641,0 -0.49695,0.351611 0.25526,1.509604 0.937,1.442469 1.55425,2.17034 1.74206,2.05427 0.0899,-0.05556 0.18075,0.04258 0.20192,0.218078 0.0212,0.175498 0.0708,0.560356 0.11024,0.855236 0.0395,0.294881 0.34976,0.830662 0.68953,1.190625 0.66292,0.702316 1.48045,2.109687 1.2255,2.109687 -0.0851,0 -0.0811,0.119063 0.009,0.264584 0.0899,0.145521 0.22305,0.264583 0.29581,0.264583 0.0728,0 0.0643,-0.110051 -0.0189,-0.24456 z m -2.34953,-6.017246 c -0.36422,-0.364215 -0.15712,-0.881944 0.35278,-0.881944 0.35278,0 0.52916,0.17639 0.52916,0.529167 0,0.509902 -0.51772,0.716994 -0.88194,0.352777 z m -32.79713,-2.007825 c 1.4248,-1.169787 2.78185,-2.291013 3.01569,-2.491616 0.37171,-0.318883 0.56174,-0.22814 1.51177,0.721881 0.70021,0.70022 1.20762,1.014108 1.42692,0.882719 0.91688,-0.549333 7.23231,-4.434093 7.31886,-4.501987 0.0547,-0.04287 -1.06546,-1.458471 -2.48913,-3.145769 -1.42368,-1.687298 -2.65902,-2.9666281 -2.74521,-2.842955 -0.0862,0.123672 -3.19279,2.766084 -6.90358,5.872025 -3.71078,3.105942 -6.96372,5.850694 -7.22876,6.099448 -0.46065,0.43235 -0.42015,0.474474 0.91906,0.955889 0.77052,0.276982 1.6671,0.520176 1.9924,0.540427 0.38219,0.02379 1.50799,-0.715676 3.18198,-2.090062 z m 6.85955,-3.655822 c -1.33923,-1.053434 -0.64343,-2.891214 1.09463,-2.891214 0.8803,0 1.64781,0.772445 1.64781,1.658398 0,0.569827 -1.13716,1.781186 -1.67208,1.781186 -0.20527,0 -0.68694,-0.246767 -1.07036,-0.54837 z"
         id="path58461" />
      <path
         style="fill:#286b1a;stroke-width:0.264583"
         d="m 96.850688,105.94404 c -0.828174,-0.3112 -1.874202,-1.20106 -2.237377,-1.90337 -0.20752,-0.4013 -1.881459,-7.446364 -3.719865,-15.655702 C 86.835255,70.263254 84.383645,59.333986 82.290905,50.034871 80.530303,42.21161 80.390541,40.60116 81.268555,38.254459 c 1.281106,-3.424063 3.953009,-5.469334 8.394353,-6.425652 11.598692,-2.497455 21.640712,-4.896003 22.138952,-5.287915 0.31988,-0.251619 6.08114,-5.097534 12.80281,-10.768698 6.72167,-5.671165 12.49695,-10.4176096 12.83396,-10.5476549 1.21067,-0.4671732 1.82529,0.024154 5.41515,4.3289021 1.94562,2.3330558 3.61249,4.2392998 3.70417,4.2360988 0.0917,-0.0032 1.1173,-0.598513 2.27915,-1.322916 1.16186,-0.724404 2.35576,-1.317097 2.65311,-1.317097 0.92154,0 1.60026,0.691817 3.17337,3.234614 0.83497,1.34966 1.53341,2.473704 1.5521,2.497877 0.0187,0.02417 1.58178,-0.310991 3.47355,-0.744807 3.75331,-0.860698 4.89872,-0.857543 6.3144,0.0174 1.25382,0.774902 1.57711,1.600708 2.8114,7.181359 1.39414,6.303377 1.24466,5.882817 2.02156,5.68783 0.90253,-0.226521 2.57431,0.273978 3.49067,1.04504 0.75983,0.639358 1.1794,1.438431 1.47819,2.815185 0.1366,0.629423 0.3295,0.731042 1.91028,1.006322 3.29637,0.574037 6.3566,2.752699 7.62113,5.425694 0.88725,1.875498 4.91174,19.929049 4.91174,22.03369 0,1.856287 -0.33871,2.974197 -1.35366,4.467622 -0.77934,1.146759 -2.77368,2.585093 -4.00665,2.889633 -0.40156,0.09918 -0.78127,0.263123 -0.84381,0.364313 -0.0625,0.10119 0.5305,3.034797 1.31786,6.519127 0.78736,3.48433 1.43497,6.883085 1.43913,7.552791 0.008,1.329809 -0.67966,2.610884 -1.84453,3.434998 -0.40228,0.284604 -5.37848,1.520671 -12.7,3.154629 -11.22527,2.505163 -26.11355,5.837979 -59.58115,13.337536 -12.861316,2.88202 -14.844472,3.24214 -15.825102,2.87366 z m 10.318752,-6.057581 c 3.56526,-0.802841 10.94713,-2.456323 16.40417,-3.674407 11.97254,-2.672434 27.86603,-6.235755 35.98333,-8.067466 3.27422,-0.738843 9.76312,-2.187556 14.41979,-3.219362 4.65667,-1.031807 8.4973,-1.901497 8.53475,-1.932649 0.10657,-0.08866 -2.72814,-12.54651 -2.89222,-12.710586 -0.0804,-0.08042 -5.49055,1.054071 -12.0225,2.521098 -6.53195,1.467027 -12.53112,2.7925 -13.33149,2.9455 -5.45144,1.042099 -10.78319,-2.693897 -11.97871,-8.393567 -0.84222,-4.015296 1.61561,-8.831326 5.44752,-10.674239 1.19542,-0.574924 5.08502,-1.571818 14.4337,-3.699309 7.03851,-1.601766 12.83143,-2.947892 12.87314,-2.991395 0.13852,-0.144439 -3.41929,-16.280715 -3.63784,-16.499269 -0.0616,-0.06163 -3.31777,0.605949 -7.23587,1.483517 -19.01822,4.259659 -35.64747,7.988027 -51.30923,11.50381 -23.877793,5.360136 -22.123553,5.022594 -24.15631,4.648044 -0.937171,-0.17268 -1.727934,-0.278617 -1.75725,-0.235413 -0.04745,0.06993 0.752191,3.661082 5.260928,23.626469 0.657253,2.910417 2.270934,10.113698 3.585958,16.007292 1.315024,5.893593 2.440626,10.853573 2.501337,11.022183 0.07995,0.22204 0.425242,0.23665 1.252443,0.053 0.628134,-0.13945 4.059094,-0.91042 7.624354,-1.713261 z m 57.08492,-30.824551 c 5.92939,-1.326941 12.32775,-2.755911 14.2186,-3.175487 5.16971,-1.147154 6.8257,-2.158754 7.41786,-4.531357 0.11961,-0.479209 -0.19956,-2.326723 -0.937,-5.423959 -0.61512,-2.583463 -1.15971,-4.742815 -1.21021,-4.79856 -0.0505,-0.05575 -0.53004,0.283414 -1.06566,0.753687 -1.31668,1.156065 -2.61514,1.672667 -6.33948,2.52222 -1.73552,0.395885 -4.8819,1.111747 -6.99195,1.590807 -2.11005,0.47906 -7.11068,1.615615 -11.1125,2.525681 -4.00182,0.910066 -7.77653,1.867702 -8.38823,2.128081 -2.80271,1.193006 -4.04023,5.22142 -2.41289,7.854513 1.23674,2.001092 2.75551,2.939944 4.78291,2.956637 0.69181,0.0057 6.10916,-1.075322 12.03855,-2.402263 z m 16.9924,-22.504078 c 1.11647,-1.986502 0.50239,-4.94185 -1.42796,-6.872202 -0.75366,-0.753653 -2.18839,-1.454013 -2.44762,-1.19479 -0.0883,0.08825 0.28037,2.158103 0.81915,4.599676 1.31006,5.936736 1.124,5.434046 1.83813,4.966131 0.32728,-0.21444 0.87551,-0.888905 1.2183,-1.498815 z M 93.234207,42.039631 c 2.793633,-2.364714 6.289704,-5.309886 7.769043,-6.544831 1.47935,-1.234943 2.66826,-2.263767 2.64202,-2.286276 -0.0577,-0.04951 -14.651774,3.279855 -15.353992,3.502729 -0.272206,0.0864 -0.957327,0.574839 -1.522492,1.085432 -1.632318,1.4747 -2.171346,4.118756 -1.229073,6.028883 0.329527,0.668002 2.081831,2.513542 2.386556,2.513542 0.125733,0 2.514305,-1.934766 5.307938,-4.299479 z M 135.4426,30.42446 c 1.69398,-1.040453 4.2983,-2.647797 5.78739,-3.571875 1.48908,-0.924079 2.79877,-1.677438 2.91041,-1.674133 0.11165,0.0033 0.39176,0.390258 0.62248,0.859896 0.23364,0.475583 0.98689,1.205547 1.70019,1.647637 1.67951,1.040918 3.96453,1.114171 5.4829,0.175765 0.5427,-0.335409 1.089,-0.546629 1.214,-0.469376 0.12499,0.07725 0.84946,1.155049 1.60992,2.395106 0.76046,1.240058 1.49253,2.322555 1.62682,2.405552 0.21126,0.130564 3.40045,-0.35607 3.64674,-0.556453 0.0493,-0.04011 -0.73833,-1.421656 -1.75031,-3.070095 -3.71454,-6.050743 -7.26447,-11.734148 -7.46135,-11.945533 -0.11122,-0.119415 -0.72363,0.13168 -1.36093,0.557987 -0.63729,0.426307 -2.23028,1.43158 -3.53996,2.233939 -2.01159,1.232363 -14.31454,8.874527 -17.72709,11.011442 l -1.05833,0.662721 1.85208,0.587142 c 2.82816,0.896572 3.00712,0.86187 6.44504,-1.249722 z m 12.30262,-5.14023 c -0.89164,-1.36081 0.67047,-3.209526 2.08322,-2.465441 0.77839,0.409967 0.98824,0.744863 0.9932,1.585042 0.009,1.537576 -2.22661,2.177376 -3.07642,0.880399 z m 17.89713,4.449823 c 0,-0.256011 -0.35794,-2.071714 -0.79543,-4.034896 -1.10554,-4.96094 -1.25683,-5.577588 -1.40472,-5.72548 -0.17464,-0.174643 -4.41443,0.745919 -4.41443,0.958482 0,0.169945 4.05038,6.831928 5.1105,8.405665 0.62468,0.927311 1.50408,1.158981 1.50408,0.396229 z m -36.06032,-8.333324 c 1.4248,-1.169787 2.78185,-2.291013 3.01569,-2.491616 0.37171,-0.318883 0.56174,-0.22814 1.51177,0.721881 0.70021,0.70022 1.20762,1.014108 1.42692,0.882719 0.91688,-0.549333 7.23231,-4.434093 7.31886,-4.501987 0.0547,-0.04287 -1.06546,-1.458471 -2.48913,-3.145769 -1.42368,-1.687298 -2.65902,-2.9666281 -2.74521,-2.842955 -0.0862,0.123672 -3.19279,2.766084 -6.90358,5.872025 -3.71078,3.105942 -6.96372,5.850694 -7.22876,6.099448 -0.46065,0.43235 -0.42015,0.474474 0.91906,0.955889 0.77052,0.276982 1.6671,0.520176 1.9924,0.540427 0.38219,0.02379 1.50799,-0.715676 3.18198,-2.090062 z m 6.85955,-3.655822 c -1.33923,-1.053434 -0.64343,-2.891214 1.09463,-2.891214 0.8803,0 1.64781,0.772445 1.64781,1.658398 0,0.569827 -1.13716,1.781186 -1.67208,1.781186 -0.20527,0 -0.68694,-0.246767 -1.07036,-0.54837 z"
         id="path58459" />
      <path
         style="fill:#542f05;stroke-width:0.264583"
         d="m 96.172562,105.48549 c -0.591252,-0.35444 -1.27718,-1.03793 -1.524285,-1.51885 C 94.401171,103.48572 92.882991,97.198641 91.274544,89.99536 89.666097,82.792079 87.16203,71.600204 85.709951,65.124527 80.36588,41.292167 80.643588,42.676123 80.804465,40.678101 c 0.180211,-2.238137 1.133086,-4.310613 2.704343,-5.88187 2.05239,-2.052389 1.815766,-1.978086 17.178342,-5.394203 5.23875,-1.164924 9.76312,-2.17128 10.05416,-2.236349 0.54217,-0.121213 1.49743,-0.906655 16.90466,-13.899486 4.91803,-4.1473434 9.21125,-7.7066525 9.5405,-7.9095755 1.16563,-0.7184123 1.83418,-0.2162895 5.60717,4.211365 1.98128,2.3250575 3.67275,4.2273775 3.75881,4.2273775 0.0861,0 1.14257,-0.604711 2.34778,-1.343802 1.77869,-1.090776 2.33546,-1.312137 2.95698,-1.175628 0.94801,0.208217 1.19197,0.488958 2.95166,3.396707 1.18169,1.952651 1.50011,2.308899 1.95533,2.187643 3.17556,-0.845858 6.91011,-1.50843 7.68393,-1.363259 0.98525,0.184833 2.33759,1.18297 2.84142,2.09719 0.17179,0.311726 0.86361,3.007555 1.53739,5.990732 l 1.22504,5.423959 1.37195,0.04759 c 2.30577,0.07998 3.69316,1.24582 4.28643,3.601937 l 0.29842,1.185111 1.49752,0.110305 c 1.88427,0.13879 4.14759,1.164535 5.67388,2.571422 1.99264,1.836748 2.6284,3.421732 4.14876,10.34301 0.75119,3.419739 1.72753,7.765521 2.16965,9.657291 1.55428,6.650654 0.52656,9.750632 -3.9229,11.832781 -0.9224,0.431644 -1.67708,0.813292 -1.67708,0.848111 0,0.03482 0.65356,2.970393 1.45235,6.523498 0.7988,3.553108 1.45346,6.876912 1.4548,7.386235 0.003,1.239208 -0.73742,2.643841 -1.75088,3.320365 -0.45545,0.304033 -1.7056,0.748623 -2.77812,0.987978 -1.07252,0.239355 -8.558,1.918531 -16.6344,3.731498 -8.07641,1.81297 -22.7211,5.095611 -32.54375,7.294761 -9.82266,2.199145 -21.52979,4.827735 -26.01584,5.841305 -4.48606,1.01356 -8.534183,1.84172 -8.995837,1.84034 -0.461653,-0.001 -1.323121,-0.2925 -1.914371,-0.64695 z m 10.996878,-5.599031 c 3.56526,-0.802841 10.94713,-2.456323 16.40417,-3.674407 11.97254,-2.672434 27.86603,-6.235755 35.98333,-8.067466 3.27422,-0.738843 9.76312,-2.187556 14.41979,-3.219362 4.65667,-1.031807 8.4973,-1.901497 8.53475,-1.932649 0.10657,-0.08866 -2.72814,-12.54651 -2.89222,-12.710586 -0.0804,-0.08042 -5.49055,1.054071 -12.0225,2.521098 -6.53195,1.467027 -12.53112,2.7925 -13.33149,2.9455 -5.45144,1.042099 -10.78319,-2.693897 -11.97871,-8.393567 -0.84222,-4.015296 1.61561,-8.831326 5.44752,-10.674239 1.19542,-0.574924 5.08502,-1.571818 14.4337,-3.699309 7.03851,-1.601766 12.83143,-2.947892 12.87314,-2.991395 0.13852,-0.144439 -3.41929,-16.280715 -3.63784,-16.499269 -0.0616,-0.06163 -3.31777,0.605949 -7.23587,1.483517 -19.01822,4.259659 -35.64747,7.988027 -51.30923,11.50381 -23.877793,5.360136 -22.123553,5.022594 -24.15631,4.648044 -0.937171,-0.17268 -1.727934,-0.278617 -1.75725,-0.235413 -0.04745,0.06993 0.752191,3.661082 5.260928,23.626469 0.657253,2.910417 2.270934,10.113698 3.585958,16.007292 1.315024,5.893593 2.440626,10.853573 2.501337,11.022183 0.07995,0.22204 0.425242,0.23665 1.252443,0.053 0.628134,-0.13945 4.059094,-0.91042 7.624354,-1.713261 z m 57.08492,-30.824551 c 5.92939,-1.326941 12.32775,-2.755911 14.2186,-3.175487 5.16971,-1.147154 6.8257,-2.158754 7.41786,-4.531357 0.11961,-0.479209 -0.19956,-2.326723 -0.937,-5.423959 -0.61512,-2.583463 -1.15971,-4.742815 -1.21021,-4.79856 -0.0505,-0.05575 -0.53004,0.283414 -1.06566,0.753687 -1.31668,1.156065 -2.61514,1.672667 -6.33948,2.52222 -1.73552,0.395885 -4.8819,1.111747 -6.99195,1.590807 -2.11005,0.47906 -7.11068,1.615615 -11.1125,2.525681 -4.00182,0.910066 -7.77653,1.867702 -8.38823,2.128081 -2.80271,1.193006 -4.04023,5.22142 -2.41289,7.854513 1.23674,2.001092 2.75551,2.939944 4.78291,2.956637 0.69181,0.0057 6.10916,-1.075322 12.03855,-2.402263 z m 16.9924,-22.504078 c 1.11647,-1.986502 0.50239,-4.94185 -1.42796,-6.872202 -0.75366,-0.753653 -2.18839,-1.454013 -2.44762,-1.19479 -0.0883,0.08825 0.28037,2.158103 0.81915,4.599676 1.31006,5.936736 1.124,5.434046 1.83813,4.966131 0.32728,-0.21444 0.87551,-0.888905 1.2183,-1.498815 z M 93.234207,42.039631 c 2.793633,-2.364714 6.289704,-5.309886 7.769043,-6.544831 1.47935,-1.234943 2.66826,-2.263767 2.64202,-2.286276 -0.0577,-0.04951 -14.651774,3.279855 -15.353992,3.502729 -0.272206,0.0864 -0.957327,0.574839 -1.522492,1.085432 -1.632318,1.4747 -2.171346,4.118756 -1.229073,6.028883 0.329527,0.668002 2.081831,2.513542 2.386556,2.513542 0.125733,0 2.514305,-1.934766 5.307938,-4.299479 z m 10.098773,-1.387536 c 2.7649,-1.719667 6.09865,-3.780819 7.40833,-4.580334 4.6792,-2.856479 5.96832,-3.796398 11.1521,-8.131165 2.88864,-2.415532 5.43197,-4.532553 5.65184,-4.704493 0.21987,-0.171939 1.35097,-1.089347 2.51354,-2.038683 1.16258,-0.949335 2.31944,-1.884411 2.5708,-2.077944 0.39831,-0.306672 0.54427,-0.248197 1.1361,0.455154 0.37349,0.443868 0.91194,0.880938 1.19654,0.97127 0.49781,0.157995 2.79613,-1.085972 6.43913,-3.485173 0.73156,-0.481785 1.44697,-0.914927 1.5898,-0.962538 0.23709,-0.07903 -4.651,-6.052449 -5.078,-6.2054972 -0.20709,-0.074225 -2.63239,1.9280492 -13.51614,11.1586202 -4.13103,3.503549 -9.19118,7.783444 -11.24479,9.510876 -2.05361,1.727433 -5.09147,4.287277 -6.75081,5.688542 -1.65933,1.401265 -3.44527,2.901805 -3.96875,3.334531 -0.52347,0.432726 -1.84474,1.564155 -2.936148,2.514287 -1.091407,0.950132 -2.341563,2.0051 -2.778125,2.34437 l -0.79375,0.616858 1.190625,-0.641006 c 0.654843,-0.352552 3.452808,-2.048005 6.217708,-3.767675 z m 33.31096,-22.825891 c -0.16011,-0.106912 -0.44015,-0.477145 -0.6223,-0.822739 -0.28282,-0.536595 -0.25553,-0.729779 0.18687,-1.322916 0.64598,-0.866086 1.22877,-0.992051 2.06248,-0.445787 0.78786,0.516227 0.87169,1.716138 0.16459,2.356049 -0.50806,0.459789 -1.29979,0.563809 -1.79164,0.235393 z m -23.6448,24.44934 5.16288,-1.153149 3.56569,-2.196262 c 1.96113,-1.207942 6.54225,-4.003175 10.18027,-6.211625 3.63802,-2.208451 7.84419,-4.770782 9.34704,-5.694066 l 2.73246,-1.678705 1.02914,1.203986 c 1.30724,1.52934 2.44301,2.066304 4.3706,2.066304 1.13731,0 1.80312,-0.163418 2.6227,-0.643721 l 1.09842,-0.643721 1.5529,2.510097 c 0.8541,1.380554 1.64363,2.566173 1.75453,2.63471 0.16315,0.100836 3.62241,-0.626147 3.87255,-0.813837 0.0385,-0.02886 -1.22078,-2.12444 -2.7983,-4.656852 -1.57751,-2.532411 -3.69257,-5.945925 -4.70013,-7.585585 -1.25543,-2.043062 -1.96022,-2.950458 -2.23964,-2.883502 -0.22425,0.05374 -3.91519,2.276845 -8.20208,4.94024 -12.22458,7.594984 -30.18981,18.78474 -31.20998,19.439329 -0.50932,0.326806 -1.63669,1.027388 -2.50526,1.556851 -0.86858,0.52946 -1.40315,0.962657 -1.18795,0.962657 0.2152,0 2.71458,-0.518916 5.55416,-1.153149 z m 35.23959,-16.721228 c -1.13664,-0.796131 -0.47107,-2.763123 0.93494,-2.763123 0.69826,0 1.67644,1.203976 1.46473,1.802824 -0.46223,1.307451 -1.3798,1.674643 -2.39967,0.960299 z m 17.40362,4.179737 c 0,-0.256011 -0.35794,-2.071714 -0.79543,-4.034896 -1.10554,-4.96094 -1.25683,-5.577588 -1.40472,-5.72548 -0.17464,-0.174643 -4.41443,0.745919 -4.41443,0.958482 0,0.169945 4.05038,6.831928 5.1105,8.405665 0.62468,0.927311 1.50408,1.158981 1.50408,0.396229 z"
         id="path58457" />
      <path
         style="fill:#030201;stroke-width:0.264583"
         d="M 96.405887,105.58693 C 94.443861,104.61574 94.956935,106.32207 90.12654,84.703693 88.159379,75.899683 85.236158,62.83944 83.630494,55.680934 82.02483,48.522425 80.711105,42.144424 80.711105,41.507601 c 0,-1.467056 0.654985,-3.690437 1.46531,-4.974076 1.602022,-2.537767 3.699408,-3.805727 7.795107,-4.712478 1.382448,-0.306062 6.778249,-1.513295 11.990668,-2.682743 l 9.47713,-2.126268 1.90997,-1.647399 c 1.05049,-0.906071 4.03946,-3.433339 6.64216,-5.616152 2.60269,-2.182812 7.24162,-6.095203 10.30873,-8.694202 6.6574,-5.6413407 7.3117,-6.1100906 8.21296,-5.8838885 0.41909,0.1051843 1.72218,1.4141918 3.51282,3.5287659 1.56563,1.8488546 3.21802,3.7746466 3.67198,4.2795386 l 0.82537,0.917985 1.95275,-1.175142 c 1.07402,-0.646327 2.18443,-1.269225 2.46758,-1.384217 1.05209,-0.427264 1.93018,0.307685 3.60467,3.017064 0.88922,1.438784 1.67346,2.615971 1.74275,2.615971 0.0693,0 1.73533,-0.369891 3.7023,-0.82198 3.22126,-0.740376 3.69268,-0.789394 4.74863,-0.493748 1.2801,0.358406 2.62818,1.654531 2.91677,2.804353 0.0946,0.376844 0.66452,2.904739 1.26652,5.617544 l 1.09456,4.932373 1.5871,0.152619 c 0.8729,0.08394 1.89781,0.356206 2.27756,0.605031 0.71484,0.468381 1.68678,2.167448 1.92916,3.3724 0.12726,0.632675 0.27447,0.702763 1.75863,0.837343 3.25044,0.294741 6.42447,2.564273 7.78931,5.569598 0.34201,0.753092 1.41837,4.941134 2.39191,9.306759 0.97354,4.365625 1.94245,8.711406 2.15313,9.657291 0.72862,3.271221 0.0507,6.344415 -1.79988,8.159719 -0.94725,0.929179 -3.11326,2.159031 -3.80249,2.159031 -0.22311,0 -0.40567,0.121307 -0.40567,0.269571 0,0.148265 0.66747,3.266681 1.48326,6.929816 1.00135,4.496385 1.43891,6.990853 1.34676,7.677835 -0.1644,1.225733 -1.19939,2.660211 -2.21859,3.074959 -0.40905,0.166452 -9.01856,2.151795 -19.13226,4.411876 -10.1137,2.260082 -24.46073,5.472208 -31.88229,7.138062 -7.42156,1.665854 -18.28458,4.103268 -24.14005,5.416478 -5.85546,1.31321 -10.915621,2.38756 -11.244791,2.38744 -0.329171,-1.1e-4 -1.096309,-0.24662 -1.704752,-0.5478 z m 16.336663,-6.842185 c 7.77609,-1.736278 17.65069,-3.946081 21.94355,-4.910675 9.04715,-2.032868 16.12189,-3.618537 31.75,-7.116162 16.13693,-3.611496 16.13959,-3.612152 16.13959,-3.973817 0,-0.3147 -2.56506,-11.899455 -2.76507,-12.488082 -0.0651,-0.191524 -4.33102,0.671918 -12.35934,2.50158 -11.2796,2.570626 -12.48212,2.795011 -15.03809,2.806018 -2.48056,0.01069 -2.94164,-0.06466 -4.30475,-0.703419 -1.88006,-0.880996 -3.7768,-2.787235 -4.81005,-4.834128 -1.08488,-2.149179 -1.25991,-5.376532 -0.41337,-7.622061 0.72166,-1.914284 1.89601,-3.469704 3.58683,-4.750755 1.60326,-1.21471 2.44879,-1.502588 8.32259,-2.833593 2.54661,-0.577061 6.47568,-1.472816 8.73125,-1.990558 2.25557,-0.517744 5.79768,-1.318318 7.87135,-1.779053 2.08184,-0.462547 3.77031,-0.969158 3.77031,-1.131247 0,-0.338947 -0.75571,-3.90397 -2.39935,-11.318745 -0.89352,-4.030846 -1.25161,-5.225521 -1.56631,-5.225521 -0.22438,0 -2.01351,0.362275 -3.97584,0.805058 -1.96233,0.442783 -11.2474,2.522739 -20.6335,4.622128 -9.38609,2.099389 -21.35187,4.77928 -26.59062,5.955313 -29.897144,6.711532 -28.448539,6.412862 -30.427083,6.273401 -1.018646,-0.0718 -2.073829,-0.222097 -2.344852,-0.333989 -0.571763,-0.236054 -0.624152,-0.613461 0.772437,5.564547 0.493443,2.182813 2.508778,11.172031 4.478523,19.976042 5.161414,23.06956 5.763343,25.664583 5.953035,25.664583 0.09372,0 6.53267,-1.42059 14.30876,-3.156865 z M 165.2648,68.951023 c 6.82885,-1.533448 13.01141,-2.913554 13.73901,-3.066901 3.851,-0.811626 5.34387,-1.538312 6.40985,-3.120123 0.83991,-1.246336 0.77351,-2.280621 -0.47868,-7.456638 -0.99738,-4.12273 -1.11808,-4.445223 -1.57276,-4.201885 -0.27086,0.14496 -0.56115,0.374687 -0.6451,0.510505 -0.0839,0.135816 -0.77517,0.600787 -1.53608,1.033267 -1.4303,0.812937 -1.47354,0.823783 -21.75639,5.45696 -4.80219,1.096954 -9.18445,2.193443 -9.73836,2.436638 -1.81421,0.79653 -3.09757,2.953141 -3.08812,5.189442 0.013,3.092291 2.63175,5.907722 5.56975,5.988179 0.37443,0.01027 6.26802,-1.235995 13.09688,-2.769444 z m 15.40717,-21.288996 c 0.64447,-0.740847 1.36291,-2.510044 1.36874,-3.370599 0.009,-1.337328 -0.94067,-3.504004 -2.02082,-4.610179 -0.88742,-0.908796 -2.58916,-1.779122 -2.89017,-1.478119 -0.0654,0.06536 0.0483,0.880901 0.25268,1.812306 0.20434,0.931407 0.69286,3.18008 1.08559,4.997053 0.39274,1.816973 0.77386,3.400333 0.84694,3.518578 0.13688,0.22148 0.74989,-0.171085 1.35704,-0.86904 z M 93.607931,41.939409 c 2.874923,-2.419836 5.816518,-4.890383 6.536879,-5.490104 2.65264,-2.208408 3.85966,-3.339362 3.56397,-3.339362 -0.5795,0 -14.667803,3.189896 -15.426056,3.492791 -3.691407,1.474592 -4.510857,6.489237 -1.477504,9.041636 0.454109,0.382106 0.994386,0.69474 1.200615,0.69474 0.20623,0 2.727173,-1.979866 5.602096,-4.399701 z m 4.565674,1.937626 c 1.091406,-0.699296 4.663285,-2.924656 7.937505,-4.945242 9.74025,-6.01091 10.25719,-6.370794 15.75517,-10.968408 2.90356,-2.428066 5.4591,-4.555342 5.67897,-4.727282 0.21987,-0.171939 1.35097,-1.089347 2.51354,-2.038683 1.16258,-0.949335 2.31944,-1.884411 2.5708,-2.077944 0.39831,-0.306672 0.54427,-0.248197 1.1361,0.455154 0.37349,0.443868 0.91194,0.880938 1.19654,0.97127 0.49781,0.157995 2.79613,-1.085972 6.43913,-3.485173 0.73156,-0.481785 1.44697,-0.914927 1.5898,-0.962538 0.23709,-0.07903 -4.651,-6.052449 -5.078,-6.2054972 -0.23191,-0.08312 -3.97046,3.0320282 -21.50397,17.9181842 -1.9759,1.677559 -5.30164,4.478859 -7.39053,6.225109 -2.08889,1.74625 -4.34908,3.65125 -5.02265,4.233333 -0.67357,0.582084 -2.52705,2.151431 -4.118848,3.487439 -4.142888,3.477149 -4.244765,3.566716 -3.952515,3.474873 0.14552,-0.04573 1.157552,-0.655298 2.248958,-1.354595 z M 136.64394,17.826204 c -0.16011,-0.106912 -0.44015,-0.477145 -0.6223,-0.822739 -0.28282,-0.536595 -0.25553,-0.729779 0.18687,-1.322916 0.64598,-0.866086 1.22877,-0.992051 2.06248,-0.445787 0.78786,0.516227 0.87169,1.716138 0.16459,2.356049 -0.50806,0.459789 -1.29979,0.563809 -1.79164,0.235393 z m -23.6448,24.44934 5.16288,-1.153149 3.56569,-2.196262 c 1.96113,-1.207942 6.54225,-4.003175 10.18027,-6.211625 3.63802,-2.208451 7.84419,-4.770782 9.34704,-5.694066 l 2.73246,-1.678705 1.02914,1.203986 c 1.30724,1.52934 2.44301,2.066304 4.3706,2.066304 1.13731,0 1.80312,-0.163418 2.6227,-0.643721 l 1.09842,-0.643721 1.5529,2.510097 c 0.8541,1.380554 1.64363,2.566173 1.75453,2.63471 0.16315,0.100836 3.62241,-0.626147 3.87255,-0.813837 0.0385,-0.02886 -1.22078,-2.12444 -2.7983,-4.656852 -1.57751,-2.532411 -3.69257,-5.945925 -4.70013,-7.585585 -1.25543,-2.043062 -1.96022,-2.950458 -2.23964,-2.883502 -0.22425,0.05374 -3.91519,2.276845 -8.20208,4.94024 -12.22458,7.594984 -30.18981,18.78474 -31.20998,19.439329 -0.50932,0.326806 -1.63669,1.027388 -2.50526,1.556851 -0.86858,0.52946 -1.40315,0.962657 -1.18795,0.962657 0.2152,0 2.71458,-0.518916 5.55416,-1.153149 z m 35.23959,-16.721228 c -1.13664,-0.796131 -0.47107,-2.763123 0.93494,-2.763123 0.69826,0 1.67644,1.203976 1.46473,1.802824 -0.46223,1.307451 -1.3798,1.674643 -2.39967,0.960299 z m 17.62532,4.500891 c 0.13186,-0.115901 -2.09597,-10.009145 -2.30435,-10.23303 -0.0977,-0.10499 -1.22498,0.05599 -2.50503,0.357743 -1.76496,0.41606 -2.29253,0.639405 -2.18322,0.924261 0.0793,0.206592 1.41063,2.4008 2.95856,4.876017 2.49044,3.982328 2.87948,4.480433 3.37953,4.326993 0.31081,-0.09537 0.60534,-0.208764 0.65451,-0.251984 z"
         id="path58455" />
    </g>
  </g>
</svg>
