<?xml version="1.0" encoding="UTF-8" standalone="no"?>
<!-- Created with Inkscape (http://www.inkscape.org/) -->

<svg
   version="1.1"
   id="pmf-acoin"
   width="203.98109"
   height="203.98109"
   viewBox="0 0 203.98109 203.98109"
   xmlns:xlink="http://www.w3.org/1999/xlink"
   xmlns="http://www.w3.org/2000/svg"
   xmlns:svg="http://www.w3.org/2000/svg">

   <style>@font-face { font-family: Chomsky; src: url("Chomsky.otf"); }</style>
  <defs
     id="defs6">
    <linearGradient
       id="linearGradient24033">
      <stop
         style="stop-color:#800000;stop-opacity:1;"
         offset="0"
         id="stop24029" />
      <stop
         style="stop-color:#f9f9f9;stop-opacity:1"
         offset="0.40356368"
         id="stop24775" />
      <stop
         style="stop-color:#800080;stop-opacity:1"
         offset="1"
         id="stop24031" />
    </linearGradient>
    <linearGradient
       id="linearGradient23897">
      <stop
         style="stop-color:#ffd42a;stop-opacity:1"
         offset="0"
         id="stop23893" />
      <stop
         style="stop-color:#ffccaa;stop-opacity:1"
         offset="1"
         id="stop23895" />
    </linearGradient>
    <linearGradient
       xlink:href="#linearGradient23897"
       id="linearGradient23899"
       x1="159.79536"
       y1="-110.74451"
       x2="65.239609"
       y2="-171.81392"
       gradientUnits="userSpaceOnUse" />
    <linearGradient
       xlink:href="#linearGradient24033"
       id="linearGradient24035"
       x1="76.339027"
       y1="-37.579868"
       x2="187.00129"
       y2="-138.46013"
       gradientUnits="userSpaceOnUse" />
  </defs>
  <g
     id="g8"
     transform="translate(-36.469584,16.979795)">
    <circle
       style="fill:url(#linearGradient23899);fill-opacity:1;fill-rule:evenodd;stroke:url(#linearGradient24035);stroke-width:13.1;stroke-miterlimit:4;stroke-dasharray:none"
       id="frame"
       cx="85.01075"
       cy="-138.46013"
       r="95.440544"
       transform="rotate(90)" />
    <path
       style="fill:#000000"
       d="m 134.82287,150.6211 c -6.24919,-5.30934 -8.54223,-6.27029 -13.9066,-5.82784 -3.79128,0.3127 -4.45428,0.19357 -2.5934,-0.46598 3.39356,-1.20279 46.24231,-1.32401 49.35744,-0.13964 2.87145,1.09172 5.03126,-0.67224 4.46635,-3.64776 -0.26764,-1.4097 -1.63535,-1.92372 -6.33258,-2.37993 l -5.99121,-0.58189 5.51787,-0.16811 c 4.43413,-0.13509 6.25087,0.32998 9.25,2.36794 5.67871,3.85879 4.5077,9.52219 -1.95213,9.44118 -1.17961,-0.0148 -0.67713,-0.58406 1.43426,-1.6249 3.49,-1.72045 4.08606,-3.41357 1.85393,-5.26608 -1.11886,-0.92857 -1.83004,-0.45647 -3.58156,2.37756 -2.45935,3.97931 -2.73546,4.09809 -4.94363,2.12683 -0.98169,-0.87637 -4.22603,-1.48559 -8.57874,-1.61092 -10.08527,-0.29039 -9.84937,-0.35205 -15.38078,4.02028 -2.78321,2.2 -5.18612,3.98382 -5.3398,3.96404 -0.15368,-0.0198 -1.62942,-1.18293 -3.27942,-2.58478 z m -34.25,-2.12887 c -2.391443,-1.58827 -3.038633,-5.64495 -1.092483,-6.84774 0.779043,-0.48148 0.987773,-0.0662 0.638353,1.26994 -0.636333,2.43334 1.07888,4.95864 3.72906,5.49029 1.5413,0.30919 1.64564,0.52641 0.47507,0.98903 -0.825,0.32605 -2.5125,-0.0796 -3.75,-0.90152 z m -16.583336,0.0829 c -0.366667,-0.36662 -0.666667,-1.91926 -0.666667,-3.45027 0,-1.531 -0.596435,-3.1435 -1.325411,-3.58333 -2.350252,-1.41803 -2.578218,-3.87878 -0.480687,-5.18871 1.835245,-1.14613 1.867173,-1.38601 0.400221,-3.00698 -0.876768,-0.96881 -1.594123,-2.5079 -1.594123,-3.4202 0,-0.91229 -1.8,-2.795 -4,-4.1838 -4.902803,-3.09501 -5.161682,-5.71647 -1.040641,-10.53778 3.644965,-4.26433 3.798926,-5.96222 0.540641,-5.96222 -1.375,0 -2.5,-0.45 -2.5,-1 0,-1.40089 4.349081,-1.25092 5.8,0.2 1.928477,1.92847 1.428074,3.54178 -2.419533,7.80062 -2.996284,3.31653 -3.405676,4.26408 -2.377555,5.50289 2.180374,2.62719 5.323441,1.69932 8.247088,-2.43464 3.081289,-4.35686 3.476115,-7.22136 1.25,-9.06887 -0.825,-0.68469 -1.518732,-1.75229 -1.541627,-2.37245 -0.06957,-1.88458 -6.958373,-9.164241 -6.958373,-7.35318 0,2.00777 -1.872226,3.2534 -3.077862,2.04777 -1.314915,-1.31492 1.807965,-5.362943 3.605228,-4.673268 1.127365,0.432611 1.472634,-0.271875 1.472634,-3.00476 0,-2.872852 0.801569,-4.340083 4.105375,-7.514676 3.34226,-3.211543 4.966118,-4.013271 8.735959,-4.313099 4.387376,-0.348942 4.853646,-0.130572 8.877686,4.157688 4.404573,4.693784 5.338103,7.025972 2.812363,7.025972 -0.94647,0 -1.26846,0.622187 -0.90566,1.75 0.34757,1.08048 0.23992,1.319836 -0.28139,0.625632 -1.230733,-1.638917 -7.023972,-2.703003 -7.80815,-1.434178 -0.359819,0.5822 -0.240455,1.058546 0.265253,1.058546 0.505709,0 2.556234,1.110739 4.556724,2.46831 l 3.637263,2.468313 1.6173,-2.468313 c 1.68003,-2.564042 3.81628,-3.201217 4.89281,-1.459361 1.04782,1.695401 -0.56824,5.098824 -2.33841,4.924714 -3.44227,-0.33857 -3.96712,0.13866 -3.87127,3.52005 0.0557,1.96586 -0.63311,4.26147 -1.59897,5.32874 -0.933293,1.03127 -1.696883,2.40209 -1.696883,3.04629 0,0.64419 -0.44396,1.17126 -0.98658,1.17126 -0.54262,0 -1.65434,1.59818 -2.4705,3.55151 -1.21339,2.90406 -1.274667,4.45804 -0.33612,8.52405 1.03466,4.48237 0.94707,5.24124 -0.888498,7.69849 -1.433873,1.9195 -2.951063,2.73613 -5.128372,2.76036 -1.700641,0.0189 -3.375049,0.31738 -3.720906,0.66323 -1.098933,1.09894 2.593104,5.71575 4.106446,5.13503 2.302023,-0.88337 1.667841,2.3835 -0.797976,4.11063 -2.46452,1.72621 -3.130464,1.8704 -4.110827,0.89003 z m 6.333333,-44.21828 c 0,-0.48675 -1.125,-1.62212 -2.5,-2.52306 -1.375,-0.90093 -2.5,-2.527685 -2.5,-3.615006 0,-1.087321 -0.45,-1.976947 -1,-1.976947 -0.55,0 -1,1.245772 -1,2.768383 0,1.94005 0.82283,3.27854 2.75,4.47339 3.106301,1.92592 4.25,2.16091 4.25,0.87324 z m 5.26443,0.28722 c 1.11144,-1.11143 -0.49115,-3.46811 -3.371124,-4.957407 -3.572459,-1.84739 -4.465956,-5.116959 -2.453194,-8.97696 1.935323,-3.711491 1.945462,-4.467866 0.05989,-4.467866 -0.836703,0 -1.5,0.890397 -1.5,2.013569 0,1.107463 -0.54457,2.885564 -1.210156,3.951336 -1.701786,2.724993 0.06094,7.196986 3.48342,8.837338 1.499705,0.71879 2.726736,1.95733 2.726736,2.75232 0,1.47636 1.190206,1.9219 2.264428,0.84767 z M 82.199,99.491837 c -0.08833,-2.6125 0.173601,-6.325 0.582072,-8.25 0.71064,-3.349026 0.665249,-3.425365 -1.052302,-1.769748 -1.995424,1.923469 -2.776259,10.080274 -1.246355,13.019751 1.462319,2.80962 1.887869,2.0659 1.716585,-3.000003 z m 106.18637,47.812503 c -2.52135,-2.52135 -2.68154,-4.39146 -0.3125,-3.64831 2.33802,0.73343 4.67162,-3.81938 2.76762,-5.39957 -0.69527,-0.57702 -2.01292,-0.76179 -2.92812,-0.41059 -0.96292,0.36951 -2.49094,-0.10984 -3.62675,-1.13774 -1.64473,-1.48846 -1.96275,-3.09785 -1.96275,-9.93272 0,-6.4316 -0.37681,-8.5664 -1.78184,-10.09501 -3.87483,-4.21564 -6.42494,-9.47853 -5.79976,-11.96946 0.55269,-2.20208 0.30478,-2.4691 -2.29236,-2.4691 -3.03804,0 -4.49373,-1.87823 -3.48767,-4.500003 0.83804,-2.183878 2.30218,-1.8453 4.5883,1.061029 1.99425,2.535284 2.03591,2.541814 4.14392,0.649013 1.17117,-1.05161 2.91691,-2.18995 3.87941,-2.529645 0.9625,-0.339695 1.75,-1.081751 1.75,-1.649012 0,-1.556222 -3.65174,-1.236786 -5.35714,0.468615 -1.97592,1.975919 -3.27007,1.895575 -4.02687,-0.25 -0.3395,-0.9625 -0.86983,-2.283538 -1.17851,-2.93564 -0.30868,-0.652103 0.62028,-1.804703 2.06437,-2.561335 1.44408,-0.756632 3.17055,-2.473094 3.83661,-3.81436 1.03546,-2.085174 2.00465,-2.473913 6.68627,-2.68183 5.90832,-0.262398 7.11204,0.384255 12.22168,6.56562 2.15469,2.60663 2.53173,3.723582 1.75,5.184259 -1.42421,2.661149 -1.24506,3.206979 0.83581,2.546538 1.10316,-0.350132 2.49264,0.148237 3.49196,1.252472 1.4239,1.573389 1.46575,2.099309 0.2945,3.701079 -1.31457,1.79778 -1.391,1.78591 -2.05935,-0.31986 -0.6882,-2.16834 -3.55933,-3.117509 -3.55933,-1.17669 0,0.55564 -1.575,3.25103 -3.5,5.98975 -1.925,2.73872 -3.5,5.64594 -3.5,6.4605 0,0.81457 1.40629,3.47615 3.1251,5.91463 2.92928,4.15581 3.30523,4.37082 6,3.43141 1.58119,-0.5512 2.8749,-1.40688 2.8749,-1.90149 0,-0.49461 -1.62456,-2.69749 -3.61014,-4.89528 -4.44219,-4.91698 -4.2079,-8.51594 0.60034,-9.22164 2.05606,-0.30177 3.0098,-0.0213 3.0098,0.88506 0,0.74859 -1.08948,1.32681 -2.5,1.32681 -3.53525,0 -3.1665,2.2565 1.14941,7.03369 3.36455,3.72416 3.54649,4.23174 2.33102,6.50288 -0.72512,1.35489 -2.0726,2.46343 -2.99442,2.46343 -2.06738,0 -4.98601,3.09017 -4.98601,5.27905 0,0.89186 -0.77813,2.05704 -1.72919,2.58927 -1.63891,0.91718 -1.63891,1.06745 0,2.87843 2.10696,2.32817 2.17902,3.63504 0.28699,5.20528 -0.7932,0.6583 -1.5807,2.59125 -1.75,4.29543 -0.38317,3.85725 -2.06124,4.4991 -4.7453,1.81504 z m 4.92512,-48.87152 c 0.007,-1.953937 -0.39713,-3.055925 -0.98762,-2.690983 -0.55,0.339919 -1,1.182285 -1,1.871926 0,0.68964 -1.334,2.531947 -2.96444,4.094007 -3.8564,3.69466 -2.91289,5.11995 1.49811,2.26308 2.77275,-1.79584 3.44398,-2.87207 3.45395,-5.53803 z m -9.50386,4.86017 c 0.3402,-1.07187 1.42348,-2.20432 2.40728,-2.51657 2.96815,-0.942055 4.64179,-5.069739 3.27337,-8.073093 -0.64043,-1.405578 -1.16441,-3.434422 -1.16441,-4.508543 0,-2.033483 -2.42426,-2.693537 -3.5,-0.952947 -0.33992,0.55 -0.14148,1 0.44098,1 0.58246,0 1.05902,0.81 1.05902,1.8 0,0.99 0.47154,2.271543 1.04787,2.847874 1.56599,1.565989 -0.59579,5.556117 -4.09971,7.567089 -1.62149,0.93061 -2.94816,2.38795 -2.94816,3.23853 0,2.2256 2.75051,1.90794 3.48376,-0.40234 z m 12.14784,-0.26408 c 1.6107,-2.60618 1.37458,-10.756996 -0.37067,-12.795302 -2.30563,-2.692772 -3.63302,-2.526524 -2.0618,0.258229 1.49912,2.656981 1.98337,10.519173 0.69687,11.314273 -1.18254,0.73085 -1.15106,2.43573 0.045,2.43573 0.51754,0 1.27832,-0.54582 1.69062,-1.21293 z m -91.89612,41.3894 c -2.43805,-3.68415 -2.46162,-3.86641 -0.64645,-5 2.55295,-1.59434 3.40878,-1.48122 1.96402,0.25961 -1.60607,1.9352 0.44645,5.96996 2.61388,5.13823 2.26106,-0.86764 3.63468,0.35734 2.25918,2.01472 -1.89283,2.28073 -3.49898,1.65479 -6.19063,-2.41256 z m 9.07702,0.14042 c 0.72187,-0.28887 1.58437,-0.25335 1.91667,0.0789 0.33229,0.3323 -0.25834,0.56864 -1.3125,0.52522 -1.16495,-0.048 -1.4019,-0.28494 -0.60417,-0.60416 z m -4.8125,-2.81689 c 0,-0.825 0.7301,-1.5 1.62244,-1.5 1.3288,0 1.39713,0.27149 0.37756,1.5 -0.68469,0.825 -1.41479,1.5 -1.62244,1.5 -0.20766,0 -0.37756,-0.675 -0.37756,-1.5 z m 57.5,-0.5 c -1.90836,-0.82005 -1.8969,-0.86265 0.25,-0.92971 1.2375,-0.0387 2.25,0.37971 2.25,0.92971 0,0.55 -0.1125,0.96837 -0.25,0.92971 -0.1375,-0.0387 -1.15,-0.45702 -2.25,-0.92971 z m -48.73209,-0.72473 c 1.79735,-0.22256 4.49735,-0.21797 6,0.0102 1.50265,0.22818 0.0321,0.41027 -3.26791,0.40466 -3.3,-0.006 -4.52944,-0.1923 -2.73209,-0.41486 z m 13.80606,-0.24924 c 0.60229,-0.60229 2.10963,-0.63509 3.95,-0.086 2.94113,0.8776 2.9297,0.88902 -0.97397,0.97397 -2.56295,0.0558 -3.60799,-0.25606 -2.97603,-0.88802 z m 11.17603,0.26824 c 1.2375,-0.23836 3.2625,-0.23836 4.5,0 1.2375,0.23835 0.225,0.43337 -2.25,0.43337 -2.475,0 -3.4875,-0.19502 -2.25,-0.43337 z m 10.75,-0.29427 c 0.33992,-0.55 0.81648,-1 1.05902,-1 0.24254,0 0.44098,0.45 0.44098,1 0,0.55 -0.47656,1 -1.05902,1 -0.58246,0 -0.7809,-0.45 -0.44098,-1 z m 4.75,0.31067 c 0.9625,-0.25152 2.5375,-0.25152 3.5,0 0.9625,0.25153 0.175,0.45733 -1.75,0.45733 -1.925,0 -2.7125,-0.2058 -1.75,-0.45733 z m -49.88377,-2.52712 c -0.26635,-0.43095 1.56729,-0.78355 4.07475,-0.78355 2.50746,0 4.55902,0.17773 4.55902,0.39496 0,0.78506 -8.16171,1.1524 -8.63377,0.38859 z m 6.88963,-4.61604 c -1.78427,-2.10235 -3.52381,-4.10213 -3.86563,-4.44395 -0.34182,-0.34182 -0.64727,-9.75696 -0.67878,-20.92253 l -0.0573,-20.301033 6.16835,0.329062 c 7.16959,0.382475 11.95224,-0.94498 18.04701,-5.009058 3.88327,-2.589421 4.55096,-2.750314 6,-1.445814 0.89676,0.807314 4.00516,2.658184 6.90754,4.113044 4.45079,2.23102 6.40801,2.609737 12.5,2.418719 l 7.22294,-0.22648 -0.0603,3.910263 c -0.0332,2.150645 -0.23576,8.410267 -0.45021,13.910267 -0.21446,5.5 -0.0512,12.7 0.36277,16 l 0.7527,6 -4.60748,4.75 -4.60748,4.75 -20.195,-0.005 -20.195,-0.005 -3.24414,-3.82245 z m 22.74414,-0.97086 c 3.07887,-1.49854 3.537,-2.21448 3.8075,-5.95008 0.20932,-2.89072 0.76806,-4.24657 1.75,-4.24657 0.79337,0 1.4425,-0.45 1.4425,-1 0,-0.55 -0.675,-1 -1.5,-1 -0.825,0 -1.5,-0.43588 -1.5,-0.96862 0,-0.53274 0.6029,-0.73726 1.33979,-0.45449 0.73688,0.28277 1.91698,-0.18135 2.62244,-1.03138 0.70546,-0.85003 1.11506,-1.57652 0.91021,-1.61441 -3.57267,-0.66093 -5.95382,-0.60844 -6.41727,0.14144 -0.31705,0.513 -2.57417,1.84279 -5.01581,2.95508 -4.45116,2.02774 -6.2895,4.69436 -2.38106,3.45387 1.90965,-0.6061 2.03603,-0.30403 1.75,4.18262 -0.2949,4.62565 -0.42786,4.82191 -3.0583,4.51432 -1.80859,-0.21148 -2.75,0.14362 -2.75,1.0373 0,1.97726 4.91978,1.96683 9,-0.0191 z m 0.66667,-2.86332 c -1.05117,-1.05116 -0.77672,-9.14728 0.33333,-9.83333 0.62086,-0.38371 1,1.48961 1,4.94098 0,5.61984 -0.12975,6.09594 -1.33333,4.89235 z m 24.1074,-18.15554 c 0.28618,-0.85853 -2.74724,-1.17779 -11.19074,-1.17779 H 139.32287 V 97.241837 c 0,-8 -0.38462,-13 -1,-13 -0.61538,0 -1,5 -1,13 v 13.000003 h -12 c -10.51875,0 -13.19299,0.48108 -11.58073,2.08333 0.2306,0.22917 11.11643,0.38418 24.19074,0.34446 17.2956,-0.0525 23.87841,-0.39306 24.16406,-1.25 z m -37.77407,-4.17779 c 0,-1.1 0.64286,-2 1.42857,-2 2.45593,0 4.57143,-3.00318 4.57143,-6.489644 0,-4.642062 -0.89162,-6.510359 -3.10699,-6.510359 -2.02067,0 -2.54826,1.476998 -0.89301,2.5 1.66252,1.027495 1.23102,7.500003 -0.5,7.500003 -1.1049,0 -1.5,-1.15306 -1.5,-4.377558 0,-2.67121 -0.58469,-4.862806 -1.5,-5.622445 -1.74932,-1.45181 -1.67647,-1.712547 -1.67647,6 0,10.324123 0.10301,11.000003 1.67647,11.000003 0.83333,0 1.5,-0.88889 1.5,-2 z m 23.16044,-5.75 c -0.0303,-3.987503 -0.0789,-7.700003 -0.10781,-8.250003 -0.0289,-0.55 -0.62185,-1 -1.31755,-1 -0.92214,0 -1.26088,2.310074 -1.25,8.524553 0.0116,6.64309 0.3146,8.46395 1.37273,8.25 0.99995,-0.2022 1.34326,-2.18527 1.30263,-7.52455 z m 6.34195,-0.1321 c 0.0407,-4.799093 -0.37838,-7.600024 -1.24469,-8.318992 -2.11336,-1.753935 -2.59192,-0.240964 -2.34377,7.409922 0.25137,7.75053 0.63364,9.10864 2.39823,8.52045 0.69187,-0.23063 1.15264,-3.17716 1.19023,-7.61138 z m 5.71772,0.6321 c -0.40715,-8.549324 -0.79789,-10.05741 -2.46209,-9.502677 -0.88163,0.293877 -1.14239,2.56188 -0.90061,7.833157 0.36767,8.01574 0.61939,8.91952 2.4843,8.91952 0.88412,0 1.12786,-2.01176 0.8784,-7.25 z M 96.757217,134.6341 c 0.31111,-0.76574 0.83879,-2.06726 1.17264,-2.89226 0.33384,-0.825 0.10027,-1.5 -0.51905,-1.5 -0.70332,0 -0.88927,-0.94339 -0.49532,-2.51299 0.34689,-1.38214 0.12492,-3.12244 -0.49328,-3.86732 -1.61408,-1.94484 0.73018,-3.59424 5.521063,-3.88458 3.48111,-0.21096 3.90995,0.0251 4.17508,2.29785 0.19643,1.68389 -0.55779,3.33456 -2.25,4.92431 -3.14075,2.95058 -3.22992,4.09161 -0.29548,3.78094 1.75996,-0.18633 2.25,0.27124 2.25,2.10094 0,2.0864 -0.52032,2.37189 -4.81565,2.64226 -3.797183,0.23901 -4.696013,0.009 -4.250003,-1.08915 z m 77.315653,0.87927 c -3.24956,-0.33991 -3.75,-0.7323 -3.75,-2.9403 0,-2.21857 0.32326,-2.46691 2.5,-1.92059 3.17155,0.79601 3.14961,-0.26149 -0.0688,-3.31518 -1.70563,-1.61834 -2.43565,-3.25316 -2.23272,-5 0.26017,-2.23957 0.74937,-2.575 3.56765,-2.44626 5.54871,0.25348 6.23387,0.89308 6.23387,5.81941 0,2.64623 -0.46053,4.53139 -1.10699,4.53139 -0.60884,0 -0.83384,0.675 -0.5,1.5 0.33385,0.825 0.88013,2.175 1.21398,3 0.37359,0.92322 0.0852,1.43536 -0.75,1.3319 -0.74635,-0.0925 -3.04449,-0.34462 -5.10699,-0.56037 z m -72.69807,-20.1745 c -1.0072,-1.88197 -0.919,-2.58644 0.52335,-4.18022 0.95408,-1.05425 2.11495,-1.91681 2.57971,-1.91681 1.33914,0 0.9818,4.43067 -0.52335,6.48909 -1.31909,1.80396 -1.41199,1.78984 -2.57971,-0.39206 z m 70.92046,-0.14862 c -0.60388,-1.12837 -0.95722,-2.89506 -0.78518,-3.92597 0.30137,-1.80597 0.39281,-1.80907 2.50489,-0.085 1.4933,1.21896 2.01399,2.47048 1.63337,3.92597 -0.70439,2.69358 -1.94025,2.72491 -3.35308,0.085 z"
       id="logo" />
    <text
       xml:space="preserve"
       style="font-style:normal;font-variant:normal;font-weight:normal;font-stretch:normal;font-size:40px;line-height:1.25;font-family:Chomsky;-inkscape-font-specification:'Chomsky, Normal';font-variant-ligatures:normal;font-variant-caps:normal;font-variant-numeric:normal;font-variant-east-asian:normal;text-align:center;text-anchor:middle;fill:#000000;fill-opacity:1;stroke:none"
       x="140.3456"
       y="73.485687"
       id="apy"><tspan
         id="rate"
         x="140.3456"
         y="73.485687">Coin</tspan></text>
    <path
       style="display:none;opacity:0.5;fill:none;stroke:#000000;stroke-width:1px;stroke-linecap:butt;stroke-linejoin:miter;stroke-opacity:1"
       d="M 87.785609,60.21885 C 111.02347,20.060169 175.14962,24.501448 193.42364,60.439063"
       id="path7469" />
    <text
       xml:space="preserve"
       style="font-style:normal;font-variant:normal;font-weight:normal;font-stretch:normal;font-size:45.3333px;line-height:1.25;font-family:Chomsky;-inkscape-font-specification:'Chomsky, Normal';font-variant-ligatures:normal;font-variant-caps:normal;font-variant-numeric:normal;font-variant-east-asian:normal;text-align:center;text-anchor:middle;fill:#000000;fill-opacity:1;stroke:none"
       id="text43640"><textPath
         xlink:href="#path7469"
         startOffset="50%"
         id="textPath7798"><tspan
           id="type">*PMF*</tspan></textPath></text>
    <path
       style="display:none;opacity:0.5;fill:none;stroke:#000000;stroke-width:0.972637px;stroke-linecap:butt;stroke-linejoin:miter;stroke-opacity:1"
       d="m 46.524182,123.71157 c 14.748277,37.95301 56.589338,60.99746 90.210458,61.25195 34.48915,0.26105 76.34307,-18.68743 93.43294,-61.10024"
       id="path8291" />
    <text
       xml:space="preserve"
       style="font-style:normal;font-weight:normal;font-size:10.6667px;line-height:1.25;font-family:sans-serif;text-align:center;text-anchor:middle;fill:#000000;fill-opacity:1;stroke:none"
       id="text12484"
       transform="translate(0.45767727,-2.3398096)"><textPath
         xlink:href="#path8291"
         startOffset="50%"
         id="qm"
         style="font-size:9px;fill:#666666">Qmhash</textPath></text>
  </g>
  <style
     id="fontstyle">
@font-face {
    font-family: 'Chomsky'; 
    src: url(&quot;http://127.0.0.1:8390/ipfs/QmPFXdGomdS8vYTZuGwAGeiZjHCv3wNQh8NR88hdJC1hvg/Chomsky.otf&quot;) format(&quot;opentype&quot;);
    font-style: normal;
}
</style>
  <script
     id="dynscript">
console.log('running js within an SVG !');
gw='http://127.0.0.1:8390'
const key='QmVfmosDQdVzHRH2cGgWyXKsZ5s5iub677ZtUcq6Ao2DJt'

fetch(`${gw}/ipns/${key}/pmfa.json`).then(resp =&gt; resp.json()).
   then(cfg =&gt; {
   console.log('cfg:',cfg);
   let qm = cfg.attributes[0].value;
   document.getElementById('logo').addEventListener('click', function() { location.href = `${gw}/ipfs/${qm}/pmfa.json` } )
     if (typeof(cfg.name) != 'undefined') {
       document.getElementById('qm').innerHTML = `${cfg.attributes[0].value}`;
       document.getElementById('type').innerHTML = `${cfg.attributes[1].value}`;
       document.getElementById('rate').innerHTML = `${cfg.attributes[2].value}`;
     }
     return cfg;
   }).
   catch(console.error);
</script>
</svg>
