<svg width="922.05902" height="1184.9587" xmlns:xlink="http://www.w3.org/1999/xlink" xmlns="http://www.w3.org/2000/svg">
  <defs>
    <linearGradient id="g">
      <stop style="stop-color:#e9e9e9;stop-opacity:.95294118" offset="0"/>
      <stop style="stop-color:#fff;stop-opacity:.40000001" offset="1"/>
    </linearGradient>
    <linearGradient id="d">
      <stop style="stop-color:#165f81;stop-opacity:1" offset="0"/>
      <stop style="stop-color:#95cfed;stop-opacity:.94901961" offset="1"/>
    </linearGradient>
    <linearGradient id="c">
      <stop style="stop-color:#7832a7;stop-opacity:1" offset="0"/>
      <stop style="stop-color:#a05cce;stop-opacity:1" offset="1"/>
    </linearGradient>
    <linearGradient id="b">
      <stop style="stop-color:#0000d5;stop-opacity:.80000001" offset="0"/>
      <stop style="stop-color:navy;stop-opacity:1" offset="1"/>
    </linearGradient>
    <linearGradient id="a">
      <stop style="stop-color:#999;stop-opacity:1" offset="0"/>
      <stop style="stop-color:#ccc;stop-opacity:1" offset=".19931"/>
      <stop style="stop-color:#e6e6e6;stop-opacity:1" offset="1"/>
    </linearGradient>
    <linearGradient xlink:href="#a" id="j" x1="2411.8813" y1="-119.99734" x2="2462.6497" y2="-586.24139" gradientUnits="userSpaceOnUse"/>
    <linearGradient xlink:href="#b" id="o" x1="1036.2792" y1="527.12854" x2="1450.999" y2="510.48688" gradientUnits="userSpaceOnUse" gradientTransform="translate(-932.44283 -5.67624)"/>
    <linearGradient xlink:href="#c" id="k" x1="-713.52643" y1="379.00992" x2="-649.10278" y2="-58.38967" gradientUnits="userSpaceOnUse"/>
    <linearGradient xlink:href="#d" id="m" x1="-217.7267" y1="907.40674" x2="-366.94971" y2="411.89728" gradientUnits="userSpaceOnUse"/>
    <linearGradient xlink:href="#c" id="l" gradientUnits="userSpaceOnUse" x1="-713.52643" y1="379.00992" x2="-649.10278" y2="-58.38967"/>
    <linearGradient xlink:href="#d" id="n" gradientUnits="userSpaceOnUse" x1="-217.7267" y1="907.40674" x2="-366.94971" y2="411.89728"/>
    <linearGradient id="e">
      <stop style="stop-color:#361534;stop-opacity:1" offset="0"/>
      <stop style="stop-color:#40879c;stop-opacity:1" offset="1"/>
    </linearGradient>
    <linearGradient id="f">
      <stop style="stop-color:#361534;stop-opacity:1" offset="0"/>
      <stop style="stop-color:#40879c;stop-opacity:.36358479" offset="1"/>
    </linearGradient>
    <linearGradient xlink:href="#g" id="p" x1="165.39777" y1="205.81412" x2="195.80824" y2="899.20862" gradientUnits="userSpaceOnUse"/>
    <linearGradient id="i">
      <stop style="stop-color:#332866;stop-opacity:1" offset="0"/>
      <stop style="stop-color:#70e1f3;stop-opacity:1" offset="1"/>
    </linearGradient>
    <linearGradient xlink:href="#h" id="q" gradientUnits="userSpaceOnUse" gradientTransform="matrix(1.06709 .1952 -.07372 1.27 23.85004 1223.9605)" x1="724.73602" y1="-193.57947" x2="525.9422" y2="-130.36461"/>
    <linearGradient id="h">
      <stop style="stop-color:#c79139;stop-opacity:1" offset="0"/>
      <stop style="stop-color:#d6a040;stop-opacity:1" offset=".59192"/>
      <stop style="stop-color:#e1bc6a;stop-opacity:1" offset="1"/>
    </linearGradient>
    <linearGradient xlink:href="#i" id="r" gradientUnits="userSpaceOnUse" gradientTransform="matrix(.95697 .06946 -.0593 .97888 93.30425 1248.79)" x1="668.72144" y1="-381.45935" x2="434.3403" y2="-394.59778"/>
    <linearGradient xlink:href="#i" id="s" gradientUnits="userSpaceOnUse" gradientTransform="rotate(4.53 -15761.135 1456.4619)" x1="708.75195" y1="-379.87326" x2="422.10721" y2="-240.06078"/>
    <linearGradient xlink:href="#i" id="t" gradientUnits="userSpaceOnUse" gradientTransform="rotate(5.09 -13855.637 1289.3663)" x1="725.03186" y1="-389.58276" x2="493.30609" y2="-315.1608"/>
  </defs>
  <g transform="translate(-83.67595 159.46486)">
    <g transform="translate(-1851.2423 1093.6733)">
      <ellipse style="opacity:.4;fill:url(#j);fill-opacity:1;stroke:#4db6e5;stroke-width:1.64538;stroke-opacity:1" cx="2450.6499" cy="-381.96613" rx="287.86472" ry="292.96402"/>
      <path style="opacity:.9;fill:#fff;fill-opacity:1;stroke:none;stroke-width:1.33814;stroke-opacity:1" d="M2192.6818-350.54981a262.06723 258.47559 0 0 1-3.5411-40.74805 262.06723 258.47559 0 0 1 262.0665-258.47656 262.06723 258.47559 0 0 1 260.1308 231.7539 262.06723 258.47559 0 0 0-258.5273-217.73046 262.06723 258.47559 0 0 0-262.0664 258.47656 262.06723 258.47559 0 0 0 1.9375 26.72461z"/>
      <rect style="opacity:.4;fill:#ccc;fill-opacity:1;stroke:none;stroke-width:1.2826;stroke-opacity:1" width="533.03406" height="32.76646" x="1208.2725" y="-2042.6257" ry="16.38323" transform="scale(.99477 1.0052) rotate(45)" rx="16.38323"/>
      <rect style="opacity:.5;fill:#fff;fill-opacity:1;stroke:none;stroke-opacity:1" width="535.26556" height="25.21375" x="1195.528" y="-2025.9579" ry="12.60687" transform="rotate(45)" rx="12.60687"/>
    </g>
    <g style="fill:url(#k);fill-opacity:1">
      <path style="fill:url(#l);fill-opacity:1;stroke-width:.32" d="M-708.0843-58.34457c-76.274-1.60228-156.8332 39.94924-186.3177 112.80242-16.7661 38.3828-9.0874 81.03538-10.9693 121.56608-.005 77.59071-.0007 155.18142-.002 232.77212h413.7578c-.2013-102.79901.4781-205.60714-.5324-308.39855-2.4579-58.05459-42.7121-109.26376-94.0323-134.99597-37.3855-19.97585-80.0615-25.28095-121.9041-23.7461z" transform="translate(1009.2196 79.79918)"/>
    </g>
    <path style="opacity:.4;fill:#f2f2f2;stroke-width:.32" d="M324.52367 57.81848c-25.2879-1.19137-62.8167 4.59951-85.2925 16.16822-22.4759 11.5687-41.8988 28.91521-54.9751 50.83508-15.1618 24.03825-20.3789 52.91596-18.8583 80.99234 2.1216-3.77647 7.527-20.45011 12.725-27.26178 28.1932-46.62552 96.0419-73.31394 149.9209-70.06588 46.819 4.80657 108.2697 30.58271 132.0314 71.88002 4.5733 4.98314 10.1501 25.21124 11.5152 24.43978 1.6494-29.42147-5.1742-59.32858-21.4018-84.26398-11.9823-18.41199-28.4788-33.57849-47.4396-44.39921-18.9609-10.82073-56.3859-17.29569-78.2252-18.32459z"/>
    <g style="fill:url(#m);fill-opacity:1">
      <path style="fill:url(#n);fill-opacity:1;stroke-width:.32" d="M-240.60274 907.19506c-62.03461-3.14486-117.98366-31.18435-151.96727-76.16012-17.50053-23.16116-27.37003-47.28583-31.15456-76.15309l-.69221-5.28-.0969-179.76-.0969-179.76h109.87068c60.42887 0 153.5266.0959 206.88388.21315l97.01322.21315-.003 176.18685c-.003 115.08256-.11504 177.79606-.32573 180.82685-2.50678 36.05718-17.59421 69.91213-43.28147 97.12-13.26691 14.05225-27.50342 25.30141-43.94093 34.72048-27.25875 15.61987-55.96285 24.40368-89.532 27.39795-6.39078.57002-43.90153.87962-52.6767.43478z" transform="translate(528.44687 98.08709)"/>
    </g>
    <rect style="opacity:.78;fill:url(#o);fill-opacity:1;stroke:none;stroke-opacity:1" width="414.71991" height="33.28337" x="103.83634" y="488.16895" ry="0"/>
    <path style="opacity:1;fill:url(#p);fill-opacity:1;stroke-width:.32" d="M197.29587 120.80626c-5.389-.18565-8.1518.16288-12.084 1.52539-11.4738 3.9756-19.1762 11.98743-22.6016 23.50976l-.666 2.24024-.086 169.83984-.086 169.8398.1524.42-.07-.1-.2208 33.039c-.1211 18.172-.1714 104.1752-.1113 191.1192.1042 150.7705.1355 158.1914.6836 160.4804 1.4526 6.0665 4.256 11.2781 8.4336 15.6778 5.3816 5.6677 11.4082 8.9882 18.8613 10.3906 3.9572.7446 10.951.4701 14.9942-.5879 3.5304-.9237 8.0186-2.9555 11.1113-5.0312 2.4861-1.6686 7.0603-6.2432 8.6367-8.6368 2.8056-4.2599 4.7652-9.2612 5.3399-13.6289.354-2.6913.7288-322.479.4238-361.623l-.07-21.5195v-168.2794c0-146.50692-.062-168.624-.4707-170.95894-1.3274-7.5792-5.1085-14.22013-11.084-19.46484-3.1169-2.73574-5.202-4.06387-8.8535-5.64258-4.2287-1.82825-7.051-2.43088-12.2324-2.60937z"/>
    <g id="bfly" style="display:inline">
      <path style="fill:url(#q);fill-opacity:1;stroke:none;stroke-width:1.17031;stroke-opacity:.364706" d="M621.03818 1215.2985c9.24879-2.0738 23.91789-8.4777 46.08239-20.119 58.85093-30.91 102.10471-66.6335 130.40422-107.7016 10.04274-14.5741 14.25752-23.6023 15.63635-33.4943 1.73832-12.4711-4.40708-21.4098-16.0776-23.3853-9.28383-1.5717-17.37754 1.6411-26.9238 10.6871-8.74962 8.2912-14.1749 15.758-24.08925 33.1543-14.1034 24.7466-26.35599 42.3229-40.47062 58.0547-13.47201 15.0155-42.56313 41.9368-58.27779 53.931-20.97986 16.0127-32.71045 25.7419-34.13728 28.3131-1.41087 2.5425-1.09152 2.5653 7.85338.56z" transform="matrix(-1.11784 0 0 1.11784 1508.7152 -942.18798)"/>
      <path style="fill:url(#r);fill-opacity:1;stroke-width:.96999" d="M575.31625 764.90533c-10.61851-.79219-16.29301 1.41034-21.03041 8.16313-2.97819 4.24524-3.18655 5.05521-3.69952 14.36601-.48344 8.77402-.10175 12.07758 3.44427 29.82046l3.9876 19.95307-1.74348 29.36879c-1.73092 29.14461-1.76526 29.41243-4.49187 35.06861-2.21097 4.58592-2.79784 7.13685-3.00428 13.0548-.14112 4.04538-.67253 17.40092-1.18038 29.67872-1.05012 25.38883-.89519 27.8283 2.1952 34.66468 4.88408 10.80455 17.50687 20.33954 36.94095 27.9005 22.50216 8.7547 31.05373 12.5279 43.02283 18.9882 25.91861 13.9896 47.26065 29.7507 62.60103 46.2296 14.36852 15.4347 22.92785 22.7487 26.96091 23.0416.84253.06 2.24242-1.3615 3.11254-3.1616 5.35142-11.0704 9.37537-49.295 7.12086-67.6492-1.45327-11.8305-3.9588-24.88456-7.31422-38.11075-10.09839-39.80484-40.73125-117.71328-58.90835-149.82152-24.14239-42.64478-56.84226-69.2296-88.01371-71.5551zm1.29936 22.36768c4.51379.4737 11.51395 4.24886 19.87947 10.96168 23.35928 18.74478 58.50849 65.5019 57.81728 76.91206-.10327 1.70315-.52345 1.88592-2.71453 1.17585-1.42581-.46199-5.08777-2.34309-8.13831-4.17973-13.3483-8.03659-37.28413-28.24572-49.18706-41.52837-13.07563-14.59115-24.5823-35.00577-22.85516-40.55041.67649-2.172 2.49005-3.0753 5.19831-2.79108zm13.3264 64.59001c4.6837.30314 10.27425 4.38992 16.54779 12.1581 6.74064 8.34668 14.07661 21.0976 17.96817 31.22797 5.86735 15.27365.39583 24.19792-10.66146 17.38814-6.50731-4.00764-25.27145-29.74775-30.8105-42.26458-2.97365-6.71955-2.49904-13.54478 1.15194-16.56714 1.73358-1.43517 3.67517-2.08045 5.80406-1.94249zm62.62517 42.91857c4.51104.32743 7.48494 2.38695 12.95411 8.97478 14.99208 18.05866 33.29378 65.4348 40.5737 105.02713 3.89771 21.1979 4.98827 46.5715 1.99211 46.3542-.20572-.012-2.24106-3.1491-4.52288-6.9649-12.53639-20.9624-33.78031-55.40668-38.88213-63.04225-18.01904-26.96737-25.01996-46.37356-24.04207-66.63509.72031-14.92067 5.38148-24.18891 11.92705-23.71379zm-68.63143 15.47505c6.75795.53284 17.84799 7.65172 30.87925 20.58581 11.36636 11.28155 21.65906 29.55245 22.64041 40.19103.35839 3.88549.22598 4.19496-1.73801 4.05237-1.16959-.0844-3.86648-.81757-5.99328-1.62752-5.75474-2.19151-21.08999-11.47997-28.6387-17.34698-14.38537-11.18029-23.78121-25.73943-24.16923-37.45229-.2004-6.04776 2.3956-8.76698 7.01956-8.40242zm-4.86128 53.87195c13.35417.88199 39.99107 16.26076 61.58811 36.51591 8.32454 7.8075 8.4018 8.1601.88403 4.0008-3.89739-2.1561-10.43575-5.27258-14.52946-6.92485-4.09371-1.65228-12.73418-4.54078-19.20098-6.41913-19.47119-5.65575-29.36788-10.6766-34.48705-17.49292-3.14443-4.1872-3.20153-6.75913-.19121-8.61683 1.44555-.89201 3.46352-1.22636 5.93656-1.06298z" transform="matrix(-1.11784 0 0 1.11784 1508.7152 -942.18798)"/>
      <path style="fill:url(#s);fill-opacity:1" d="M564.46673 1015.1137c-27.53711-2.2618-32.03169-.6993-42.38278 14.7436-5.87301 8.7623-5.30452 8.332-25.52456 19.3826-19.65682 10.7428-23.31446 18.1356-18.418 37.232 3.22826 12.5905 2.43392 17.9656-4.47004 30.2336-4.3488 7.7275-5.2218 10.1135-5.70482 15.5983-1.28238 14.5585 8.02144 26.2439 26.0694 32.745 6.65575 2.3976 26.53572 4.683 37.64493 4.3284 32.95223-1.0517 71.95876-7.3258 98.35567-15.8225 31.80567-10.2374 65.93787-28.7252 74.79049-40.5106 8.43625-11.2312 3.42542-20.7665-23.3556-44.4464-24.41927-21.5913-53.10812-37.5526-86.94154-48.371-9.93239-3.1759-13.15978-3.7247-30.06315-5.113zm-14.17964 27.2602c11.18879.7002 25.86994 4.6153 37.85021 10.4419 6.06997 2.9522 13.44094 6.3526 16.38025 7.5555 7.08513 2.8998 7.25239 3.0563 4.80428 4.4971-6.18368 3.6393-25.72211 3.5087-40.36845-.2691-15.1788-3.9152-29.27724-11.1851-32.26166-16.6352-1.74149-3.1804-.9566-4.247 3.80114-5.171 2.72432-.5291 6.06461-.6525 9.79423-.4192zm-31.0577 32.0456c4.17012.3406 9.59328 1.9637 18.69543 5.3136 12.3796 4.5558 23.93448 7.82 29.62501 8.3677 2.27901.2194 4.96774.7999 5.97537 1.2903 1.5967.7772 1.31535 1.1435-2.18924 2.8537-5.48959 2.6788-20.09829 6.2164-28.0638 6.7951-8.77183.6373-23.36788-1.2343-29.01568-3.7193-2.63359-1.1587-5.7414-3.5737-7.32326-5.6917-4.79717-6.4235-2.59662-12.1181 5.61831-14.5315 2.12368-.6274 4.17578-.8818 6.67786-.6779zm124.91385 15.9485c3.79921.3401 7.64657.8379 11.50975 1.4937 23.58208 4.0035 31.05305 8.2112 27.37561 15.4194-1.9477 3.8174-8.89034 7.4319-21.82501 11.3625-18.33105 5.5705-36.36658 9.1412-51.57877 10.2103-7.13643.5014-19.95144-1.6689-23.77382-4.027-14.55798-8.9812-8.36506-22.0864 14.2571-30.1674 12.01162-4.2907 27.57135-5.7653 44.03514-4.2915zm-126.99893 34.1351c8.22924.533 16.79133 3.9105 33.82976 12.7428 9.46553 4.9068 20.18159 9.7316 23.81151 10.7227 3.63001.9911 6.57662 2.0849 6.54932 2.4292-.0762.9621-17.92368 3.5727-26.38721 3.8597-10.78112.3657-28.09603-1.9234-37.34016-4.9353-28.01151-9.1263-31.45551-22.8633-6.20814-24.7649 1.96357-.1478 3.84599-.1771 5.74492-.054z" transform="matrix(-1.11784 0 0 1.11784 1508.7152 -942.18798)"/>
      <path style="fill:url(#t);fill-opacity:1" d="M723.87513 718.17617c-9.97586-.73556-17.82216 4.07924-23.8745 14.49774-4.42036 7.60931-5.42676 19.93308-2.93113 35.88134 2.42342 15.48544 1.22264 24.08057-5.40522 38.67312-3.7144 8.17795-4.76249 11.6661-5.42901 18.0896-.87614 8.44593-.43734 10.16391 6.94426 27.22339 1.36689 3.15878 4.37075 13.53178 6.67463 23.05223 3.07821 12.71953 5.48427 19.989 9.0766 27.4133 8.14526 16.83437 19.54006 58.81022 25.17144 92.72953 3.74533 22.55838 4.50608 33.66668 3.65473 53.32738l-.67953 15.7087 5.21067-6.0618c35.52867-41.3337 59.75324-115.4215 60.48194-184.96882.78229-74.67234-19.22823-125.33077-58.56453-148.25868-7.59218-4.42518-14.34479-6.86565-20.33035-7.30703zm7.26974 37.35079c5.78837.51561 12.69617 9.05013 20.56541 25.40702 14.3484 29.82449 17.53154 49.65884 9.10057 56.71076-4.31322 3.60764-6.87854 3.02223-11.38066-2.60001-4.38834-5.48024-7.36137-12.92394-14.99844-37.56074-5.98202-19.29768-7.7207-27.75306-7.11259-34.5798.51804-5.81658 1.43734-7.58995 3.82571-7.37723zm-13.70179 64.03692c5.34696.47617 11.74917 10.96926 14.20522 23.28369 1.58835 7.96373-.34905 27.14449-2.72035 26.93334-.374-.0325-1.08785-1.60353-1.5855-3.48848-.49767-1.8849-3.00112-8.31992-5.56387-14.29998-4.94316-11.53426-9.24091-24.57626-8.99794-27.30433.25596-2.87371 2.47983-5.31863 4.66244-5.12424zm44.65139 40.3685c7.3411.36412 12.45411 10.66151 14.65992 29.78124 3.02179 26.19314-3.06273 67.33468-15.59367 105.42092-2.73565 8.31506-5.27902 16.12556-5.65005 17.35806-.37096 1.2326-.87208 2.0032-1.11496 1.7127-.24312-.2906.51415-5.0977 1.68295-10.6837 1.16881-5.58588 2.63111-16.04281 3.25005-23.23681 1.78157-20.70719.81817-32.55627-5.07934-62.47229-4.2671-21.64613-5.12226-29.39667-4.33155-39.25394.82881-10.33124 3.8993-16.6045 8.89521-18.17105 1.13767-.3568 2.23301-.50697 3.28178-.4549z" transform="matrix(-1.11784 0 0 1.11784 1508.7152 -942.18798)"/>
    </g>
    <text xml:space="preserve" style="font-size:96px;line-height:1.25;font-family:sans-serif;fill:#e1d0ec;fill-opacity:1" x="-798.57391" y="483.66507" transform="rotate(-90)"><tspan x="-798.57391" y="483.66507">Vitamins</tspan></text>
  </g>
  <script>
   document.getElementById('bfly').addEventListener('click', function() { location.href = 'https://discord.gg/vwkCmMQv' } )
  </script>
</svg>
