<?xml version="1.0" encoding="UTF-8" standalone="no"?>
<!-- Created with Inkscape (http://www.inkscape.org/) -->

<svg
   version="1.1"
   id="svg2"
   width="290.68042"
   height="290.68054"
   viewBox="0 0 290.68042 290.68054"
   xmlns:xlink="http://www.w3.org/1999/xlink"
   xmlns="http://www.w3.org/2000/svg"
   xmlns:svg="http://www.w3.org/2000/svg">
  <defs
     id="defs6">
    <linearGradient
       id="linearGradient13533">
      <stop
         style="stop-color:#ff6600;stop-opacity:1;"
         offset="0"
         id="stop13529" />
      <stop
         style="stop-color:#198500;stop-opacity:0.78823531"
         offset="1"
         id="stop13531" />
    </linearGradient>
    <clipPath
       clipPathUnits="userSpaceOnUse"
       id="clipPath13372">
      <circle
         style="opacity:1;fill:#ffeeaa"
         id="circle13374"
         cx="145.82672"
         cy="117.69366"
         r="125.95753" />
    </clipPath>
    <linearGradient
       xlink:href="#linearGradient13533"
       id="linearGradient13535"
       x1="125.95483"
       y1="232.85649"
       x2="128.1006"
       y2="205.55107"
       gradientUnits="userSpaceOnUse" />
    <linearGradient
       id="linearGradient70624">
      <stop
         style="stop-color:#d07d00;stop-opacity:1"
         offset="0"
         id="stop70618" />
      <stop
         style="stop-color:#f2a900;stop-opacity:1"
         offset="0.38806212"
         id="stop70626" />
      <stop
         style="stop-color:#ffb303;stop-opacity:1"
         offset="0.45716491"
         id="stop70620" />
      <stop
         style="stop-color:#ffdb4b;stop-opacity:0.98313582"
         offset="1"
         id="stop70622" />
    </linearGradient>
    <linearGradient
       id="linearGradient34141">
      <stop
         style="stop-color:#b67a00;stop-opacity:1"
         offset="0"
         id="stop34137" />
      <stop
         style="stop-color:#df9500;stop-opacity:1"
         offset="1"
         id="stop34139" />
    </linearGradient>
    <linearGradient
       id="linearGradient843">
      <stop
         style="stop-color:#fecb00;stop-opacity:1;"
         offset="0"
         id="stop839" />
      <stop
         style="stop-color:#db9300;stop-opacity:1"
         offset="0.45716491"
         id="stop911" />
      <stop
         style="stop-color:#ffdb4b;stop-opacity:0.98313582"
         offset="1"
         id="stop841" />
    </linearGradient>
    <style
       id="style2">.cls-1{fill:#fecb00;}.cls-2{fill:#d08b00;}.cls-2,.cls-3{fill-rule:evenodd;}.cls-3{fill:#db9300;}.cls-4{fill:#b17600;}</style>
    <filter
       style="color-interpolation-filters:sRGB"
       id="filter19508"
       x="0"
       y="0"
       width="1.0146801"
       height="1.0410404">
      <feFlood
         flood-opacity="0.25098"
         flood-color="rgb(0,0,0)"
         result="flood"
         id="feFlood19498" />
      <feComposite
         in="flood"
         in2="SourceGraphic"
         operator="in"
         result="composite1"
         id="feComposite19500" />
      <feGaussianBlur
         in="composite1"
         stdDeviation="0"
         result="blur"
         id="feGaussianBlur19502" />
      <feOffset
         dx="1"
         dy="1.5"
         result="offset"
         id="feOffset19504" />
      <feComposite
         in="SourceGraphic"
         in2="offset"
         operator="over"
         result="composite2"
         id="feComposite19506" />
    </filter>
    <linearGradient
       xlink:href="#linearGradient843"
       id="linearGradient845"
       x1="-2.6850979"
       y1="97.231911"
       x2="122.91757"
       y2="61.459969"
       gradientUnits="userSpaceOnUse"
       gradientTransform="translate(-93.079736,199.69703)" />
    <linearGradient
       xlink:href="#linearGradient34141"
       id="linearGradient34143"
       x1="9.2527075"
       y1="22.148653"
       x2="114.14"
       y2="61.43"
       gradientUnits="userSpaceOnUse" />
    <linearGradient
       xlink:href="#linearGradient70624"
       id="linearGradient57356"
       x1="26.460178"
       y1="102.13474"
       x2="61.439999"
       y2="8.7399998"
       gradientUnits="userSpaceOnUse" />
    <linearGradient
       xlink:href="#linearGradient843"
       id="linearGradient71504"
       x1="27.361055"
       y1="45.928825"
       x2="100.19882"
       y2="63.918098"
       gradientUnits="userSpaceOnUse" />
  </defs>
  <g
     id="g8"
     transform="translate(46.796434,32.819196)">
    <g
       id="tree"
       transform="translate(-44.079094,-0.23162896)">
      <circle
         style="opacity:1;fill:#cef6ff;fill-opacity:1"
         id="path10052"
         cx="142.62286"
         cy="112.75271"
         r="125.95753" />
      <rect
         style="opacity:1;fill:url(#linearGradient13535);fill-opacity:1;stroke-width:0.724624"
         id="soil"
         width="185.0477"
         height="40.392281"
         x="52.169941"
         y="203.84195"
         clip-path="url(#clipPath13372)"
         transform="translate(-2.0709248,-4)" />
      <path
         style="opacity:1;fill:#8b573c"
         d="m 107.16501,208.14898 c -1.10748,-0.72345 -1.05608,-2.72762 0.30161,-11.76052 0.90013,-5.98865 1.90012,-15.39407 2.2222,-20.90092 0.55356,-9.46437 0.43934,-10.30112 -2.08664,-15.2859 -1.46974,-2.9004 -4.28385,-7.05729 -6.25358,-9.23754 C 97.192732,146.36405 93.363912,145.77876 88.5,149 c -20.723841,-9.00273 2.909765,-12.07085 6.522869,-7.26198 l 7.508221,7.63101 C 106.66062,153.56605 110.25547,157 110.51966,157 110.78385,157 111,150.65898 111,142.90885 v -14.09116 l -4.64648,-8.99644 c -2.55556,-4.94804 -5.18914,-9.20468 -5.85239,-9.45919 -12.0031,-15.525314 9.22716,-45.794216 18.32299,1.63794 -0.37173,2.475 -0.70923,6.88371 -0.75,9.79712 l -0.0741,5.29713 3.75,-2.92998 c -4.5874,14.01091 26.18139,15.08726 12.6035,20.33517 -1.56942,0.81853 -4.08063,1.49101 -5.58045,1.4944 -5.9584,0.0135 -8.31272,8.65993 -9.25944,34.00616 -0.38005,10.175 -0.98859,20.75 -1.35231,23.5 l -0.6613,5 -4.5,0.26052 c -2.475,0.14328 -5.10074,-0.13191 -5.83499,-0.61154 z M 123,144 c 0,-0.96531 -0.66968,-2.31089 -1.48817,-2.99018 -1.92222,-1.5953 -3.02085,0.82593 -2.07848,4.58067 0.53476,2.13063 0.90594,2.37281 2.10785,1.37532 C 122.34354,146.29992 123,144.96531 123,144 Z M 109.57906,108.75 C 108.74136,99.810271 108.22979,98 106.54119,98 c -1.62936,0 -4.83843,7.68193 -3.89166,9.31592 1.33219,2.29915 6.52574,8.68408 7.06371,8.68408 0.29985,0 0.23947,-3.2625 -0.13418,-7.25 z"
         id="trunc" />
      <circle
         style="opacity:1;fill:#ffeeaa"
         id="sun"
         cx="186.60593"
         cy="60.754234"
         r="31.986942" />
      <g
         id="g18754"
         transform="matrix(2.3647935,0,0,2.3647935,-2.7107808,-32.587993)"
         style="display:inline">
        <path
           id="border"
           style="display:inline;fill:url(#linearGradient845);fill-opacity:1"
           class="cls-1"
           d="m -31.640625,199.69727 a 61.21,61.21 0 0 0 -43.439453,18 61.46,61.46 0 1 0 43.439453,-18 z m 1.841797,12.41015 a 50.87,50.87 0 1 1 -50.871094,50.86914 50.87,50.87 0 0 1 50.871094,-50.86914 z"
           transform="translate(93.079736,-199.69703)" />
        <path
           class="cls-2"
           d="m 61.44,8.74 a 52.69,52.69 0 0 1 52.7,52.7 c 0,0.31 0,0.61 0,0.92 a 50.86,50.86 0 1 0 -51.77,51.77 h -0.92 a 52.7,52.7 0 0 1 0,-105.4 z"
           id="path10"
           style="fill:url(#linearGradient34143);fill-opacity:1" />
      </g>
      <path
         fill="currentColor"
         d="m 174.26691,88.522814 c 1.40304,0 2.77055,0.12431 4.13736,0.3552 3.43548,-8.198002 11.46299,-13.994852 20.86866,-13.994852 3.7296,0 7.38815,0.959038 10.67445,2.735033 1.31423,-1.456316 2.85864,-2.628473 4.49255,-3.677021 -3.26072,-4.900328 -8.83024,-8.15111 -15.167,-8.15111 -4.48971,0 -8.53899,1.687906 -11.70736,4.368949 -3.16838,-5.327987 -8.92261,-8.9155 -15.57194,-8.9155 -10.05213,0 -18.18619,8.134062 -18.18619,18.186199 0,5.434542 2.4324,10.248202 6.21599,13.587082 4.04926,-2.81745 8.95812,-4.49398 14.24348,-4.49398 z m 36.71339,-4.71705 c -3.16838,-2.685304 -7.21765,-4.376052 -11.70737,-4.376052 -7.34551,0 -13.62544,4.376052 -16.49544,10.627562 2.21643,0.80985 4.34763,1.91807 6.26571,3.33887 4.13451,-3.16838 9.24938,-4.87333 14.77628,-4.87333 7.79733,0 14.93257,3.67702 19.74908,9.82196 1.71916,-0.47312 3.48095,-0.72887 5.25694,-0.72887 5.04383,0 9.60885,1.90103 13.17789,4.937276 1.71206,-2.763456 2.73503,-5.988666 2.73503,-9.483826 0,-10.05213 -8.13406,-18.186192 -18.1862,-18.186192 -6.63511,0 -12.38934,3.594616 -15.57192,8.922602 z m 17.8452,18.356686 c -2.55743,0 -4.93727,0.65713 -7.06847,1.72201 -3.5733,-6.538506 -10.15158,-10.815106 -17.93755,-10.815106 -5.82527,0 -11.03959,2.45798 -14.77628,6.36517 -3.72249,-3.90719 -8.95103,-6.36517 -14.77629,-6.36517 -11.29533,0 -20.45947,9.164136 -20.45947,20.459476 0,11.29533 9.16414,20.45947 20.45947,20.45947 h 54.55859 c 8.79189,0 15.91292,-7.12245 15.91292,-15.91293 0,-8.79046 -7.11819,-15.91292 -15.91292,-15.91292 z"
         id="cloud"
         style="fill:#000000;fill-opacity:0.842505;stroke-width:0.14208" />
      <path
         id="arrow"
         style="opacity:1;fill:#000000;fill-opacity:0.48834;stroke-width:1.64706"
         d="m 180.34985,143.02161 v 31.1289 h -12.84179 l 13.08398,22.66211 13.08398,22.66211 13.08399,-22.66211 13.08398,-22.66211 h -12.84375 v -31.1289 z" />
      <path
         style="opacity:1;fill:#5d8c25;fill-opacity:1"
         d="m 74,149.05485 c -1.925,-1.04456 -6.597953,-3.39672 -10.384341,-5.22703 -8.400858,-4.06089 -10.582146,-7.57893 -8.213737,-13.24733 C 56.963496,126.84312 59.556846,125 63.253923,125 c 1.322929,0 3.392912,-1.15873 4.647394,-2.60152 1.866625,-2.1468 2.815772,-2.48925 5.430336,-1.95923 3.985221,0.80787 5.357385,0.80451 9.49498,-0.0232 2.542598,-0.50865 4.584363,-0.0292 8.663139,2.03452 6.414227,3.24531 8.28243,5.16048 9.120248,9.34957 0.54962,2.74812 0.0974,3.7352 -3.406035,7.43438 -2.221893,2.34604 -5.606747,5.95302 -7.521896,8.01552 -3.005861,3.23713 -4.077016,3.74686 -7.832089,3.72703 -2.3925,-0.0126 -5.925,-0.87761 -7.85,-1.92218 z m 65.78624,-4.14354 c -2.1872,-1.63235 -3.35141,-1.85512 -6,-1.14812 -6.80099,1.81541 -12.78005,-1.18437 -14.84766,-7.44929 -2.35627,-7.13957 1.62457,-13.88519 9.25826,-15.68831 1.48326,-0.35035 3.46772,-1.94202 4.40993,-3.53704 5.00027,-8.46479 18.28892,-9.33732 25.36627,-1.66556 1.36017,1.47441 4.31758,3.49667 6.57202,4.49392 8.16568,3.61207 9.60893,13.10666 2.88916,19.0067 -2.96814,2.60606 -4.3127,3.07639 -8.7947,3.07639 -4.35065,0 -5.70827,0.44427 -7.63952,2.5 -2.89391,3.08042 -7.41518,3.24626 -11.21376,0.41131 z M 76.5,113.66534 c -1.65,-0.75061 -4.41496,-2.55738 -6.144356,-4.01505 -1.791787,-1.51024 -4.372733,-2.6519 -6,-2.65403 C 57.459063,106.98723 51.007476,99.739072 51.007476,92 c 0,-8.660949 6.445578,-14.98936 15.273909,-14.996262 6.465249,-0.0051 6.992864,-1.871685 1.898767,-6.717583 C 63.4499,65.786375 62.102448,60.804918 63.849086,54.274437 64.482089,51.90771 65,48.598172 65,46.919907 c 0,-5.381078 4.145109,-11.107899 9.735207,-13.450017 2.291025,-0.959885 3.711649,-2.546221 4.867718,-5.435522 2.158101,-5.393625 8.360223,-10.586149 14.365076,-12.026692 6.058099,-1.453314 12.030019,-0.04223 17.223359,4.069652 4.50537,3.567173 6.35919,3.634574 11.95657,0.434717 7.63117,-4.362518 16.59285,-3.202909 24.1788,3.128649 1.61441,1.34746 4.13703,2.359306 5.88196,2.359306 4.5235,0 9.74805,3.693812 11.88743,8.404537 2.36778,5.213657 2.34306,8.030795 -0.11808,13.454667 C 163.89012,50.256766 163,53.424117 163,54.897762 c 0,1.473645 -0.9,4.444652 -2,6.602238 -1.1,2.157586 -2,4.227654 -2,4.600151 0,0.372497 1.52935,0.964175 3.39855,1.31484 13.02939,2.444328 15.89243,20.559365 4.36059,27.590411 -2.03401,1.240153 -5.03504,1.988527 -7.98346,1.99086 -4.14158,0.0033 -4.89988,0.343236 -6.14762,2.756099 -3.47748,6.724709 -10.01358,8.556729 -15.6529,4.387399 -3.04663,-2.25247 -3.05606,-2.25297 -6.26319,-0.32899 -7.0591,4.23478 -14.93578,3.02294 -20.63628,-3.17493 C 108.74231,99.186126 107.14079,98 106.51675,98 c -0.62404,0 -2.2331,2.36162 -3.57568,5.24804 -3.44536,7.40717 -8.921599,11.05688 -17.211644,11.47092 -3.779664,0.18878 -7.409195,-0.22557 -9.229426,-1.05362 z"
         id="leaves" />
      <text
         xml:space="preserve"
         style="font-style:normal;font-weight:normal;font-size:40px;line-height:1.25;font-family:sans-serif;text-align:end;text-anchor:end;fill:#800000;fill-opacity:1;stroke:none"
         x="240.86642"
         y="195.1958"
         id="number"><tspan
           id="tspan3864"
           x="240.86642"
           y="195.1958">#550</tspan></text>
    </g>
  </g>
</svg>
