<svg width="128" height="128" viewBox="0 0 128 128" fill="none" xmlns="http://www.w3.org/2000/svg">
<circle cx="64" cy="64" r="64" fill="#23C1AA"/>
<path d="M59.6358 72.8247L22.7287 50.7203C20.9933 49.6803 19.4542 48.2002 18.2113 46.3762C16.9684 44.5523 16.0496 42.4252 15.5146 40.1333L15.25 39L15.2766 39.0195L52.0655 60.7318C54.0033 61.8755 55.6975 63.5651 57.0122 65.6652C58.3269 67.7652 59.2254 70.2172 59.6358 72.8245L59.6358 72.8247Z" fill="white"/>
<path d="M53.3576 109.911L33.6292 98.3971C32.0174 97.4568 30.585 96.1044 29.4265 94.4291C28.2681 92.7538 27.4098 90.7936 26.9084 88.678C26.7802 88.1372 26.6504 87.5892 26.5189 87.034L26.6559 87.1123V87.1188L54.4375 103.329C54.912 103.605 55.4392 103.714 55.9606 103.642C56.482 103.57 56.977 103.321 57.3907 102.922C57.8044 102.523 58.1204 101.989 58.3037 101.381C58.487 100.773 58.5303 100.114 58.4289 99.4774C58.0526 97.1156 57.2353 94.8953 56.0421 92.9938C54.849 91.0923 53.3131 89.5621 51.557 88.5256L27.9973 74.6185C26.4118 73.6818 25.0018 72.346 23.8574 70.6966C22.713 69.0472 21.8594 67.1205 21.3512 65.0396C21.1863 64.3647 21.0344 63.7362 20.9106 63.2126L21.016 63.2713L52.662 81.9535C55.5211 83.6413 58.0218 86.1325 59.9646 89.2283C61.9074 92.3241 63.2385 95.9388 63.8516 99.784C64.1186 101.458 64.0049 103.191 63.5231 104.79C63.0414 106.39 62.2104 107.792 61.1228 108.842C60.0351 109.891 58.7334 110.547 57.3625 110.735C55.9915 110.924 54.6052 110.639 53.3576 109.911Z" fill="white"/>
<path d="M68.3643 72.8247L105.271 50.7203C107.007 49.6802 108.546 48.2002 109.789 46.3762C111.032 44.5523 111.95 42.4252 112.485 40.1333C112.577 39.7433 112.665 39.3656 112.75 39L112.724 39.0195L75.9346 60.7318C73.9968 61.8755 72.3026 63.5651 70.9879 65.6652C69.6732 67.7652 68.7746 70.2172 68.3643 72.8245V72.8247Z" fill="white"/>
<path d="M74.641 109.911L94.3694 98.3971C95.9812 97.4568 97.4136 96.1044 98.5721 94.4291C99.7306 92.7538 100.589 90.7936 101.09 88.678C101.218 88.1372 101.348 87.5892 101.48 87.034L101.343 87.1122V87.1188L73.5611 103.329C73.0866 103.605 72.5593 103.714 72.038 103.642C71.5166 103.57 71.0215 103.321 70.6078 102.922C70.1942 102.523 69.8781 101.989 69.6948 101.381C69.5116 100.773 69.4682 100.114 69.5697 99.4773C69.946 97.1155 70.7633 94.8952 71.9564 92.9937C73.1495 91.0922 74.6854 89.562 76.4415 88.5254L100.001 74.6184C101.587 73.6817 102.997 72.3459 104.141 70.6966C105.286 69.0472 106.139 67.1204 106.647 65.0396C106.812 64.3647 106.964 63.7362 107.088 63.2126L106.983 63.2713L75.3365 81.9535C72.4774 83.6413 69.9767 86.1325 68.0339 89.2283C66.0911 92.3241 64.7601 95.9388 64.1469 99.784C63.8798 101.458 63.9936 103.191 64.4753 104.791C64.9571 106.39 65.7881 107.792 66.8758 108.842C67.9634 109.891 69.2651 110.547 70.6361 110.736C72.007 110.924 73.3934 110.639 74.641 109.911Z" fill="white"/>
<path d="M39 56C48.941 56 57 47.941 57 38C57 28.0589 48.941 20 39 20C29.0589 20 21 28.0589 21 38C21 47.941 29.0589 56 39 56Z" fill="#2DD6A0"/>
<path fill-rule="evenodd" clip-rule="evenodd" d="M39 55.4593C48.6426 55.4593 56.4593 47.6424 56.4593 38C56.4593 28.3575 48.6426 20.5407 39 20.5407C29.3574 20.5407 21.5406 28.3575 21.5406 38C21.5406 47.6424 29.3574 55.4593 39 55.4593ZM57 38C57 47.941 48.941 56 39 56C29.0589 56 21 47.941 21 38C21 28.0589 29.0589 20 39 20C48.941 20 57 28.0589 57 38Z" fill="black"/>
<path fill-rule="evenodd" clip-rule="evenodd" d="M39.0003 23.1203C30.7825 23.1203 24.1206 29.7822 24.1206 38C24.1206 46.2177 30.7825 52.8797 39.0003 52.8797C47.2182 52.8797 53.8802 46.2177 53.8802 38C53.8802 29.7822 47.2182 23.1203 39.0003 23.1203ZM23.5718 38C23.5718 29.479 30.4794 22.5714 39.0003 22.5714C47.5213 22.5714 54.429 29.479 54.429 38C54.429 46.521 47.5213 53.4285 39.0003 53.4285C30.4794 53.4285 23.5718 46.521 23.5718 38Z" fill="black"/>
<path d="M35.7856 44.8326H37.0774V31.1673H35.7856V30.2857H40.2539C40.6915 30.2857 41.1716 30.3592 41.6939 30.5061C42.2163 30.6531 42.7032 30.8882 43.155 31.2114C43.621 31.5347 44.0091 31.9535 44.3198 32.4678C44.6303 32.982 44.7856 33.5992 44.7856 34.3192C44.7856 35.5829 44.3974 36.5894 43.621 37.3388C42.8585 38.0882 41.7503 38.4629 40.2962 38.4629H37.9456V44.8326H40.0421V45.7142H35.7856V44.8326ZM37.9456 37.5592H40.1479C40.8821 37.5592 41.4891 37.4563 41.9692 37.2506C42.4633 37.0449 42.8515 36.7804 43.1339 36.4571C43.4304 36.1339 43.6351 35.7886 43.7479 35.4212C43.861 35.0392 43.9175 34.6718 43.9175 34.3192C43.9175 33.9078 43.8187 33.511 43.621 33.129C43.4374 32.7469 43.1762 32.409 42.8375 32.1151C42.4985 31.8212 42.0962 31.5935 41.6304 31.4318C41.1786 31.2555 40.6915 31.1673 40.1692 31.1673H37.9456V37.5592Z" fill="black"/>
<path d="M35.7856 32.8571H46.0714V33.5H35.7856V32.8571Z" fill="black"/>
<path d="M35.7856 35.4286H46.0714V36.0714H35.7856V35.4286Z" fill="black"/>
<path d="M89 56C98.9411 56 107 47.9411 107 38C107 28.0589 98.9411 20 89 20C79.0589 20 71 28.0589 71 38C71 47.9411 79.0589 56 89 56Z" fill="#1B262D"/>
<path fill-rule="evenodd" clip-rule="evenodd" d="M80.7283 27.6313H97.5726C97.9745 27.6313 98.3458 27.8455 98.5462 28.193L103.454 36.7001C103.708 37.1412 103.633 37.6981 103.27 38.0558L89.7617 51.3684C89.3242 51.7996 88.6203 51.7996 88.1827 51.3684L74.6932 38.0738C74.3217 37.7078 74.2522 37.1347 74.5253 36.6908L79.771 28.1657C79.9753 27.8337 80.3378 27.6313 80.7283 27.6313ZM95.3977 31.4295V33.8164H90.5995V35.4714C93.9694 35.6482 96.4978 36.3746 96.5165 37.2453L96.5164 39.0602C96.4977 39.9309 93.9694 40.6572 90.5995 40.8341V44.8955H87.4134V40.8341C84.0434 40.6572 81.515 39.9309 81.4963 39.0602L81.4964 37.2453C81.5151 36.3746 84.0434 35.6482 87.4134 35.4714V33.8164H82.6151V31.4295H95.3977ZM89.0064 39.5872C92.6028 39.5872 95.6087 38.973 96.3443 38.1528C95.7205 37.4572 93.4641 36.9098 90.5995 36.7595V38.4922C90.086 38.5191 89.553 38.5333 89.0064 38.5333C88.4598 38.5333 87.9268 38.5191 87.4134 38.4922V36.7595C84.5487 36.9098 82.2923 37.4572 81.6685 38.1528C82.4041 38.973 85.41 39.5872 89.0064 39.5872Z" fill="#009393"/>
<path d="M64 44C73.9751 44 82 35.9751 82 26C82 16.0249 73.9751 8 64 8C54.0249 8 46 16.0249 46 26C46 35.9751 54.0249 44 64 44Z" fill="#2775CA"/>
<path d="M68.9498 28.8499C68.9498 26.225 67.3748 25.325 64.2248 24.9501C61.9748 24.65 61.5248 24.0501 61.5248 23C61.5248 21.9498 62.2749 21.275 63.7748 21.275C65.1248 21.275 65.8749 21.725 66.2498 22.85C66.3249 23.075 66.5499 23.225 66.7749 23.225H67.9747C68.2748 23.225 68.4998 23 68.4998 22.7001V22.625C68.1997 20.975 66.8498 19.7 65.1248 19.5501V17.7501C65.1248 17.45 64.8998 17.225 64.5249 17.15H63.3999C63.0998 17.15 62.8748 17.375 62.7998 17.7501V19.475C60.5498 19.7751 59.1249 21.275 59.1249 23.1501C59.1249 25.6251 60.6248 26.6 63.7748 26.9751C65.8749 27.35 66.5499 27.8 66.5499 29.0001C66.5499 30.2001 65.4998 31.0251 64.0749 31.0251C62.1248 31.0251 61.4498 30.1999 61.2248 29.0749C61.1499 28.7751 60.9249 28.6249 60.6999 28.6249H59.4248C59.1249 28.6249 58.8999 28.8499 58.8999 29.15V29.2251C59.1998 31.0999 60.3998 32.4499 62.8748 32.8251V34.6251C62.8748 34.9249 63.0998 35.1499 63.4748 35.225H64.5998C64.8998 35.225 65.1248 35 65.1999 34.6251V32.8251C67.4499 32.4499 68.9498 30.8749 68.9498 28.8499Z" fill="white"/>
<path d="M60.175 36.725C54.325 34.6251 51.3249 28.1001 53.5001 22.325C54.6251 19.175 57.1001 16.775 60.175 15.65C60.4751 15.5001 60.625 15.2751 60.625 14.8999V13.85C60.625 13.5499 60.4751 13.3249 60.175 13.2501C60.0999 13.2501 59.95 13.2501 59.8749 13.3249C52.75 15.5749 48.8499 23.1501 51.0999 30.275C52.4499 34.475 55.675 37.7001 59.8749 39.0501C60.175 39.2 60.4751 39.0501 60.5499 38.75C60.625 38.6751 60.625 38.6001 60.625 38.4501V37.4C60.625 37.175 60.4 36.8751 60.175 36.725ZM68.1251 13.3249C67.825 13.175 67.5249 13.3249 67.4501 13.625C67.375 13.7001 67.375 13.7749 67.375 13.9251V14.975C67.375 15.2751 67.6 15.5749 67.825 15.7251C73.675 17.825 76.6751 24.35 74.4999 30.1251C73.3749 33.2751 70.8999 35.6751 67.825 36.8001C67.5249 36.95 67.375 37.175 67.375 37.5501V38.6001C67.375 38.9001 67.5249 39.1251 67.825 39.2C67.9001 39.2 68.05 39.2 68.1251 39.1251C75.25 36.8751 79.1501 29.3 76.9001 22.175C75.5501 17.9 72.2499 14.6749 68.1251 13.3249Z" fill="white"/>
</svg>
