<?xml version="1.0" encoding="UTF-8"?>
<svg width="159px" height="139px" viewBox="0 0 159 139" version="1.1" xmlns="http://www.w3.org/2000/svg" xmlns:xlink="http://www.w3.org/1999/xlink">
    <!-- Generator: Sketch 51.2 (57519) - http://www.bohemiancoding.com/sketch -->
    <title>ICON / CHEST CLOSE key</title>
    <desc>Created with Sketch.</desc>
    <defs>
        <linearGradient x1="50%" y1="130.695094%" x2="50%" y2="-20.3787202%" id="linearGradient-1">
            <stop stop-color="#FF770D" offset="0%"></stop>
            <stop stop-color="#FFED7D" offset="100%"></stop>
        </linearGradient>
        <linearGradient x1="139.774436%" y1="150.11665%" x2="-32.6992857%" y2="-95.2414235%" id="linearGradient-2">
            <stop stop-color="#FF770D" offset="0%"></stop>
            <stop stop-color="#FFED7D" offset="100%"></stop>
        </linearGradient>
        <linearGradient x1="138.077109%" y1="117.328944%" x2="-14.5605769%" y2="-30.2975256%" id="linearGradient-3">
            <stop stop-color="#FF770D" offset="0%"></stop>
            <stop stop-color="#FFED7D" offset="100%"></stop>
        </linearGradient>
        <linearGradient x1="88.9374392%" y1="108.925676%" x2="19.1249635%" y2="-29.2332808%" id="linearGradient-4">
            <stop stop-color="#FF770D" offset="0%"></stop>
            <stop stop-color="#FFED7D" offset="100%"></stop>
        </linearGradient>
    </defs>
    <g id="Treasure-Hunters-AO" stroke="none" stroke-width="1" fill="none" fill-rule="evenodd">
        <g id="ICON-/-CHEST-CLOSE-Copy">
            <g id="Fichier-1TH-CHEST-CLOSE-Copy">
                <path d="M115.555556,2.07792208 L44.4444444,2.07792208 C44.4444444,2.07792208 27.1895425,10.3896104 27.1895425,42.5974026 L132.810458,42.5974026 C132.810458,10.3896104 115.555556,2.07792208 115.555556,2.07792208 Z" id="Shape" fill="#B5936E" fill-rule="nonzero"></path>
                <rect id="Rectangle-path" fill="#804E27" fill-rule="nonzero" x="17.6313725" y="35.1480519" width="123.963399" height="2.07792208"></rect>
                <rect id="Rectangle-path" fill="#C4A382" fill-rule="nonzero" x="17.6313725" y="37.225974" width="123.963399" height="1.03896104"></rect>
                <rect id="Rectangle-path" fill="#804E27" fill-rule="nonzero" x="17.6313725" y="24.7480519" width="123.963399" height="2.07792208"></rect>
                <rect id="Rectangle-path" fill="#C4A382" fill-rule="nonzero" x="17.6313725" y="26.825974" width="123.963399" height="1.03896104"></rect>
                <rect id="Rectangle-path" fill="#804E27" fill-rule="nonzero" x="17.6313725" y="14.3480519" width="123.963399" height="2.07792208"></rect>
                <rect id="Rectangle-path" fill="#C4A382" fill-rule="nonzero" x="17.6313725" y="16.425974" width="123.963399" height="1.03896104"></rect>
                <rect id="Rectangle-path" fill="#804E27" fill-rule="nonzero" x="34.7503268" y="5.20519481" width="89.7150327" height="2.07792208"></rect>
                <rect id="Rectangle-path" fill="#C4A382" fill-rule="nonzero" x="34.7503268" y="7.28311688" width="89.7150327" height="1.03896104"></rect>
                <path d="M44.4444444,2.5974026 C44.4444444,2.5974026 27.1895425,10.9090909 27.1895425,43.1168831 L132.810458,43.1168831 C132.810458,10.9090909 115.555556,2.5974026 115.555556,2.5974026" id="Shape" stroke="#804E27" stroke-width="1.03896104"></path>
                <path d="M4.18300654,42.5974026 C4.18300654,42.5974026 4.70588235,0 45.4901961,0 L46.5359477,2.07792208 L44.4444444,2.07792208 C44.4444444,2.07792208 27.1895425,10.3896104 27.1895425,42.5974026 L4.18300654,42.5974026 Z" id="Shape" fill="url(#linearGradient-1)"></path>
                <path d="M155.816993,42.5974026 C155.816993,42.5974026 155.294118,0 114.509804,0 L113.464052,2.07792208 L115.555556,2.07792208 C115.555556,2.07792208 132.810458,10.3896104 132.810458,42.5974026 L155.816993,42.5974026 Z" id="Shape" fill="url(#linearGradient-1)"></path>
                <path d="M8.02091503,24.7480519 C15.8116751,21.7179199 23.7939172,19.1982362 31.9163399,17.2051948 C37.0196078,5.65194805 44.4444444,2.07792208 44.4444444,2.07792208 L46.5359477,2.07792208 L45.4901961,0 C22.8915033,0 12.6535948,13.0805195 8.02091503,24.7480519 Z" id="Shape" fill="#FFE292" fill-rule="nonzero"></path>
                <path d="M43.9215686,0 L41.0457516,2.07792208 C41.0457516,2.07792208 23.7908497,10.3896104 23.7908497,42.5974026 L27.1895425,42.5974026 C27.1895425,10.3896104 44.4444444,2.07792208 44.4444444,2.07792208 L46.5359477,2.07792208 L45.4901961,0 L43.9215686,0 Z" id="Shape" fill="#F38302" fill-rule="nonzero"></path>
                <path d="M114.509804,0 L113.464052,2.07792208 L115.555556,2.07792208 C115.555556,2.07792208 122.729412,5.54805195 127.83268,16.6233766 C132.873203,15.5844156 138.729412,14.3896104 145.338562,13.2571429 C139.262745,5.89090909 129.673203,0 114.509804,0 Z" id="Shape" fill="#FFE292" fill-rule="nonzero"></path>
                <path d="M116.078431,0 L118.975163,2.07792208 C118.975163,2.07792208 136.230065,10.3896104 136.230065,42.5974026 L132.810458,42.5974026 C132.810458,10.3896104 115.555556,2.07792208 115.555556,2.07792208 L113.464052,2.07792208 L114.509804,0 L116.078431,0 Z" id="Shape" fill="#F38302" fill-rule="nonzero"></path>
                <polygon id="Shape" fill="#9A6634" fill-rule="nonzero" points="20.3503268 64.4571429 25.6836601 120.561039 132.224837 120.561039 137.55817 64.4571429"></polygon>
                <polygon id="Shape" fill="#804E27" fill-rule="nonzero" points="21.9607843 64.4571429 136.993464 64.4571429 136.25098 72.2493506 22.6928105 72.187013"></polygon>
                <rect id="Rectangle-path" fill="#804E27" fill-rule="nonzero" x="17.6313725" y="110.690909" width="123.963399" height="2.07792208"></rect>
                <rect id="Rectangle-path" fill="#B5936E" fill-rule="nonzero" x="17.6313725" y="112.768831" width="123.963399" height="1.03896104"></rect>
                <rect id="Rectangle-path" fill="#804E27" fill-rule="nonzero" x="17.6313725" y="100.280519" width="123.963399" height="2.07792208"></rect>
                <rect id="Rectangle-path" fill="#B5936E" fill-rule="nonzero" x="17.6313725" y="102.358442" width="123.963399" height="1.03896104"></rect>
                <rect id="Rectangle-path" fill="#804E27" fill-rule="nonzero" x="17.6313725" y="89.8805195" width="123.963399" height="2.07792208"></rect>
                <rect id="Rectangle-path" fill="#B5936E" fill-rule="nonzero" x="17.6313725" y="91.9584416" width="123.963399" height="1.03896104"></rect>
                <rect id="Rectangle-path" fill="#804E27" fill-rule="nonzero" x="17.6313725" y="79.4805195" width="123.963399" height="2.07792208"></rect>
                <rect id="Rectangle-path" fill="#B5936E" fill-rule="nonzero" x="17.6313725" y="81.5584416" width="123.963399" height="1.03896104"></rect>
                <rect id="Rectangle-path" fill="#804E27" fill-rule="nonzero" x="17.6313725" y="69.0805195" width="123.963399" height="2.07792208"></rect>
                <rect id="Rectangle-path" fill="#B5936E" fill-rule="nonzero" x="17.6313725" y="71.1584416" width="123.963399" height="1.03896104"></rect>
                <path d="M135.843137,65.4545455 L130.813072,118.441558 L28.1411765,118.441558 L23.1111111,65.4545455 L135.843137,65.4545455 Z M136.993464,64.4155844 L21.9607843,64.4155844 L27.1895425,119.480519 L131.764706,119.480519 L136.993464,64.4155844 Z" id="Shape" fill="#804E27" fill-rule="nonzero"></path>
                <rect id="Rectangle-path" fill="url(#linearGradient-2)" x="0" y="40.561039" width="158.954248" height="23.8961039" rx="2.81558442"></rect>
                <path d="M-4.8763619e-15,43.3766234 L-0.000309142129,44.1974026 L158.954558,44.1974026 L158.954248,43.3766234 C158.96545,42.6227095 158.671823,41.8958318 158.139128,41.3587846 C157.606434,40.8217374 156.879185,40.5193984 156.120261,40.5194805 L2.83398693,40.5194805 C2.07506288,40.5193984 1.3478148,40.8217374 0.815120179,41.3587846 C0.282425563,41.8958318 -0.0112018355,42.6227095 -4.8763619e-15,43.3766234 Z" id="Shape" fill="#FFE292" fill-rule="nonzero"></path>
                <path d="M158.954248,61.6415584 L158.954248,61.2987013 L0,61.2987013 L0,61.6 C1.91677769e-16,63.1550043 1.26881917,64.4155844 2.83398693,64.4155844 L156.120261,64.4155844 C157.669238,64.4157521 158.931385,63.1803091 158.954248,61.6415584 Z" id="Shape" fill="#F38302" fill-rule="nonzero"></path>
                <path d="M85.9398693,51.6051948 L82.4261438,51.6051948 C75.1380728,51.6073017 69.0856316,57.1944917 68.5490196,64.4155844 L74.8235294,64.4155844 C75.326734,60.636477 78.5682829,57.8113212 82.4052288,57.8077922 L85.9189542,57.8077922 C89.7638575,57.8008922 93.0173245,60.6286344 93.5215686,64.4155844 L99.7960784,64.4155844 C99.2600697,57.2024549 93.219891,51.6181684 85.9398693,51.6051948 Z" id="Shape" fill="#F38302" fill-rule="nonzero"></path>
                <rect id="Rectangle-path" fill="url(#linearGradient-3)" x="7.32026144" y="119.522078" width="144.313725" height="18.7012987" rx="2.81558442"></rect>
                <path d="M151.633987,123.137662 L151.633987,122.337662 C151.633987,120.782658 150.365168,119.522078 148.8,119.522078 L10.1542484,119.522078 C8.5890806,119.522078 7.32026144,120.782658 7.32026144,122.337662 L7.32026144,123.137662 L151.633987,123.137662 Z" id="Shape" fill="#FFE292" fill-rule="nonzero"></path>
                <path d="M151.633987,135.407792 L151.633987,135.064935 L7.32026144,135.064935 L7.32026144,135.366234 C7.32026144,136.921238 8.5890806,138.181818 10.1542484,138.181818 L148.8,138.181818 C150.348977,138.181986 151.611124,136.946543 151.633987,135.407792 Z" id="Shape" fill="#F38302" fill-rule="nonzero"></path>
                <polygon id="Shape" fill="url(#linearGradient-1)" points="27.1895425 119.522078 9.41176471 119.522078 4.18300654 64.4571429 21.9607843 64.4571429"></polygon>
                <polygon id="Shape" fill="#F38302" fill-rule="nonzero" points="21.9607843 64.4571429 19.0849673 64.4571429 24.3137255 119.522078 27.1895425 119.522078"></polygon>
                <polygon id="Shape" fill="#FFE292" fill-rule="nonzero" points="4.18300654 64.4571429 9.41176471 119.522078 12.0261438 119.522078 6.79738562 64.4571429"></polygon>
                <polygon id="Shape" fill="url(#linearGradient-1)" points="131.764706 119.522078 149.542484 119.522078 154.771242 64.4571429 136.993464 64.4571429"></polygon>
                <polygon id="Shape" fill="#F38302" fill-rule="nonzero" points="136.993464 64.4571429 139.869281 64.4571429 134.640523 119.522078 131.764706 119.522078"></polygon>
                <polygon id="Shape" fill="#FFE292" fill-rule="nonzero" points="154.771242 64.4571429 149.542484 119.522078 146.928105 119.522078 152.156863 64.4571429"></polygon>
                <path d="M74.7712418,65.4545455 C74.7718154,65.1069736 74.7962731,64.7598461 74.8444444,64.4155844 L68.5699346,64.4155844 C68.5699346,64.7480519 68.5699346,65.0701299 68.5699346,65.4545455 L68.5699346,77.2987013 C70.6021073,76.6058759 72.7072343,76.1457553 74.8444444,75.9272727 L74.7712418,65.4545455 Z" id="Shape" fill="#804E25" fill-rule="nonzero"></path>
                <path d="M93.5947712,65.4545455 L93.5947712,75.9272727 C95.7319814,76.1457553 97.8371084,76.6058759 99.869281,77.2987013 L99.869281,65.4545455 C99.869281,65.1220779 99.869281,64.7896104 99.869281,64.4155844 L93.5947712,64.4155844 C93.6185119,64.7615032 93.6185119,65.1086267 93.5947712,65.4545455 Z" id="Shape" fill="#804E25" fill-rule="nonzero"></path>
                <path d="M69.5424837,70.8883117 L69.5424837,60.4155844 C69.5424837,56.2153513 72.9697,52.8103896 77.1973856,52.8103896 L80.7111111,52.8103896 C84.9387967,52.8103896 88.3660131,56.2153513 88.3660131,60.4155844 L88.3660131,70.8883117 C90.5032232,71.1067942 92.6083502,71.5669148 94.6405229,72.2597403 L94.6405229,60.4155844 C94.6405229,52.7725373 88.4041128,46.5766234 80.7111111,46.5766234 L77.1973856,46.5766234 C69.5043839,46.5766234 63.2679739,52.7725373 63.2679739,60.4155844 L63.2679739,72.2597403 C65.3001465,71.5669148 67.4052735,71.1067942 69.5424837,70.8883117 Z" id="Shape" fill="#9A9999" fill-rule="nonzero"></path>
                <path d="M65.8823529,62.3376623 C65.8795781,58.6655419 67.3459118,55.1428783 69.9584841,52.5453221 C72.5710563,49.947766 76.1156424,48.4883107 79.8117647,48.4883117 L83.3254902,48.4883117 C85.7429703,48.4867217 88.1188032,49.1135365 90.2169935,50.3064935 C87.6435557,47.9023192 84.2435941,46.5645434 80.7111111,46.5662338 L77.1973856,46.5662338 C73.5012633,46.5662327 69.9566772,48.025688 67.344105,50.6232442 C64.7315327,53.2208004 63.265199,56.743464 63.2679739,60.4155844 L63.2679699,72.2597403 C64.123583,71.9586431 64.9966127,71.7088432 65.8823529,71.5116883 L65.8823529,62.3376623 Z" id="Shape" fill="#C6C6C6" fill-rule="nonzero"></path>
                <path d="M105.871895,89.2155844 C105.871895,101.787013 93.8248366,117.963636 78.9542484,117.963636 C64.0836601,117.963636 52.0366013,101.818182 52.0366013,89.2155844 C52.0366013,76.612987 64.0941176,75.3662338 78.9542484,75.3662338 C93.8143791,75.3662338 105.871895,76.6441558 105.871895,89.2155844 Z" id="Shape" fill="#804E25" fill-rule="nonzero"></path>
                <path d="M103.006536,82.638961 C103.006536,95.8337662 92.2352941,111.72987 78.9542484,111.72987 C65.6732026,111.72987 54.9019608,95.8337662 54.9019608,82.638961 C54.9019608,69.4441558 65.6732026,68.0935065 78.9542484,68.0935065 C92.2352941,68.0935065 103.006536,69.4337662 103.006536,82.638961 Z" id="Shape" fill="url(#linearGradient-4)"></path>
                <path d="M78.9542484,71.2103896 C94.9856209,71.2103896 99.869281,73.8805195 99.869281,82.638961 C99.869281,94.3272727 90.2169935,108.612987 78.9542484,108.612987 C67.6915033,108.612987 58.0392157,94.3272727 58.0392157,82.638961 C58.0392157,73.8805195 62.9228758,71.2103896 78.9542484,71.2103896 Z M78.9542484,68.0935065 C65.6732026,68.0935065 54.9019608,69.4441558 54.9019608,82.638961 C54.9019608,95.8337662 65.6732026,111.72987 78.9542484,111.72987 C92.2352941,111.72987 103.006536,95.8337662 103.006536,82.638961 C103.006536,69.4441558 92.2352941,68.0935065 78.9542484,68.0935065 Z" id="Shape" fill="#FFE292" fill-rule="nonzero" opacity="0.395926339"></path>
                <path d="M85.2287582,83.6779221 C85.2318804,80.6519129 83.0471867,78.0607102 80.0480327,77.5332119 C77.0488787,77.0057136 74.1015757,78.6942886 73.0588756,81.5374544 C72.0161755,84.3806201 73.1792641,87.5571229 75.8169935,89.0701299 L75.8169935,95.1064935 C75.8169935,96.8279005 77.2215903,98.2233766 78.9542484,98.2233766 C80.6869064,98.2233766 82.0915033,96.8279005 82.0915033,95.1064935 L82.0915033,89.0701299 C84.0308541,87.9577174 85.2264612,85.9027482 85.2287582,83.6779221 Z" id="Shape" fill="#3C3C3B" fill-rule="nonzero"></path>
                <path d="M78.9542484,77.4441558 C81.7896762,77.4491396 84.2693952,79.3427348 85.0036355,82.0636673 C85.7378759,84.7845998 84.5441566,87.6566359 82.0915033,89.0701299 L82.0915033,95.1064935 C82.0915033,96.8279005 80.6869064,98.2233766 78.9542484,98.2233766 C77.2215903,98.2233766 75.8169935,96.8279005 75.8169935,95.1064935 L75.8169935,89.0701299 C73.3643401,87.6566359 72.1706209,84.7845998 72.9048612,82.0636673 C73.6391015,79.3427348 76.1188205,77.4491396 78.9542484,77.4441558 Z M78.9542484,75.3662338 C75.4046306,75.3689814 72.2431746,77.5968867 71.0672047,80.9243012 C69.8912347,84.2517157 70.9567864,87.9541854 73.7254902,90.161039 L73.7254902,95.1064935 C73.7254902,97.9755052 76.066485,100.301299 78.9542484,100.301299 C81.8420118,100.301299 84.1830065,97.9755052 84.1830065,95.1064935 L84.1830065,90.161039 C86.9517103,87.9541854 88.017262,84.2517157 86.8412921,80.9243012 C85.6653221,77.5968867 82.5038661,75.3689814 78.9542484,75.3662338 Z" id="Shape" fill="#FFE292" fill-rule="nonzero" opacity="0.395926339"></path>
                <rect id="Rectangle-path" fill="#FFE292" fill-rule="nonzero" x="73.7254902" y="42.5974026" width="10.4575163" height="20.3012987" rx="1.2987013"></rect>
                <path d="M82.875817,42.5974026 L78.9542484,42.5973584 L78.9542484,62.8987455 L82.875817,62.8987013 C83.5879601,62.9044989 84.1715439,62.3386197 84.1830065,61.6311688 L84.1830065,43.8649351 C84.1715439,43.1574842 83.5879601,42.591605 82.875817,42.5974026 Z" id="Shape" fill="#F38302" fill-rule="nonzero"></path>
                <polygon id="Shape" fill="#F38302" fill-rule="nonzero" points="22.5673203 70.8779221 21.9607843 64.4571429 4.18300654 64.4571429 4.78954248 70.8779221"></polygon>
                <polygon id="Shape" fill="#F38302" fill-rule="nonzero" points="136.386928 70.8779221 136.993464 64.4571429 154.771242 64.4571429 154.164706 70.8779221"></polygon>
            </g>
        </g>
    </g>
</svg>