<svg width="232" height="48" viewBox="0 0 232 48" fill="none" xmlns="http://www.w3.org/2000/svg">
<path d="M16.7182 24.9002C12.4775 28.4067 12.6375 34.939 16.4267 39.03C21.0154 43.9788 29.0547 43.1021 32.6654 37.3899C35.0068 33.6948 34.6682 29.1609 31.697 25.5506C31.6311 25.4657 31.509 25.4469 31.4149 25.5129L30.7849 25.9466C30.7755 25.956 30.7661 25.956 30.7567 25.9654L26.5912 29.2929C26.4032 29.4435 26.3656 29.717 26.516 29.9055C27.6161 31.3195 27.4563 33.3838 26.0553 34.6092C24.7766 35.7214 22.8394 35.7214 21.5607 34.6092C20.0468 33.2895 19.9905 30.9895 21.3727 29.585C21.3821 29.5755 21.3821 29.5755 21.3915 29.5661L21.9838 29.0666L38.6456 15.738C38.9371 15.5023 39.3698 15.7097 39.3698 16.0867V41.3678C39.3698 41.4998 39.426 41.6316 39.5389 41.7165L47.1741 47.9001C47.4656 48.1358 47.898 47.9283 47.898 47.5514V3.79492V0.44863C47.898 0.0716591 47.4656 -0.135769 47.1741 0.0999454L23.9584 18.9146L16.7182 24.9002Z" fill="#54EDE4"/>
<path d="M18.8339 14.7767L0.742764 0.118998C0.441861 -0.116716 0 0.090713 0 0.477113V3.79511V47.5421C0 47.9285 0.441861 48.136 0.742764 47.9002L8.34967 41.7355C8.45317 41.6506 8.51903 41.5188 8.51903 41.3774V16.1246C8.51903 15.7382 8.96089 15.5308 9.26179 15.7665L14.9411 20.3099L15.8439 21.0451C16.013 21.1771 16.2481 21.1865 16.4174 21.0545L21.0529 17.4348C21.2786 17.2651 21.288 16.9353 21.0812 16.7373C20.3572 16.0586 19.6049 15.4082 18.8339 14.7767Z" fill="#03CEE4"/>
<path d="M21.8712 9.35623C20.9591 8.22514 21.1282 6.56606 22.2566 5.6424C23.3849 4.728 25.0398 4.89772 25.9613 6.0288C26.4691 6.66034 26.6384 7.45217 26.4973 8.18743L29.3275 11.694C31.1047 9.2808 31.1047 5.87794 29.1396 3.44606C26.7982 0.552173 22.5575 0.109203 19.6708 2.4564C16.7842 4.80343 16.3422 9.05469 18.6836 11.9486C20.6582 14.3899 23.9679 15.0874 26.6949 13.8432L23.874 10.3272C23.1217 10.3178 22.3789 9.97834 21.8712 9.35623Z" fill="#A5FFF5"/>
<path d="M88.5985 15.7282C88.5985 13.6586 89.3371 11.8757 90.7996 10.4104C92.2769 8.94482 94.0407 8.20459 96.1062 8.20459C97.9304 8.20459 99.5434 8.79379 100.93 9.97219C102.332 11.1355 103.177 12.6312 103.493 14.4441L107.504 38.8433H105.8L101.82 14.7312C101.579 13.3262 100.915 12.178 99.845 11.2865C98.7746 10.3802 97.5383 9.92693 96.1212 9.92693C94.5231 9.92693 93.1514 10.486 92.0357 11.6189C90.9051 12.7521 90.3322 14.1269 90.3322 15.7282V35.4742C90.3322 36.0182 90.1362 36.5016 89.7593 36.8944C89.3522 37.2871 88.8848 37.4685 88.3422 37.4685C87.7994 37.4685 87.317 37.272 86.9099 36.8944C86.518 36.5016 86.337 36.0182 86.337 35.4742L86.3219 15.7282C86.3219 14.1269 85.7491 12.7521 84.6034 11.6189C83.4727 10.486 82.1158 9.92693 80.5179 9.92693C79.1006 9.92693 77.8645 10.3802 76.7942 11.2865C75.6935 12.178 75.0454 13.3262 74.8042 14.7312L70.8242 38.8433H69.1055L73.1156 14.4441C73.4172 12.6312 74.2764 11.1506 75.6785 9.98727C77.0805 8.80887 78.6786 8.21967 80.5027 8.21967C82.5681 8.21967 84.347 8.96007 85.8094 10.4254C87.2717 11.891 88.0105 13.6737 88.0105 15.7433V35.4893C88.0105 35.6858 88.1161 35.7916 88.3119 35.7916C88.508 35.7916 88.5985 35.6858 88.5985 35.4893V15.7282ZM90.9202 15.7132C90.9202 14.278 91.4327 13.0543 92.4428 12.042C93.4678 11.0146 94.6891 10.501 96.1212 10.501C97.3876 10.501 98.5033 10.9089 99.4681 11.7247C100.433 12.5556 101.021 13.5981 101.232 14.8521L105.182 38.8433H103.433L99.6339 15.7888C99.4228 14.5046 98.9857 13.5981 98.3524 13.0543C97.7043 12.5104 96.9654 12.2385 96.1062 12.2385C95.1414 12.2385 94.3122 12.5707 93.6338 13.2506C92.9553 13.9305 92.6236 14.7463 92.6236 15.7132V35.4742C92.6236 36.6677 92.2016 37.68 91.3572 38.526C90.513 39.372 89.4878 39.78 88.3119 39.78C87.121 39.78 86.0958 39.3569 85.2667 38.526C84.4224 37.68 84.0155 36.6526 84.0155 35.4742V15.7132C84.0155 14.7463 83.6687 13.9305 82.9903 13.2506C82.3118 12.5707 81.4827 12.2385 80.5329 12.2385C79.6735 12.2385 78.9198 12.5104 78.2715 13.0543C77.6233 13.5981 77.2312 14.293 77.0956 15.139L73.1458 38.8433H71.4422L75.4072 14.837C75.6032 13.5981 76.1911 12.5707 77.156 11.7398C78.1208 10.924 79.2364 10.5161 80.5027 10.5161C81.935 10.5161 83.156 11.0297 84.1812 12.0571C85.1762 13.0694 85.6888 14.278 85.6888 15.7282V35.4893C85.6888 36.1994 85.9451 36.8188 86.4576 37.3476C86.9703 37.8461 87.5883 38.1029 88.3119 38.1029C89.0205 38.1029 89.6387 37.8461 90.1663 37.3476C90.679 36.8188 90.9352 36.2145 90.9352 35.4893V15.7132H90.9202Z" fill="white"/>
<path d="M126.921 9.17139V10.8634H115.705C114.333 10.8634 113.157 11.3619 112.177 12.344C111.197 13.326 110.7 14.5044 110.7 15.8792V19.3842C110.7 20.0943 110.956 20.7137 111.469 21.2274C111.981 21.741 112.599 21.9978 113.323 21.9978H122.579C123.137 21.9978 123.604 22.1943 123.997 22.587C124.388 22.98 124.584 23.4483 124.584 23.9921C124.584 24.5511 124.388 25.0194 123.997 25.4122C123.604 25.8051 123.137 26.0014 122.579 26.0014H113.323C112.599 26.0014 111.981 26.2584 111.469 26.772C110.956 27.2856 110.7 27.9051 110.7 28.6152V32.1353C110.7 33.5101 111.197 34.6885 112.177 35.6705C113.157 36.6524 114.333 37.1511 115.705 37.1511H126.921V38.8431H115.705C113.866 38.8431 112.283 38.1935 110.971 36.879C109.659 35.5647 109.011 33.9936 109.011 32.1353V28.6152C109.011 27.4217 109.433 26.4094 110.262 25.5785C111.107 24.7325 112.132 24.3094 113.308 24.3094H122.564C122.775 24.3094 122.881 24.2036 122.881 24.0072C122.881 23.8109 122.775 23.7051 122.564 23.7051H113.308C112.117 23.7051 111.107 23.282 110.262 22.4511C109.418 21.6051 109.011 20.5928 109.011 19.4144V15.8792C109.011 14.036 109.659 12.4498 110.971 11.1354C112.283 9.82093 113.85 9.17139 115.705 9.17139H126.921ZM111.303 15.8792C111.303 14.6706 111.725 13.6433 112.584 12.7822C113.443 11.9209 114.484 11.498 115.69 11.498H126.906V13.19H115.69C114.951 13.19 114.318 13.4619 113.775 13.9908C113.247 14.5194 112.991 15.139 112.991 15.8943V19.3993C112.991 19.5958 113.082 19.7016 113.278 19.7016H122.534C123.725 19.7016 124.75 20.1245 125.594 20.9554C126.439 21.8016 126.846 22.8137 126.846 23.9921C126.846 25.1705 126.424 26.1978 125.594 27.0288C124.75 27.8748 123.725 28.2978 122.534 28.2978H113.278C113.082 28.2978 112.991 28.4036 112.991 28.6001V32.1353C112.991 32.8755 113.247 33.5101 113.775 34.0388C114.303 34.5677 114.936 34.8245 115.69 34.8245H126.906V36.5165H115.69C114.469 36.5165 113.443 36.0936 112.584 35.2323C111.725 34.3712 111.303 33.3438 111.303 32.1353V28.6152C111.303 28.0561 111.499 27.5878 111.891 27.195C112.283 26.8021 112.75 26.6058 113.293 26.6058H122.549C123.288 26.6058 123.906 26.3489 124.419 25.8353C124.931 25.3368 125.187 24.7174 125.187 23.9921C125.187 23.282 124.931 22.6626 124.419 22.149C123.906 21.6353 123.288 21.3785 122.549 21.3785H113.293C112.75 21.3785 112.283 21.182 111.891 20.8044C111.499 20.4116 111.303 19.9282 111.303 19.3842V15.8792Z" fill="white"/>
<path d="M150.5 37.136V28.6906C150.5 27.9805 150.243 27.3612 149.746 26.8476C149.233 26.3338 148.615 26.077 147.906 26.077H142.947C142.404 26.077 141.937 25.8805 141.545 25.5029C141.153 25.1101 140.957 24.6418 140.957 24.0978C140.957 23.5541 141.153 23.0857 141.545 22.6928C141.937 22.3001 142.404 22.1187 142.947 22.1187H152.188V23.7958H142.947C142.751 23.7958 142.645 23.9016 142.645 24.0978C142.645 24.2943 142.751 24.4001 142.947 24.4001H147.906C149.082 24.4001 150.093 24.823 150.922 25.6541C151.766 26.485 152.173 27.4971 152.173 28.6755V38.8431H143.203C139.132 38.8431 135.635 37.3928 132.74 34.477C129.846 31.5762 128.398 28.0863 128.398 23.9921C128.398 19.9129 129.846 16.4232 132.74 13.5224C135.635 10.6217 139.132 9.17139 143.203 9.17139H152.173V10.8634H143.203C139.585 10.8634 136.494 12.1476 133.931 14.7159C131.368 17.2842 130.087 20.3813 130.087 23.9921C130.087 27.618 131.368 30.7152 133.931 33.2835C136.494 35.8518 139.585 37.136 143.203 37.1511H150.5V37.136ZM143.127 36.5165C139.72 36.5014 136.811 35.2777 134.399 32.8302C131.956 30.3828 130.72 27.4368 130.72 23.977C130.72 20.5476 131.941 17.6016 134.399 15.1541C136.826 12.7066 139.781 11.4828 143.233 11.4828H152.203V13.1749H143.233C140.248 13.1749 137.715 14.2325 135.605 16.3476C133.479 18.4626 132.424 21.0159 132.424 23.977C132.424 26.9684 133.479 29.5064 135.605 31.6215C137.715 33.7518 140.263 34.8094 143.233 34.8094H148.223V28.6302C148.223 28.4338 148.133 28.328 147.937 28.328H142.977C141.786 28.328 140.776 27.9202 139.947 27.0893C139.102 26.2433 138.695 25.2461 138.695 24.0677C138.695 22.8893 139.117 21.8921 139.947 21.0612C140.791 20.2152 141.801 19.8073 142.977 19.8073H152.203V21.4993H142.977C142.253 21.4993 141.635 21.7561 141.137 22.2546C140.625 22.7533 140.369 23.3727 140.369 24.0828C140.369 24.7928 140.625 25.4122 141.137 25.9109C141.635 26.4245 142.253 26.6813 142.977 26.6813H147.922C148.464 26.6813 148.917 26.8777 149.309 27.2554C149.701 27.6483 149.896 28.1166 149.896 28.6604V36.5316H143.127V36.5165Z" fill="white"/>
<path d="M162.923 12.9785C163.314 11.8455 164.007 10.9239 164.987 10.2289C165.983 9.51887 167.083 9.17139 168.289 9.17139C169.495 9.17139 170.581 9.51887 171.575 10.2138C172.555 10.9239 173.25 11.8455 173.641 12.9785L176.611 21.2425C176.792 21.726 176.868 22.2245 176.868 22.7533C176.868 23.9619 176.445 24.9893 175.586 25.8504C174.726 26.6964 173.701 27.1194 172.495 27.1194L168.108 27.1345C167.913 27.1345 167.806 27.2403 167.806 27.4368C167.806 27.633 167.913 27.7388 168.108 27.7388H175.812C176.731 27.7388 177.561 27.9958 178.315 28.5245C179.068 29.0533 179.612 29.7481 179.928 30.6094L182.867 38.8431H181.059L178.33 31.1986C178.134 30.6697 177.802 30.2468 177.35 29.9295C176.883 29.6122 176.37 29.4461 175.812 29.4461H168.094C167.55 29.4461 167.083 29.2496 166.691 28.8569C166.299 28.4641 166.103 27.9958 166.103 27.4518C166.103 26.8928 166.299 26.4245 166.691 26.0317C167.083 25.6388 167.55 25.4425 168.094 25.4425H172.48C173.219 25.4425 173.852 25.1857 174.38 24.6569C174.907 24.128 175.164 23.4936 175.164 22.7533C175.164 22.436 175.104 22.1187 174.998 21.8317L172.044 13.5375C171.756 12.7368 171.274 12.0872 170.581 11.5885C169.902 11.09 169.134 10.8483 168.289 10.8483C167.445 10.8483 166.676 11.09 165.983 11.5885C165.304 12.0872 164.821 12.7217 164.536 13.5375L155.49 38.8431H153.695L162.923 12.9785ZM165.138 13.6584C165.379 13.0088 165.786 12.48 166.375 12.0721C166.948 11.6641 167.596 11.4677 168.304 11.4677C168.997 11.4677 169.645 11.6641 170.234 12.0721C170.807 12.48 171.229 13.0088 171.471 13.6584L174.469 22.0129L174.591 22.723C174.591 23.2971 174.394 23.7807 173.987 24.1885C173.582 24.5964 173.099 24.7928 172.526 24.7928L168.138 24.8079C167.43 24.8079 166.813 25.0649 166.299 25.5634C165.786 26.077 165.53 26.6964 165.53 27.4217C165.53 28.1317 165.786 28.7511 166.299 29.2647C166.813 29.7785 167.415 30.0353 168.138 30.0353H175.812C176.792 30.0353 177.454 30.4885 177.773 31.4101L180.426 38.828H178.616L176.189 31.969C176.129 31.8029 175.994 31.7273 175.812 31.7273H168.108C166.917 31.7273 165.908 31.3044 165.078 30.4734C164.235 29.6273 163.827 28.6152 163.827 27.4368C163.827 26.2433 164.248 25.231 165.078 24.385C165.923 23.5388 166.932 23.131 168.108 23.131H172.495C172.752 23.131 172.872 23.0101 172.872 22.7533L172.843 22.6021L169.858 14.2626C169.586 13.5375 169.072 13.1749 168.289 13.1749C167.505 13.1749 166.977 13.5375 166.707 14.2626L157.948 38.8431H156.138L165.138 13.6584Z" fill="white"/>
<path d="M204.847 13.0845C201.862 10.637 198.456 9.6096 194.641 10.0176C190.827 10.4103 187.706 12.0873 185.294 15.0938C182.867 18.0852 181.842 21.4995 182.249 25.3217C182.641 29.1441 184.314 32.2714 187.299 34.7038C190.284 37.136 193.692 38.1634 197.507 37.7707C201.32 37.3778 204.442 35.6858 206.854 32.6943C207.29 32.1506 207.682 31.6066 208.029 31.0476L209.507 31.8785C209.115 32.5131 208.662 33.1476 208.164 33.7671C205.451 37.121 201.953 39.0094 197.686 39.4627C193.405 39.9009 189.592 38.7526 186.244 36.0182C182.898 33.2988 180.997 29.7938 180.561 25.5031C180.123 21.2124 181.269 17.3902 183.998 14.0211C186.713 10.6822 190.209 8.77868 194.491 8.34051C198.757 7.90251 202.572 9.05057 205.918 11.7701C206.582 12.3139 207.199 12.888 207.757 13.4923L206.506 14.6405C205.993 14.0967 205.451 13.5679 204.847 13.0845ZM203.415 14.8521C200.913 12.8126 198.064 11.9664 194.867 12.2837C191.672 12.6161 189.063 14.0211 187.029 16.529C185.009 19.0219 184.148 21.8772 184.48 25.08C184.812 28.283 186.215 30.8966 188.702 32.9361C191.205 34.9606 194.039 35.8217 197.25 35.4893C200.446 35.1569 203.054 33.7519 205.088 31.2591C205.42 30.8362 205.737 30.3981 206.024 29.9448L207.487 30.7757C207.155 31.3046 206.792 31.8333 206.385 32.3468C204.064 35.2023 201.079 36.8189 197.416 37.1966C193.767 37.5742 190.51 36.5923 187.647 34.2656C184.781 31.9239 183.168 28.9325 182.792 25.2614C182.415 21.6053 183.396 18.342 185.748 15.4714C188.069 12.601 191.054 10.9845 194.717 10.6068C198.365 10.2442 201.621 11.2262 204.471 13.5679C205.044 14.0362 205.571 14.5197 206.053 15.0485L204.818 16.1967C204.395 15.7131 203.928 15.2751 203.415 14.8521Z" fill="white"/>
<path d="M230.009 9.17158H232L224.189 22.0736C224.054 22.2701 223.994 22.4967 223.994 22.7535V35.5196C223.994 36.7131 223.572 37.7254 222.742 38.5563C221.899 39.4023 220.888 39.8103 219.712 39.8103C218.537 39.8103 217.526 39.3872 216.696 38.5563C215.853 37.7103 215.446 36.698 215.446 35.5196V22.7535C215.446 22.4967 215.371 22.2701 215.236 22.0435L207.486 9.15649H209.431L216.652 21.1522C216.953 21.6356 217.119 22.1643 217.119 22.7384V35.5196C217.119 36.2448 217.376 36.8643 217.889 37.3628C218.387 37.8764 218.989 38.1334 219.712 38.1334C220.436 38.1334 221.053 37.8764 221.567 37.3628C222.08 36.8643 222.335 36.2448 222.335 35.5196V22.7535C222.335 22.1794 222.487 21.6507 222.788 21.1673L230.009 9.17158ZM227.296 9.17158H229.27L222.215 20.8802C221.852 21.4543 221.688 22.0889 221.688 22.7686V35.5196C221.688 36.0636 221.491 36.547 221.1 36.9397C220.708 37.3327 220.239 37.5139 219.697 37.5139C219.155 37.5139 218.688 37.3176 218.296 36.9397C217.902 36.547 217.707 36.0636 217.707 35.5196V22.7535C217.707 22.0736 217.526 21.4392 217.179 20.85L210.155 9.15649H212.114L218.612 19.9586C219.139 20.8047 219.411 21.7414 219.411 22.7384V35.5196C219.411 35.7161 219.516 35.8219 219.712 35.8219C219.909 35.8219 220.013 35.7161 220.013 35.5196V22.7535C220.013 21.7565 220.285 20.8198 220.812 19.9736L227.296 9.17158Z" fill="white"/>
</svg>
